<svg width="84" height="84" viewBox="0 0 84 84" fill="none" xmlns="http://www.w3.org/2000/svg">
<path d="M79.1049 59.3486C77.1442 63.4802 74.6232 67.1216 71.542 70.2728C68.4608 73.5641 64.8894 76.2251 60.8979 78.3259C57.0464 80.3567 52.7747 81.8273 48.363 82.5276C44.0914 83.2979 39.6096 83.2979 35.1279 82.5976C29.5257 81.7573 24.4138 79.7965 19.862 76.9954C15.1702 74.1243 11.1786 70.4129 7.95739 66.0012C4.80617 61.6595 2.42524 56.6175 1.16475 51.2955C-0.095738 46.1135 -0.375864 40.6514 0.534489 35.1192L0.744604 33.6487L2.21516 33.8587L2.70535 33.9288L4.03584 34.1388C4.9462 29.5871 6.62685 25.4555 8.93774 21.744C11.5287 17.4024 15.0301 13.6909 19.0217 10.7498C23.0832 7.87868 27.635 5.70784 32.6069 4.51738C37.3688 3.39695 42.4107 3.11685 47.4526 3.95717C49.6001 4.28397 51.6543 4.75081 53.6151 5.35771C55.6225 6.05799 57.5365 6.87497 59.3572 7.80866C61.178 8.78904 62.9286 9.90947 64.6093 11.17C66.2899 12.4304 67.8539 13.8076 69.3011 15.3015L70.3516 16.492L69.2311 17.5424L68.8109 17.8926L67.6905 19.013L66.5701 17.8926C65.2629 16.492 63.8624 15.2315 62.3684 14.1111C60.9212 12.9907 59.3339 11.9869 57.6066 11.0999C55.9726 10.2129 54.2453 9.46597 52.4246 8.85907C50.6506 8.29885 48.8065 7.85533 46.8924 7.52854C42.2706 6.82827 37.7189 7.03836 33.4472 8.08877C29.0355 9.13917 24.8339 11.0999 21.1925 13.761C17.5511 16.352 14.4699 19.7133 12.0189 23.6348C9.77808 27.3462 8.16748 31.6179 7.39718 36.2396C6.90699 39.2508 6.83693 42.192 7.18706 45.1331C7.46717 48.0742 8.16746 50.9453 9.21787 53.7464C10.2683 56.5475 11.6688 59.1385 13.4195 61.5895C15.1001 63.9704 17.2009 66.2112 19.4418 68.102L20.7023 69.0824L19.6519 70.3429L19.3718 70.693L18.4615 71.8134C19.4885 72.6071 20.5856 73.354 21.7527 74.0543C25.8143 76.5052 30.4361 78.2559 35.408 79.0962C35.6181 78.2559 36.1783 75.5949 36.1783 75.5949C40.8001 76.3652 45.3519 76.0851 49.6235 75.1047C54.1052 73.9843 58.2368 72.0935 61.8782 69.4325C65.5196 66.7715 68.6709 63.4102 71.0518 59.5587C73.3627 55.7772 74.9733 51.5756 75.6736 46.9538C75.9537 45.1798 76.0937 43.4058 76.0937 41.6317C76.0937 39.8577 75.977 38.1304 75.7436 36.4497C75.4635 34.6757 75.0667 32.9484 74.5532 31.2677C73.993 29.5871 73.3393 27.9531 72.5924 26.3658L71.8921 24.9653L73.2927 24.265L73.7828 24.0549L75.1834 23.3547L75.8836 24.7552C76.724 26.5292 77.4476 28.3499 78.0545 30.2173C78.6148 32.038 79.0582 33.9288 79.385 35.8895C79.6651 37.8036 79.8052 39.7177 79.8052 41.6317C79.8052 43.4524 79.6651 45.2731 79.385 47.0938L79.315 47.444V47.514C78.8248 50.6652 77.9145 53.7464 76.724 56.5475L77.9144 57.1778L78.4047 57.3878L79.7351 58.0181L79.1049 59.3486Z" fill="#EAEBE4" fill-opacity="0.4"/>
<path d="M39.1193 0.0350136C39.8196 0.0350136 40.5665 0.0350136 41.3602 0.0350136C42.1071 -0.0116712 42.8541 -0.0116712 43.601 0.0350136C44.348 0.0816983 45.0716 0.151717 45.7719 0.245086C46.5188 0.291771 47.2658 0.385136 48.0128 0.52519C53.4048 1.36552 58.4468 3.25626 62.8585 5.91729C67.4803 8.64834 71.4718 12.2898 74.6931 16.4914C77.9143 20.693 80.2952 25.5249 81.6958 30.7069C83.0263 35.7488 83.4464 41.0709 82.8162 46.533C82.7462 46.9532 82.8162 46.6731 82.7462 46.8831C82.7462 46.9298 82.7462 47.0465 82.7462 47.2333C82.6995 47.4667 82.6762 47.6068 82.6762 47.6534C82.6762 47.7001 82.6528 47.8168 82.6062 48.0036L82.396 49.4742L80.8555 49.2641L80.3652 49.194L78.8947 48.984L79.1048 47.4434C79.1515 47.3967 79.1748 47.28 79.1748 47.0932C79.2215 46.9065 79.2448 46.8131 79.2448 46.8131C79.3149 46.3229 79.2448 46.603 79.3148 46.3929V46.1128C79.9451 41.1409 79.5249 36.239 78.2644 31.6172C77.0039 26.8554 74.8331 22.4437 71.892 18.5922C68.9508 14.7407 65.3094 11.4494 61.1078 8.92844C57.0462 6.47749 52.4244 4.72683 47.4525 3.95654C46.7989 3.86317 46.122 3.79313 45.4217 3.74644C44.7215 3.65307 44.0445 3.58305 43.3909 3.53637C42.6907 3.53637 42.0138 3.53637 41.3602 3.53637C40.7066 3.53637 40.0297 3.53637 39.3294 3.53637L37.7888 3.67641L37.7188 2.13583V1.64563L37.6487 0.175055L39.1193 0.0350136Z" fill="#EAEBE4" fill-opacity="0.4"/>
</svg>
