<svg width="100" height="99" viewBox="0 0 100 99" fill="none" xmlns="http://www.w3.org/2000/svg">
<path d="M77.4937 82.4429C78.3487 82.6229 79.2488 82.8029 80.1488 82.9379C81.0188 83.0579 81.9188 83.1629 82.8488 83.2529C87.2138 78.9779 90.7237 73.8479 93.1537 68.2229C95.5837 62.5979 96.8888 56.4779 97.0238 50.4029L92.6587 50.3129C92.5687 55.6229 91.4887 60.9779 89.4187 65.8829C88.9987 66.0329 88.5637 66.1679 88.1137 66.2879C87.6637 66.4079 87.2287 66.5279 86.8087 66.6479C85.9537 66.8279 85.0538 67.0079 84.1988 67.1879C83.1638 69.1229 81.9937 71.0129 80.6887 72.8129C79.3387 74.5679 77.8537 76.2329 76.2337 77.7629C73.0387 80.7779 69.3037 83.2979 65.2537 85.0979C65.1187 85.5479 65.0287 85.9979 64.8937 86.4029C64.7737 86.8529 64.6537 87.3029 64.5337 87.7529C64.3837 88.1729 64.2337 88.6079 64.0837 89.0579C63.9487 89.5079 63.7687 89.9579 63.5887 90.4079C68.6737 88.6529 73.3987 85.9079 77.4937 82.4429Z" fill="#EF428C" fill-opacity="0.5"/>
<path d="M62.9584 82.7125C66.1984 81.4075 69.2584 79.6075 71.9584 77.4025C74.6584 75.2425 77.0884 72.6325 79.0684 69.7525C79.3384 69.4375 79.5634 69.0325 79.7884 68.6725L80.1485 68.1325C80.2385 67.9525 80.3734 67.7725 80.4634 67.5475C80.6734 67.1875 80.8984 66.8125 81.1384 66.4225L81.7235 65.2525L81.8584 64.9825L81.9934 64.6675L82.2634 64.0825L82.5334 63.4975C82.6234 63.2725 82.7134 63.0925 82.7584 62.8675C82.9384 62.4775 83.1034 62.0725 83.2534 61.6525L83.6584 60.4375C83.8384 60.0325 83.9284 59.5825 84.0634 59.1775C84.1534 58.7725 84.2884 58.3225 84.3784 57.9175L84.6934 56.6575L84.9184 55.3525C85.1884 53.6425 85.3684 51.8875 85.4134 50.1325C85.4134 50.0425 85.5034 49.9525 85.6834 49.9525C85.8184 49.9525 85.9534 50.0425 85.9534 50.1325C85.8634 53.6875 85.2785 57.1975 84.1985 60.5725L83.7485 61.8325C83.6135 62.2375 83.4335 62.6425 83.2985 63.0475C83.2085 63.2575 83.1184 63.4675 83.0284 63.6775L82.7584 64.2625L82.4884 64.8925L82.3534 65.1625L82.2184 65.4775L81.5884 66.6475C81.4084 67.0525 81.1834 67.4125 80.9584 67.8175C80.8384 67.9975 80.7185 68.1775 80.5985 68.3575L80.2384 68.9425L79.9235 69.4825L79.7434 69.7525L79.5184 70.0225L78.7534 71.1025C78.4834 71.4625 78.2134 71.8225 77.9434 72.1825C77.8084 72.3175 77.6734 72.4975 77.5384 72.6775L77.0884 73.1725L76.6834 73.6675L76.4584 73.9375L76.2334 74.1625L75.2884 75.1525C74.9884 75.4525 74.6734 75.7525 74.3434 76.0525C74.0284 76.3675 73.7134 76.6375 73.3534 76.9525C73.0384 77.2225 72.7234 77.5375 72.3634 77.8075C69.6184 80.0125 66.5135 81.8125 63.2735 83.1625C62.3285 87.6175 60.5285 92.1175 57.8735 96.3925C57.8435 96.4525 57.7834 96.4975 57.6934 96.5275C52.5634 97.4275 47.3434 97.4725 42.2134 96.7075C37.1284 95.8975 32.0885 94.3225 27.4985 91.9375C27.3635 91.8475 27.3184 91.7125 27.3634 91.5775C27.4534 91.4425 27.5885 91.3975 27.7235 91.4425C32.2685 93.8275 37.2184 95.3575 42.2584 96.1675C44.7784 96.5275 47.3434 96.7075 49.8634 96.7075L51.7985 96.6625C52.4285 96.6025 53.0584 96.5575 53.6884 96.5275C54.3184 96.4825 54.9484 96.3925 55.5784 96.3025L56.5235 96.1675C56.8535 96.1075 57.1684 96.0625 57.4684 96.0325C60.1234 91.7575 61.9234 87.2575 62.8684 82.8475C62.8684 82.7875 62.8984 82.7425 62.9584 82.7125Z" fill="#EF428C" fill-opacity="0.5"/>
<path d="M84.6493 50.1325C84.6493 49.7275 85.1442 49.3676 85.6842 49.3676C86.2242 49.3676 86.6743 49.7275 86.6743 50.1775C86.6743 50.6275 86.1793 50.9426 85.6393 50.9426C85.0993 50.8976 84.6493 50.5375 84.6493 50.1325Z" fill="#EF428C" fill-opacity="0.5"/>
<path d="M28.0836 90.767C27.5886 90.542 26.9586 90.722 26.6886 91.217C26.4186 91.712 26.6436 92.297 27.1386 92.567C27.6786 92.837 28.3086 92.657 28.5336 92.162C28.7586 91.667 28.5786 91.037 28.0836 90.767Z" fill="#EF428C" fill-opacity="0.5"/>
<path fill-rule="evenodd" clip-rule="evenodd" d="M68.8098 73.397C73.0848 69.932 76.4599 65.297 78.3499 60.122C78.3799 60.092 78.4248 60.062 78.4848 60.032C78.9948 59.912 79.4899 59.777 79.9699 59.627L80.7348 59.357C81.0048 59.297 81.2599 59.222 81.4999 59.132C81.9799 58.922 82.4748 58.727 82.9848 58.547L83.7499 58.232L84.4699 57.872C84.5599 57.827 84.6948 57.827 84.7848 57.872C84.8748 57.962 84.9199 58.052 84.8749 58.142C83.7949 62.642 81.7699 66.917 79.0699 70.697C76.3249 74.477 72.9049 77.717 68.9899 80.237C68.8999 80.282 68.8099 80.237 68.7199 80.192C68.6299 80.102 68.5848 80.012 68.5848 79.922C68.6448 79.352 68.7049 78.812 68.7649 78.302C68.8099 77.762 68.8098 77.222 68.8098 76.682C68.8548 76.142 68.8548 75.647 68.8098 75.107C68.8098 74.567 68.7949 74.042 68.7649 73.532C68.7649 73.472 68.7798 73.427 68.8098 73.397ZM81.5449 59.582C81.0949 59.732 80.6449 59.867 80.1949 59.987C79.7449 60.122 79.2949 60.257 78.8449 60.392C76.9099 65.567 73.5349 70.247 69.2149 73.757C69.3049 75.602 69.3049 77.537 69.1249 79.472C72.8149 77.087 76.0549 73.982 78.6199 70.382C81.2299 66.827 83.1199 62.777 84.2449 58.502C83.3449 58.907 82.4449 59.267 81.5449 59.582Z" fill="#EF428C" fill-opacity="0.5"/>
<g opacity="0.2">
<path d="M58.0533 84.1073C58.2933 84.0473 58.5334 83.9723 58.7734 83.8823L59.4933 83.7023C59.7183 83.6123 59.9433 83.5673 60.1683 83.4773L60.8884 83.2523C59.9884 87.1223 58.4584 90.9923 56.2984 94.6823L54.4083 94.9523C54.1383 94.9973 53.8233 94.9973 53.5083 94.9973L52.5634 95.0873C54.9934 91.5773 56.8383 87.8423 58.0533 84.1073Z" fill="#EF428C" fill-opacity="0.5"/>
</g>
<g opacity="0.4">
<path d="M53.2843 84.9171L54.7244 84.7371C55.2194 84.6921 55.7144 84.6021 56.1644 84.5121C55.9844 84.9621 55.8044 85.4121 55.6244 85.8621C55.3994 86.3571 55.2193 86.8071 54.9943 87.2571C54.5443 88.1571 54.0794 89.0571 53.5994 89.9571C53.0894 90.8571 52.5343 91.7421 51.9343 92.6121C51.6643 93.0621 51.3493 93.4671 51.0343 93.9171C50.7343 94.3371 50.4194 94.7571 50.0894 95.1771C49.4594 95.2221 48.8294 95.1771 48.1994 95.1771L47.2544 95.1321C46.9844 95.1321 46.6694 95.1321 46.3544 95.0871C49.2344 91.9371 51.5743 88.4721 53.2843 84.9171Z" fill="#EF428C" fill-opacity="0.5"/>
</g>
<g opacity="0.6">
<path d="M48.4235 85.097C49.3685 85.187 50.3585 85.097 51.3485 85.097C49.4135 88.562 46.9385 91.8471 43.8785 94.8621L42.9334 94.7271L42.4834 94.682L41.9885 94.5921L40.1434 94.2771C43.4734 91.5321 46.2185 88.427 48.4235 85.097Z" fill="#EF428C" fill-opacity="0.5"/>
</g>
<g opacity="0.8">
<path d="M43.5641 84.6478L43.9241 84.7378C44.0441 84.7378 44.1641 84.7528 44.2841 84.7828L45.0041 84.8728L45.7241 84.9628L46.4891 85.0078C44.1041 88.2028 41.1791 91.1278 37.7591 93.6928L35.9141 93.1978C35.3291 93.0178 34.7441 92.7928 34.1591 92.6128C35.0591 92.0278 35.9591 91.4428 36.8141 90.8128C37.6541 90.1828 38.4641 89.5378 39.2441 88.8778C40.0241 88.2178 40.7741 87.5428 41.4941 86.8528C42.2141 86.1328 42.9341 85.4128 43.5641 84.6478Z" fill="#EF428C" fill-opacity="0.5"/>
</g>
<path d="M38.8393 83.5677L40.2342 83.9727C40.4592 84.0177 40.7292 84.0627 40.9542 84.1077L41.6743 84.2877C38.8843 87.1227 35.5992 89.6427 31.8192 91.7127C30.6942 91.2177 29.5242 90.7227 28.4442 90.1377C32.3592 88.3827 35.8693 86.1327 38.8393 83.5677Z" fill="#EF428C" fill-opacity="0.5"/>
<path d="M58.0999 81.9476C55.9849 82.4876 53.8249 82.8476 51.6199 82.9826C49.4149 83.1176 47.1649 83.0726 45.0049 82.7576C40.6399 82.2176 36.4098 80.7776 32.5848 78.5726L33.8449 76.3226C37.3999 78.3926 41.3149 79.6976 45.3199 80.2376C47.3449 80.5076 49.4149 80.5526 51.4399 80.4176C53.4649 80.3276 55.4899 79.9676 57.4699 79.4726L58.0999 81.9476Z" fill="#EF428C" fill-opacity="0.5"/>
<path fill-rule="evenodd" clip-rule="evenodd" d="M75.7843 84.9622C76.4143 84.4822 77.0444 83.9872 77.6744 83.4772C77.7644 83.3872 77.9443 83.4322 78.0343 83.5222L79.6544 85.5022C79.7894 85.5922 79.7444 85.7722 79.6544 85.8622C78.9644 86.4022 78.2894 86.9272 77.6294 87.4372C77.4944 87.5272 77.3144 87.5272 77.2244 87.3922L75.7394 85.3222C75.6494 85.2322 75.6493 85.0522 75.7843 84.9622ZM77.8093 84.0622L76.2794 85.2772L77.4943 86.8522L79.0693 85.6372L77.8093 84.0622Z" fill="#EF428C" fill-opacity="0.5"/>
<path fill-rule="evenodd" clip-rule="evenodd" d="M72.0947 87.4378C72.4097 87.2578 72.7697 87.0327 73.0847 86.8077L74.1197 86.1327C74.2547 86.0877 74.3897 86.0878 74.4797 86.2228L75.9197 88.3378C76.0097 88.4728 75.9647 88.6078 75.8297 88.6978L74.7498 89.4178C74.3898 89.6428 74.0297 89.8678 73.6697 90.0928C73.5347 90.1828 73.3547 90.1378 73.2647 90.0028L72.0047 87.7978C71.9147 87.6628 71.9597 87.5278 72.0947 87.4378ZM74.2097 86.7178C73.6697 87.0778 73.1297 87.4228 72.5897 87.7528L73.6248 89.5077C74.1948 89.1477 74.7647 88.7878 75.3347 88.4278L74.2097 86.7178Z" fill="#EF428C" fill-opacity="0.5"/>
<path fill-rule="evenodd" clip-rule="evenodd" d="M68.134 89.5074C68.344 89.4174 68.539 89.3424 68.719 89.2824L69.259 88.9674L70.294 88.4274C70.429 88.3824 70.609 88.4274 70.654 88.5624L71.869 90.8124C71.959 90.9024 71.914 91.0824 71.779 91.1724L70.609 91.7574L70.0241 92.0274C69.8441 92.1174 69.649 92.2074 69.439 92.2974C69.304 92.3874 69.169 92.2974 69.079 92.1624L68.044 89.8674C67.954 89.7324 68.044 89.5524 68.134 89.5074ZM70.339 89.0124C69.754 89.3274 69.214 89.6424 68.629 89.9124L69.484 91.7124C70.069 91.4424 70.654 91.1274 71.284 90.8124L70.339 89.0124Z" fill="#EF428C" fill-opacity="0.5"/>
<path fill-rule="evenodd" clip-rule="evenodd" d="M64.0393 91.1727L64.6243 90.9927C64.8043 90.9327 64.9843 90.8577 65.1643 90.7677L66.2893 90.3177C66.4243 90.2727 66.5593 90.3627 66.6493 90.4977L67.6393 92.8377C67.6843 92.9727 67.5942 93.1077 67.4592 93.1977L66.2893 93.6477C66.0793 93.7377 65.8692 93.8127 65.6592 93.8727L65.0743 94.0977C64.8943 94.1427 64.7593 94.0527 64.7143 93.9177L63.9043 91.5327C63.8143 91.3977 63.9043 91.2177 64.0393 91.1727ZM66.2442 90.9027L65.3442 91.2627C65.0442 91.3827 64.7442 91.5027 64.4442 91.6227L65.1192 93.5127C65.4492 93.3927 65.7643 93.2727 66.0643 93.1527L67.0092 92.7927L66.2442 90.9027Z" fill="#EF428C" fill-opacity="0.5"/>
<path d="M89.0149 54.3628C88.4299 54.2728 87.9798 54.0478 87.6198 53.6878C87.3048 53.3728 87.1248 52.9228 87.1698 52.4728C87.1698 52.0228 87.4398 51.6178 87.8448 51.3478C88.2048 51.0328 88.7448 50.8978 89.2848 50.8978C89.8248 50.8978 90.3649 51.1228 90.7249 51.4828C91.0399 51.8428 91.2648 52.2928 91.2198 52.7878C91.1748 53.2828 90.9049 53.7328 90.4999 54.0028C90.0949 54.3178 89.5549 54.4528 89.0149 54.3628Z" fill="#EF428C" fill-opacity="0.5"/>
<path d="M88.0683 59.2224C86.9883 58.9524 86.2683 58.0074 86.4933 57.1524C86.5833 56.7024 86.8533 56.3424 87.3033 56.0724C87.7083 55.8474 88.2483 55.7574 88.7883 55.8474C89.3283 55.9374 89.8233 56.2074 90.1383 56.5674C90.4083 56.9724 90.5883 57.4674 90.4533 57.9624C90.2283 58.9524 89.1933 59.5374 88.0683 59.2224Z" fill="#EF428C" fill-opacity="0.5"/>
<path d="M86.5392 63.9478C86.0442 63.7678 85.6392 63.4078 85.4142 62.9578C85.2942 62.7778 85.2192 62.5678 85.1892 62.3278C85.1292 62.1178 85.1442 61.8928 85.2342 61.6528C85.3692 61.2478 85.7292 60.9328 86.1792 60.7528C86.5842 60.5728 87.1242 60.5278 87.6642 60.6628C88.2042 60.8428 88.6542 61.1578 88.9242 61.6078C89.1942 62.0128 89.2392 62.5078 89.1042 63.0028C89.0142 63.2428 88.8792 63.4528 88.6992 63.6328C88.5192 63.7678 88.3392 63.9029 88.0692 63.9929C87.6192 64.1729 87.0792 64.1728 86.5392 63.9478Z" fill="#EF428C" fill-opacity="0.5"/>
<path d="M6.70984 57.1072C6.12484 57.7822 5.53993 58.4572 4.99993 59.1772C4.42993 59.8672 3.87484 60.5872 3.33484 61.3372C4.86484 67.2772 7.56488 72.9022 11.2549 77.8072C14.8999 82.7122 19.4898 86.8972 24.7098 90.0922L26.9598 86.3572C22.4148 83.5672 18.3649 79.9672 15.1249 75.7372C15.3049 74.8372 15.5299 73.9372 15.7999 73.0822C15.9199 72.6622 16.0398 72.2422 16.1598 71.8222C16.3098 71.4022 16.4598 70.9822 16.6098 70.5622C15.3948 68.7172 14.3599 66.7372 13.5049 64.7122C12.6049 62.6872 11.9298 60.5722 11.4348 58.4122C10.3548 54.0922 10.1299 49.5922 10.5799 45.1822C9.91988 44.5822 9.27486 43.9372 8.64486 43.2472C8.01486 42.5722 7.42993 41.8522 6.79993 41.1322C5.76493 46.3972 5.76484 51.8422 6.70984 57.1072Z" fill="#EF428C" fill-opacity="0.5"/>
<path d="M13.7749 44.4171L13.5949 45.7221L13.5049 47.0271C13.4599 47.4771 13.4599 47.8821 13.4599 48.3321V49.0071C13.4299 49.2171 13.4149 49.4271 13.4149 49.6371L13.4599 50.9421C13.4599 51.1821 13.4749 51.4071 13.5049 51.6171L13.5499 52.2471L13.5949 52.9221C13.6399 53.1471 13.6399 53.3271 13.6849 53.5521L13.8649 54.8571C14.1349 56.5671 14.4949 58.2771 15.0349 59.9421C15.5299 61.6071 16.1599 63.2271 16.9249 64.8021C19.8949 71.1471 24.7999 76.5471 30.7399 80.1471C30.8749 80.1921 30.8749 80.3721 30.7849 80.4621C30.7399 80.5971 30.5599 80.6421 30.4699 80.5971C24.4399 76.9521 19.4899 71.4621 16.4299 65.1171C15.7099 63.4971 15.0799 61.8321 14.5399 60.1671C14.0299 58.4871 13.6249 56.7621 13.3249 54.9921C13.2649 54.5721 13.2049 54.1371 13.1449 53.6871C13.1149 53.4771 13.0849 53.2671 13.0549 53.0571L13.0099 52.3821C13.0099 51.9321 12.9649 51.4821 12.9199 51.0771V49.7271C12.9199 47.9721 12.9649 46.1721 13.2349 44.4621C9.85985 41.4021 6.84485 37.6221 4.45985 33.1671C4.42985 33.1071 4.41492 33.0321 4.41492 32.9421C8.01492 23.1771 14.7649 14.6721 23.4949 9.09212C23.6299 9.00212 23.8099 9.0471 23.8999 9.1821C23.9899 9.3171 23.9449 9.45212 23.8099 9.54212C15.2149 15.0321 8.50994 23.4021 4.99994 33.0321C7.33994 37.4421 10.3549 41.2221 13.6849 44.2371C13.7449 44.2971 13.7749 44.3571 13.7749 44.4171Z" fill="#EF428C" fill-opacity="0.5"/>
<path d="M31.1432 79.517C31.5032 79.697 31.5932 80.282 31.2782 80.777C31.0082 81.227 30.4681 81.452 30.1081 81.227C29.7031 81.002 29.6582 80.417 29.9732 79.967C30.2432 79.472 30.7832 79.292 31.1432 79.517Z" fill="#EF428C" fill-opacity="0.5"/>
<path d="M24.2138 10.1728C24.6638 9.85778 24.7988 9.22779 24.5288 8.77779C24.2588 8.28279 23.5837 8.14779 23.1337 8.46279C22.6387 8.77779 22.5038 9.40779 22.8188 9.90279C23.0888 10.3528 23.7638 10.4878 24.2138 10.1728Z" fill="#EF428C" fill-opacity="0.5"/>
<path fill-rule="evenodd" clip-rule="evenodd" d="M18.9038 54.1375C19.7588 59.5825 22.0988 64.7575 25.6088 69.0325C25.6388 69.0625 25.6538 69.1075 25.6538 69.1675C25.5038 69.6775 25.3689 70.1875 25.2489 70.6975L25.1139 71.4625L24.9788 72.2275C24.8588 72.7675 24.7688 73.3075 24.7088 73.8475C24.6188 74.3875 24.5738 74.9275 24.5288 75.4675C24.5288 75.5575 24.4839 75.6475 24.3489 75.6925C24.2589 75.7375 24.1689 75.7375 24.1239 75.6925C20.7489 72.4525 18.0039 68.5825 16.1139 64.3525C14.1789 60.1225 13.0988 55.5325 12.9188 50.8525C12.9188 50.7625 13.0089 50.7175 13.0989 50.6725C13.1889 50.6275 13.3238 50.6275 13.3688 50.7175L14.0438 51.1675L14.7188 51.6625C15.1688 51.9625 15.6188 52.2475 16.0688 52.5175C16.5188 52.7875 16.9688 53.0575 17.4188 53.3275C17.8988 53.5675 18.3639 53.8075 18.8139 54.0475C18.8739 54.0775 18.9038 54.1075 18.9038 54.1375ZM24.5288 72.0925C24.7088 71.1325 24.9188 70.2175 25.1588 69.3475C21.6038 65.0275 19.2638 59.8075 18.4088 54.3175C17.5538 53.9125 16.7439 53.4625 15.8889 52.9675C15.0789 52.4725 14.3138 51.9325 13.5038 51.3475C13.7288 55.7575 14.8088 60.1225 16.6088 64.1275C18.4088 68.1775 20.9739 71.8225 24.1239 74.9275C24.2139 73.9825 24.3488 72.9925 24.5288 72.0925Z" fill="#EF428C" fill-opacity="0.5"/>
<g opacity="0.2">
<path d="M15.0347 39.4674C14.7647 40.4124 14.5398 41.3574 14.3148 42.3024C11.4798 39.6024 8.86976 36.3624 6.75476 32.6274C6.97976 32.0874 7.20476 31.4574 7.42976 30.9174C7.69976 30.3324 7.96978 29.7474 8.23978 29.2074C10.0848 33.0774 12.3797 36.5424 15.0347 39.4674Z" fill="#EF428C" fill-opacity="0.5"/>
</g>
<g opacity="0.4">
<path d="M16.6991 34.922C16.6091 35.147 16.4741 35.372 16.3841 35.597L16.1141 36.272L15.8441 36.947C15.7541 37.172 15.7091 37.397 15.6191 37.622C13.1441 34.562 11.0291 31.007 9.40906 27.002C9.72406 26.462 9.9941 25.922 10.3541 25.382L11.3441 23.807C12.6491 27.902 14.4491 31.637 16.6991 34.922Z" fill="#EF428C" fill-opacity="0.5"/>
</g>
<g opacity="0.6">
<path d="M18.9491 30.6027C18.6791 31.0077 18.4541 31.4577 18.1841 31.8627C17.9591 32.2677 17.7341 32.7177 17.5091 33.1677C15.4841 29.7927 13.8641 25.9677 12.7841 21.7827L13.9541 20.2977C14.3591 19.8477 14.7641 19.3527 15.1691 18.9027C15.8891 23.1327 17.1941 27.0477 18.9491 30.6027Z" fill="#EF428C" fill-opacity="0.5"/>
</g>
<g opacity="0.8">
<path d="M21.7847 26.6425L20.8847 27.8125C20.5697 28.1725 20.2998 28.5775 20.0298 28.9825C18.4548 25.3375 17.3748 21.3325 16.8798 17.0575C17.7798 16.2025 18.6798 15.3475 19.6248 14.5375C19.7598 18.8125 20.5247 22.9075 21.7847 26.6425Z" fill="#EF428C" fill-opacity="0.5"/>
</g>
<path d="M25.1132 23.0871C24.7532 23.4471 24.4082 23.7921 24.0782 24.1221L23.0431 25.2021C21.9631 21.3771 21.4681 17.2371 21.5581 12.9621C22.0531 12.5571 22.5481 12.2421 23.0431 11.8371L23.8081 11.2971L24.6181 10.8021C24.1681 15.0771 24.3932 19.2171 25.1132 23.0871Z" fill="#EF428C" fill-opacity="0.5"/>
<path d="M16.8798 40.5925C18.0048 36.3625 19.9847 32.3125 22.6847 28.8475C25.3847 25.3375 28.7597 22.3675 32.5847 20.1625L33.8447 22.3675C30.3347 24.4375 27.2297 27.1825 24.7097 30.3775C22.2347 33.6175 20.3898 37.3525 19.3548 41.2675L16.8798 40.5925Z" fill="#EF428C" fill-opacity="0.5"/>
<path fill-rule="evenodd" clip-rule="evenodd" d="M5.40463 54.3621L5.53965 55.5771C5.56965 55.7571 5.59963 55.9521 5.62963 56.1621L5.76465 56.7471C5.76465 56.8821 5.67465 57.0171 5.53965 57.0621L3.0196 57.4671C2.8846 57.5121 2.74963 57.4221 2.70463 57.2871L2.5696 56.6121C2.5396 56.4021 2.52467 56.1921 2.52467 55.9821L2.3446 54.7221C2.3446 54.5421 2.4346 54.4071 2.5696 54.4071L5.08965 54.1371C5.26965 54.1371 5.40463 54.2271 5.40463 54.3621ZM5.17963 56.6121C5.11963 56.2821 5.0746 55.9521 5.0446 55.6221L4.90958 54.6771L2.92963 54.9021L3.0196 55.9371C3.0796 56.2671 3.13967 56.5971 3.19967 56.9271L5.17963 56.6121Z" fill="#EF428C" fill-opacity="0.5"/>
<path fill-rule="evenodd" clip-rule="evenodd" d="M5.13315 49.952C5.17815 50.762 5.13324 51.527 5.22324 52.337C5.22324 52.472 5.13324 52.607 4.99824 52.607L2.43315 52.787C2.29815 52.832 2.16322 52.697 2.16322 52.562C2.07322 51.707 2.0732 50.852 2.0282 49.997C2.0282 49.817 2.16324 49.727 2.29824 49.727L4.86322 49.682C4.99822 49.682 5.13315 49.817 5.13315 49.952ZM4.68315 52.112L4.63822 51.662V51.167L4.59318 50.222H2.56818L2.61322 51.257V51.752L2.65815 52.247L4.68315 52.112Z" fill="#EF428C" fill-opacity="0.5"/>
<path fill-rule="evenodd" clip-rule="evenodd" d="M5.3131 45.4973C5.2231 46.3073 5.17803 47.1173 5.13303 47.9273C5.13303 48.0623 5.0431 48.1523 4.8631 48.1523L2.34305 48.1073C2.16305 48.1073 2.07312 47.9723 2.07312 47.8373C2.07312 46.9373 2.16303 46.0823 2.20803 45.2273C2.25303 45.0923 2.34312 45.0023 2.52312 45.0023L5.04305 45.2273C5.17805 45.2273 5.3131 45.3623 5.3131 45.4973ZM4.6381 47.6573C4.6381 46.9823 4.68308 46.3523 4.72808 45.7223L2.74812 45.5423C2.70312 46.2173 2.6131 46.8923 2.6131 47.5673L4.6381 47.6573Z" fill="#EF428C" fill-opacity="0.5"/>
<path fill-rule="evenodd" clip-rule="evenodd" d="M5.89916 41.1327C5.76416 41.8977 5.5841 42.7077 5.4941 43.4727C5.4941 43.6527 5.35916 43.7427 5.22416 43.6977L2.70412 43.3827C2.52412 43.3827 2.43412 43.2477 2.47912 43.0677C2.56912 42.2127 2.70407 41.4027 2.88407 40.5477C2.88407 40.4127 3.01916 40.2777 3.19916 40.3227L5.67416 40.8177C5.80916 40.8177 5.89916 40.9527 5.89916 41.1327ZM4.99916 43.1577C5.08916 42.5277 5.22414 41.8977 5.31414 41.2677L3.33407 40.9077C3.24407 41.5827 3.1091 42.2127 3.0191 42.8877L4.99916 43.1577Z" fill="#EF428C" fill-opacity="0.5"/>
<path d="M25.2936 81.1377C25.6536 80.6877 26.1037 80.4177 26.5537 80.2827C27.0487 80.1927 27.4986 80.2377 27.8586 80.5077C28.2186 80.7777 28.4436 81.1827 28.5336 81.6327C28.5786 82.1277 28.4437 82.6227 28.1737 83.1177C27.8587 83.6127 27.4086 83.9277 26.9586 84.0627C26.4636 84.1977 25.9687 84.1527 25.5637 83.8377C25.1587 83.5227 24.8886 83.0727 24.8436 82.6227C24.7986 82.1277 24.9786 81.5877 25.2936 81.1377Z" fill="#EF428C" fill-opacity="0.5"/>
<path d="M21.5581 77.8974C21.9181 77.4924 22.4131 77.2674 22.9081 77.2224C23.1481 77.1924 23.3731 77.2074 23.5831 77.2674C23.7931 77.3274 23.9881 77.4324 24.1681 77.5824C24.8431 78.1674 24.8432 79.3374 24.1232 80.2374C23.4032 81.0924 22.2331 81.2724 21.4681 80.5974C21.2431 80.4624 21.1081 80.2374 21.0181 80.0124C20.9281 79.7724 20.8981 79.5324 20.9281 79.2924C20.9281 78.7974 21.1531 78.3024 21.5581 77.8974Z" fill="#EF428C" fill-opacity="0.5"/>
<path d="M18.2289 74.2073C18.6789 73.8473 19.1738 73.7123 19.6688 73.7123C20.1188 73.7123 20.5688 73.8473 20.8838 74.2073C21.1538 74.5673 21.2439 75.0173 21.1989 75.4673C21.1539 75.9623 20.9289 76.4573 20.4789 76.8173C20.0739 77.2223 19.5788 77.4473 19.0838 77.4473C18.5888 77.4473 18.1389 77.2673 17.7789 76.9073C17.4639 76.5023 17.3288 76.0073 17.4188 75.5123C17.5088 75.0173 17.7789 74.5673 18.2289 74.2073Z" fill="#EF428C" fill-opacity="0.5"/>
<path d="M64.0387 8.50776C63.7687 7.66776 63.4687 6.81278 63.1387 5.94278C62.8237 5.13278 62.4637 4.32278 62.0587 3.46778C59.1337 2.65778 56.0737 2.11778 53.0587 1.89278C49.9987 1.66778 46.9387 1.71277 43.8787 2.07277C37.8037 2.79277 31.8637 4.68276 26.5087 7.60776L28.5787 11.4328C33.2587 8.86776 38.4337 7.15776 43.7437 6.48276C45.0937 7.69776 46.3537 9.00278 47.4337 10.3528C49.6837 10.2628 51.8887 10.3078 54.0937 10.5778L54.9037 10.6678L55.3087 10.7578C55.4587 10.7578 55.6087 10.7728 55.7587 10.8028C56.2987 10.8928 56.8387 10.9978 57.3787 11.1178L58.9988 11.4778C59.5388 11.6128 60.0787 11.7928 60.6187 11.9278C62.7337 12.5578 64.8037 13.3678 66.7837 14.3578C67.2787 14.6278 67.7737 14.8528 68.2687 15.1228L69.7087 15.9778L71.1037 16.8328C71.5537 17.1478 72.0037 17.5078 72.4537 17.8228L73.1287 17.5978L73.7587 17.4178C74.2087 17.3278 74.6587 17.2228 75.1087 17.1028C75.5587 17.0128 76.0087 16.8778 76.4587 16.8328C76.9087 16.7428 77.3737 16.6528 77.8537 16.5628C73.8037 13.0528 69.1237 10.3078 64.0387 8.50776Z" fill="#EF428C" fill-opacity="0.5"/>
<path d="M71.5088 20.9725L71.0138 20.5675C70.8338 20.4175 70.6539 20.2825 70.4739 20.1625C70.1139 19.9375 69.7538 19.6675 69.3938 19.3975L68.3138 18.7225C68.1038 18.6025 67.9088 18.4825 67.7288 18.3625L67.1888 18.0475L66.6038 17.7325L66.0188 17.4175C65.6138 17.2375 65.2539 17.0125 64.8489 16.8325L63.6788 16.2925C63.4688 16.2025 63.2589 16.1275 63.0489 16.0675L62.4638 15.7975L61.8338 15.5725C61.6238 15.5125 61.4138 15.4375 61.2038 15.3475C60.7988 15.2125 60.3938 15.0775 59.9888 14.9425L58.7288 14.5825L58.4138 14.4925L58.0989 14.4475L57.4688 14.2675C57.0188 14.1775 56.6138 14.0875 56.1638 13.9975L54.9038 13.7725C54.0038 13.6825 53.1488 13.5475 52.2938 13.5025L51.6188 13.4575C51.4088 13.4275 51.1988 13.4125 50.9888 13.4125L49.6838 13.3675C49.4438 13.3675 49.2188 13.3675 49.0088 13.3675L48.3788 13.4125H47.7038C47.4788 13.4125 47.2538 13.4575 47.0288 13.4575L45.7239 13.5475L44.4638 13.7275C44.0138 13.7725 43.5638 13.8625 43.1588 13.9075L42.5288 14.0425L42.1688 14.0875L41.8538 14.1775L40.5938 14.4475C40.1888 14.5825 39.7388 14.7175 39.3338 14.8075L38.7038 14.9875L38.0739 15.2125C37.6689 15.3475 37.2638 15.4825 36.8588 15.6175C35.2388 16.2475 33.6188 16.9675 32.0888 17.8225C31.9988 17.8675 31.8639 17.8225 31.7739 17.6875C31.7289 17.5525 31.7288 17.3725 31.8638 17.3275C33.3938 16.5175 35.0138 15.7525 36.6338 15.1225C37.0838 14.9875 37.4888 14.8525 37.8938 14.6725L38.5239 14.4925L39.1538 14.3125C39.6038 14.1775 40.0088 14.0425 40.4588 13.9525L41.7188 13.6375L42.0788 13.5925L42.3938 13.5025L43.0239 13.4125C43.4739 13.3225 43.9238 13.2325 44.3288 13.1875L45.6788 13.0075L46.9838 12.9175C47.2088 12.9175 47.4338 12.8725 47.6588 12.8725H48.2888C48.7388 12.8725 49.1888 12.8275 49.6388 12.8275L50.9438 12.8725H51.3038L51.6188 12.9175L52.2938 12.9625C53.1488 13.0075 54.0488 13.1425 54.9038 13.2325C55.3538 13.3225 55.7888 13.3975 56.2088 13.4575C56.4188 13.5175 56.6438 13.5625 56.8838 13.5925L57.5138 13.7275L58.1438 13.9075C58.3838 13.9375 58.6088 13.9825 58.8188 14.0425L60.0788 14.4025C60.4838 14.5375 60.9338 14.6725 61.3388 14.8075L61.9688 15.0325L62.5538 15.3025C64.2188 15.8875 65.8388 16.6975 67.3688 17.5525C68.8988 18.4075 70.3838 19.3975 71.7788 20.4775C76.0988 19.0825 80.8688 18.3625 85.9088 18.4975C85.9988 18.4975 86.0738 18.5425 86.1338 18.6325C89.4188 22.5925 92.1638 27.0925 94.0088 31.9075L94.3688 32.8525C94.4888 33.1525 94.5938 33.4525 94.6838 33.7525L94.9989 34.6525L95.1338 35.1475L95.2688 35.5975C95.4488 36.2275 95.6288 36.8575 95.8088 37.4875L96.2588 39.3775C96.7988 41.8975 97.1139 44.5075 97.2489 47.0725C97.2489 47.2075 97.1138 47.3425 96.9788 47.3425C96.8438 47.3425 96.7088 47.2525 96.7088 47.1175C96.5738 44.5525 96.2588 42.0325 95.7188 39.5125L95.3138 37.6675C95.1338 37.0375 94.9539 36.4225 94.7739 35.8225C94.6389 35.1925 94.4138 34.5625 94.1888 33.9775L93.8739 33.0775L93.5588 32.1775C91.7138 27.4075 89.0139 22.9975 85.7739 19.0375C80.7789 18.9025 76.0088 19.5775 71.6888 20.9725C71.6288 21.0025 71.5688 21.0025 71.5088 20.9725Z" fill="#EF428C" fill-opacity="0.5"/>
<path d="M32.4483 18.4522C32.0883 18.6772 31.5932 18.4522 31.2782 17.9572C31.0082 17.4622 31.0982 16.9222 31.5032 16.6972C31.8632 16.4722 32.4033 16.6972 32.6733 17.1922C32.9433 17.6872 32.8083 18.2272 32.4483 18.4522Z" fill="#EF428C" fill-opacity="0.5"/>
<path d="M95.9886 47.1175C95.9886 47.7025 96.4387 48.1075 97.0237 48.1075C97.5637 48.1075 98.0136 47.6125 97.9686 47.0275C97.9686 46.4425 97.4736 46.0375 96.8886 46.0375C96.3486 46.0825 95.9436 46.5775 95.9886 47.1175Z" fill="#EF428C" fill-opacity="0.5"/>
<path fill-rule="evenodd" clip-rule="evenodd" d="M60.5283 20.5673L60.0783 20.3423L59.5833 20.2073L58.5933 19.8473L57.6033 19.5773C57.4233 19.5473 57.2583 19.5023 57.1083 19.4423L56.6133 19.3523L55.5783 19.0823L54.5883 18.9023C54.4083 18.8723 54.2284 18.8423 54.0484 18.8123L53.5533 18.7673C53.2233 18.7373 52.8783 18.6923 52.5183 18.6323L51.4833 18.5423C51.3033 18.5423 51.1383 18.5423 50.9883 18.5423L50.4484 18.4973H49.4133H48.3783L47.8833 18.5423C47.7033 18.5423 47.5233 18.5423 47.3433 18.5423L46.3083 18.6323L45.2734 18.7673L44.7783 18.8123C44.5983 18.8423 44.4333 18.8723 44.2833 18.9023C44.2233 18.9323 44.1784 18.9173 44.1484 18.8573C43.7884 18.4973 43.4134 18.1373 43.0234 17.7773C42.6184 17.4173 42.2133 17.0573 41.8083 16.7423C41.4033 16.3823 40.9983 16.0223 40.5933 15.7073C40.1433 15.3773 39.6933 15.0623 39.2433 14.7623C39.1983 14.7173 39.1083 14.5823 39.1083 14.4923C39.1533 14.3573 39.1983 14.3123 39.2883 14.2673C43.7433 12.9623 48.4683 12.5573 53.1033 13.0073C57.7383 13.4573 62.2383 14.8523 66.3783 17.0123C66.4233 17.0573 66.4683 17.1473 66.4683 17.2373C66.4233 17.3273 66.3783 17.4173 66.2883 17.4623C65.2533 17.9123 64.3083 18.3623 63.3633 18.9023C62.8833 19.1423 62.4333 19.3973 62.0133 19.6673C61.5633 19.9373 61.1133 20.2223 60.6633 20.5223C60.6333 20.5523 60.5883 20.5673 60.5283 20.5673ZM44.2383 18.3623C44.5983 18.3173 44.9134 18.2723 45.2734 18.2273C45.6334 18.1823 45.9483 18.1373 46.3083 18.0923L47.3433 18.0023C47.5233 18.0023 47.7033 18.0023 47.8833 18.0023L48.3783 17.9573H49.4583H50.4933L51.0333 18.0023L51.5283 18.0473L52.5633 18.0923C52.9233 18.1523 53.2684 18.1973 53.5984 18.2273L54.1383 18.3173C54.3183 18.3173 54.4833 18.3473 54.6333 18.4073L55.6683 18.5873C56.0283 18.6323 56.3433 18.7223 56.7033 18.8123L57.1984 18.9023C57.3784 18.9623 57.5433 19.0073 57.6933 19.0373L58.6833 19.3523C59.0133 19.4423 59.3434 19.5473 59.6734 19.6673L60.1683 19.8473C60.3483 19.9073 60.5133 19.9673 60.6633 20.0273C61.4283 19.5323 62.2384 18.9923 63.0484 18.5423C63.4684 18.3023 63.9033 18.0773 64.3533 17.8673C64.8033 17.6423 65.2083 17.4623 65.6583 17.2373C61.7433 15.2573 57.4233 13.9973 53.0133 13.5473C48.6483 13.1423 44.1483 13.5023 39.9183 14.6273C41.4933 15.7973 42.9333 17.0573 44.2383 18.3623Z" fill="#EF428C" fill-opacity="0.5"/>
<g opacity="0.2">
<path d="M75.1549 24.5274C75.0049 24.3474 74.8399 24.1674 74.6599 23.9874L74.1199 23.4925L73.5799 22.9974C73.4449 22.8174 73.2199 22.6824 73.0399 22.5024C76.8199 21.3774 80.9599 20.7474 85.2349 20.7474L85.8199 21.4675C85.9999 21.7375 86.1799 21.9924 86.3599 22.2324L87.4399 23.7624C83.1649 23.4024 79.0249 23.7174 75.1549 24.5274Z" fill="#EF428C" fill-opacity="0.5"/>
</g>
<g opacity="0.4">
<path d="M78.3049 28.2622L78.0799 27.9472L77.8549 27.6772L77.4049 27.0922C77.2699 26.9122 77.1349 26.6872 76.9549 26.5072L76.4598 25.9672C80.3748 25.3372 84.5149 25.2922 88.7899 25.8772L89.7348 27.4972L90.5899 29.1622C86.4049 28.2172 82.2649 27.9472 78.3049 28.2622Z" fill="#EF428C" fill-opacity="0.5"/>
</g>
<g opacity="0.6">
<path d="M80.9137 32.3572L80.1937 31.0972C80.0737 30.8872 79.9387 30.6772 79.7887 30.4672L79.3837 29.8372C83.3437 29.7472 87.4838 30.2872 91.6238 31.4122C91.8638 32.0122 92.0888 32.5972 92.2988 33.1672L92.4787 33.6172L92.6587 34.0672L92.9287 34.9222C88.9237 33.4372 84.8737 32.5822 80.9137 32.3572Z" fill="#EF428C" fill-opacity="0.5"/>
</g>
<g opacity="0.8">
<path d="M82.9385 36.7677L82.3985 35.4177L81.7684 34.0677C85.7284 34.5177 89.7335 35.5977 93.6485 37.3077C93.8285 37.9377 93.9635 38.5227 94.0985 39.1527L94.3235 40.0527C94.3835 40.3527 94.4435 40.6677 94.5035 40.9977C90.7235 38.9727 86.8085 37.5327 82.9385 36.7677Z" fill="#EF428C" fill-opacity="0.5"/>
</g>
<path d="M84.3342 41.4477C84.1092 40.4577 83.8392 39.5577 83.5692 38.6127C87.3942 39.6027 91.2193 41.2227 94.8643 43.4277C95.0443 44.6877 95.1343 45.9027 95.2243 47.1627C91.7143 44.6427 88.0242 42.7527 84.3342 41.4477Z" fill="#EF428C" fill-opacity="0.5"/>
<path d="M73.2637 25.5629C76.4137 28.6679 78.8887 32.4029 80.5537 36.4979C82.2637 40.5479 83.1187 44.9579 83.1187 49.3679H80.5537C80.5537 45.2729 79.7887 41.2229 78.2137 37.4429C76.6387 33.7079 74.3437 30.2429 71.4637 27.3629L73.2637 25.5629Z" fill="#EF428C" fill-opacity="0.5"/>
<path fill-rule="evenodd" clip-rule="evenodd" d="M67.0981 8.73259C66.7381 8.55259 66.3331 8.41759 65.9731 8.28259L64.8481 7.83259C64.7131 7.78759 64.668 7.6076 64.713 7.4726L65.568 5.08761C65.658 4.95261 65.793 4.86261 65.928 4.95261L67.143 5.40261C67.548 5.58261 67.953 5.7176 68.313 5.8976C68.448 5.9876 68.5381 6.12259 68.4481 6.25759L67.413 8.5976C67.368 8.7326 67.2331 8.77759 67.0981 8.73259ZM65.2981 7.42761C65.8831 7.65261 66.468 7.8776 67.053 8.1476L67.863 6.30261C67.233 6.03261 66.6031 5.80761 65.9731 5.53761L65.2981 7.42761Z" fill="#EF428C" fill-opacity="0.5"/>
<path fill-rule="evenodd" clip-rule="evenodd" d="M71.0587 10.7125L70.5638 10.3975L70.0238 10.1275L68.9438 9.58752C68.8088 9.54252 68.7637 9.36253 68.8087 9.22753L69.9337 6.93251C70.0237 6.79751 70.1588 6.75252 70.2938 6.79752L71.4638 7.38251L72.0038 7.69752L72.5888 8.01252C72.7238 8.10252 72.7688 8.28252 72.6788 8.37252L71.4188 10.6225C71.3738 10.7125 71.1937 10.8025 71.0587 10.7125ZM69.3938 9.22753L70.2488 9.67753C70.5488 9.79753 70.8338 9.94753 71.1038 10.1275L72.0938 8.37252C71.7938 8.19252 71.4938 8.02753 71.1938 7.87753L70.2938 7.42753L69.3938 9.22753Z" fill="#EF428C" fill-opacity="0.5"/>
<path fill-rule="evenodd" clip-rule="evenodd" d="M74.8381 13.097C74.1631 12.602 73.4881 12.197 72.8131 11.747C72.6781 11.657 72.6781 11.522 72.7231 11.387L74.0731 9.22704C74.1631 9.09204 74.343 9.04703 74.433 9.13703C75.153 9.58703 75.918 10.037 76.593 10.532C76.728 10.622 76.773 10.802 76.683 10.937L75.1981 13.007C75.1081 13.142 74.9281 13.142 74.8381 13.097ZM73.308 11.432L74.118 11.927C74.268 12.017 74.4031 12.107 74.5231 12.197L74.928 12.467L76.053 10.847L75.6481 10.532C75.5281 10.442 75.393 10.352 75.243 10.262L74.3881 9.72203L73.308 11.432Z" fill="#EF428C" fill-opacity="0.5"/>
<path fill-rule="evenodd" clip-rule="evenodd" d="M78.3482 15.7975C78.0332 15.5275 77.7182 15.2575 77.4032 15.0325L76.4581 14.2675C76.3681 14.1775 76.3232 14.0425 76.4132 13.9075L77.9882 11.8825C78.0782 11.7475 78.2132 11.7475 78.3482 11.8375L79.3382 12.6475C79.6982 12.9175 80.0132 13.1875 80.3282 13.4575C80.4632 13.5475 80.4632 13.7275 80.3732 13.8625L78.7081 15.7525C78.6181 15.8875 78.4382 15.8875 78.3482 15.7975ZM76.9982 13.9975C77.4932 14.4025 77.9881 14.8075 78.4831 15.2125L79.7882 13.6825C79.2932 13.2325 78.7532 12.8275 78.2132 12.4225L76.9982 13.9975Z" fill="#EF428C" fill-opacity="0.5"/>
<path d="M33.9338 12.5575C34.3838 13.5925 34.0688 14.7625 33.2588 15.1225C32.8088 15.3025 32.3588 15.3025 31.9088 15.1225C31.5038 14.9425 31.0989 14.5825 30.8289 14.0875C30.5589 13.5475 30.4689 13.0075 30.6039 12.5575C30.7389 12.0625 31.0539 11.6575 31.5039 11.4325C32.4039 11.0275 33.5288 11.5225 33.9338 12.5575Z" fill="#EF428C" fill-opacity="0.5"/>
<path d="M38.6592 10.9379C38.7942 11.4779 38.7492 12.0179 38.5692 12.4679C38.4792 12.6779 38.3442 12.8579 38.1642 13.0079C38.0292 13.1879 37.8493 13.3229 37.6243 13.3679C37.1743 13.5479 36.7242 13.4579 36.3192 13.1879C35.9142 12.9629 35.5542 12.5579 35.3292 12.0179C35.1492 11.5229 35.1492 10.9379 35.3292 10.4879C35.5092 10.0379 35.8692 9.67786 36.3642 9.49786C36.6042 9.43786 36.8442 9.42287 37.0842 9.45287C37.3242 9.48287 37.5492 9.57286 37.7592 9.72286C38.1642 9.94786 38.4792 10.3979 38.6592 10.9379Z" fill="#EF428C" fill-opacity="0.5"/>
<path d="M43.5199 9.90262C43.6549 10.9826 43.0699 12.0626 42.1699 12.1976C41.7199 12.2876 41.2699 12.1526 40.9099 11.8826C40.5049 11.5676 40.235 11.1176 40.1 10.5776C39.965 10.0376 40.0099 9.49761 40.2799 9.04761C40.5049 8.64261 40.9099 8.28263 41.4049 8.19263C42.3949 8.01263 43.3399 8.77762 43.5199 9.90262Z" fill="#EF428C" fill-opacity="0.5"/>
</svg>
