<svg width="286" height="285" viewBox="0 0 286 285" fill="none" xmlns="http://www.w3.org/2000/svg">
<path d="M83.7343 247.685C84.6041 248.12 85.4739 248.642 86.3437 249.164L89.0402 250.556L90.3449 251.164C90.8087 251.396 91.2727 251.628 91.7366 251.86L94.4329 253.078C94.6068 253.136 94.7809 253.136 94.9548 253.078C95.9986 252.643 96.8684 252.121 97.8252 251.686C98.811 251.164 99.7676 250.643 100.695 250.121C101.623 249.599 102.551 249.077 103.479 248.555C104.349 248.033 105.218 247.511 106.175 246.902C118.874 251.512 132.356 253.6 145.925 253.339C152.709 253.252 159.407 252.469 166.017 251.164C172.628 249.773 179.151 247.859 185.414 245.25C186.284 245.772 187.153 246.294 188.023 246.728C188.893 247.192 189.792 247.656 190.72 248.12C192.459 249.077 194.373 249.947 196.199 250.817C196.373 250.875 196.547 250.845 196.721 250.73C216.814 240.988 233.949 225.418 245.778 206.544C246.126 206.022 246.561 205.413 246.909 204.804L247.952 202.978L248.996 201.151C249.344 200.542 249.692 200.02 249.953 199.324L251.866 195.671C252.04 195.323 252.214 195.004 252.388 194.715L252.823 193.758L253.693 191.844C254.911 189.322 255.78 186.712 256.824 184.103C257.288 182.827 257.752 181.523 258.216 180.189C258.448 179.493 258.651 178.826 258.825 178.188L259.434 176.188C261.086 170.882 262.13 165.315 263 159.836L263.522 155.748C263.58 155.4 263.609 155.052 263.609 154.704L263.696 153.66L263.87 151.572C264.131 148.789 264.131 146.006 264.218 143.222C264.218 142.788 263.87 142.527 263.435 142.527C263 142.527 262.652 142.788 262.652 143.222C262.565 145.919 262.565 148.702 262.304 151.399L262.13 153.486C262.072 154.182 261.985 154.849 261.869 155.487L261.347 159.575C260.565 164.967 259.521 170.447 257.955 175.666L257.346 177.666C257.172 178.275 256.911 178.971 256.737 179.58L255.346 183.494L253.867 187.321C253.606 187.93 253.432 188.626 253.084 189.235L252.214 191.061L251.432 192.975C251.142 193.613 250.852 194.222 250.562 194.801L248.648 198.455C248.3 199.15 247.952 199.672 247.691 200.281L246.648 202.108L245.604 203.847C245.256 204.456 244.908 205.065 244.473 205.587L242.299 209.066L239.863 212.458C239.515 212.98 239.08 213.589 238.646 214.111L237.428 215.677L236.123 217.329L235.514 218.112L234.818 218.895L232.122 222.026C231.687 222.548 231.252 223.07 230.73 223.505L229.339 224.984L227.86 226.549C227.396 227.013 226.903 227.477 226.381 227.941C225.424 228.898 224.468 229.854 223.424 230.724C221.337 232.551 219.336 234.377 217.162 236.03C214.987 237.77 212.726 239.335 210.464 240.901C209.333 241.684 208.203 242.379 207.072 243.162L205.332 244.293L203.506 245.337C202.288 245.946 201.157 246.728 199.939 247.337L196.286 249.164C194.46 248.468 192.546 247.511 190.807 246.555C189.879 246.149 188.98 245.714 188.11 245.25L186.805 244.554L185.501 243.771C185.327 243.655 185.182 243.626 185.066 243.684C178.803 246.207 172.367 248.207 165.843 249.599C159.32 250.903 152.622 251.599 145.925 251.773C132.443 252.034 119.048 249.86 106.436 245.337C106.262 245.279 106.088 245.308 105.914 245.424C104.175 246.468 102.377 247.511 100.521 248.555C99.6517 249.077 98.6949 249.599 97.7381 250.121C96.8104 250.585 95.8535 251.048 94.8678 251.512L92.2584 250.295C91.3016 249.947 90.5188 249.425 89.649 248.99L87.0396 247.685C86.1698 247.25 85.387 246.728 84.5172 246.294C84.2563 246.12 83.8213 246.294 83.5604 246.641C83.3864 246.989 83.4734 247.511 83.7343 247.685Z" fill="#EF428C" fill-opacity="0.5"/>
<path d="M226.903 234.725C231.947 230.115 236.644 225.07 240.906 219.677C245.255 214.284 249.082 208.631 252.388 202.542C255.693 196.541 258.563 190.278 260.825 183.755L261.694 181.319L262.042 180.101C262.216 179.695 262.361 179.29 262.477 178.884L263.869 173.926C264.304 172.273 264.652 170.534 265 168.881L265.348 167.663C265.406 167.199 265.464 166.765 265.522 166.359L266.043 163.836L257.345 162.358L256.911 164.706C256.853 165.112 256.766 165.489 256.65 165.837L256.389 167.054C256.041 168.62 255.693 170.186 255.345 171.664L254.04 176.274C253.924 176.68 253.779 177.057 253.605 177.405L253.257 178.536L252.475 180.797C250.387 186.886 247.778 192.714 244.646 198.28C241.602 203.934 238.036 209.153 234.035 214.198C230.034 219.155 225.685 223.852 220.988 228.201L226.903 234.725Z" fill="#EF428C" fill-opacity="0.5"/>
<path d="M98.0866 273.083C107.741 276.388 117.657 278.737 127.747 279.867C137.836 280.998 148.013 281.085 158.19 280.041C178.369 277.954 198.113 271.256 215.509 260.732C224.12 255.426 232.21 249.164 239.516 242.118C246.822 235.073 253.433 227.332 258.999 218.808C264.653 210.284 269.263 201.238 272.916 191.757C273.148 191.119 273.38 190.51 273.612 189.93L274.221 188.191L275.439 184.538L275.786 183.668L276.047 182.711L276.569 180.884L277.613 177.231C277.903 175.956 278.193 174.709 278.483 173.491L278.831 171.665C279.005 171.056 279.179 170.447 279.266 169.751L279.962 166.011C280.136 164.793 280.396 163.488 280.57 162.271C279.295 160.357 278.048 158.502 276.83 156.704C275.526 154.877 274.134 153.051 272.829 151.398L272.481 155.225C272.394 156.53 272.22 157.835 272.046 159.052L271.786 160.966C271.699 161.662 271.612 162.271 271.525 162.88L270.829 166.707L270.481 168.62L270.046 170.534L269.176 174.274C269.089 174.883 268.828 175.492 268.654 176.187L268.132 178.014L267.61 179.841C267.437 180.478 267.262 181.116 267.089 181.754C263.87 191.583 259.608 200.977 254.303 209.849C248.823 218.634 242.473 226.81 235.167 234.116C227.861 241.335 219.685 247.772 210.9 253.165C202.028 258.47 192.634 262.819 182.805 265.951C182.196 266.125 181.5 266.299 180.892 266.473L179.065 266.994L177.151 267.603C176.543 267.777 175.934 267.951 175.325 268.038L171.585 268.908L169.671 269.343L167.758 269.691L163.931 270.387C163.322 270.474 162.626 270.561 162.017 270.648L160.103 270.909L158.19 271.169C157.581 271.256 156.885 271.343 156.276 271.343L152.449 271.604L150.449 271.778C149.811 271.836 149.173 271.865 148.535 271.865L144.708 271.952H143.751H142.794L140.794 271.865L136.967 271.778L133.14 271.517C131.835 271.43 130.53 271.343 129.225 271.169C126.703 270.822 124.094 270.561 121.571 270.039L117.744 269.343C116.526 269.111 115.28 268.821 114.004 268.473C111.482 267.951 109.046 267.255 106.524 266.56C105.306 266.212 104.088 265.777 102.87 265.342L99.2174 264.124L95.5643 262.732C94.3465 262.211 93.1287 261.776 91.998 261.254L92.6939 262.732C92.9258 263.254 93.1578 263.747 93.3898 264.211C93.8536 265.197 94.3465 266.183 94.8684 267.168C95.3903 268.154 95.9122 269.14 96.4341 270.126C96.9559 271.169 97.5647 272.126 98.0866 273.083Z" fill="#EF428C" fill-opacity="0.5"/>
<path d="M108.261 251.425C114.263 253.338 120.438 254.817 126.701 255.774C132.964 256.73 139.313 257.078 145.663 256.991L148.098 256.904C148.881 256.904 149.664 256.904 150.447 256.817L155.23 256.47C156.796 256.296 158.362 256.035 159.927 255.861L161.058 255.687L162.276 255.513L164.624 255.078C170.8 253.947 176.975 252.295 182.89 250.12L179.933 241.857C174.366 243.857 168.712 245.336 162.972 246.38L160.797 246.815L159.753 246.989L158.71 247.163L154.274 247.685L149.925 248.033C149.229 248.12 148.446 248.119 147.75 248.119H145.576C139.661 248.206 133.833 247.946 128.006 247.076C122.265 246.119 116.524 244.814 110.958 242.988L108.261 251.425Z" fill="#EF428C" fill-opacity="0.5"/>
<g opacity="0.2">
<path d="M216.119 234.376L217.772 233.159C218.294 232.724 218.816 232.202 219.337 231.767L214.032 225.592C213.51 226.026 213.075 226.461 212.553 226.809L211.074 227.94L216.119 234.376Z" fill="#EF428C" fill-opacity="0.5"/>
</g>
<g opacity="0.5">
<path d="M210.376 238.639L213.682 236.29L208.811 229.767L205.68 231.941L210.376 238.639Z" fill="#EF428C" fill-opacity="0.5"/>
</g>
<g opacity="0.7">
<path d="M204.373 242.641L207.765 240.379L203.329 233.595L200.111 235.595L204.373 242.641Z" fill="#EF428C" fill-opacity="0.5"/>
</g>
<path d="M198.113 246.12C198.722 245.772 199.331 245.511 199.853 245.163L201.679 244.119L197.591 237.074L195.939 238.031C195.417 238.378 194.808 238.639 194.286 238.9L198.113 246.12Z" fill="#EF428C" fill-opacity="0.5"/>
<path d="M82.603 38.063C80.8634 39.0198 79.2107 40.1505 77.4711 41.1943L76.2535 41.9771C75.8186 42.238 75.3837 42.586 74.9488 42.8469L72.5133 44.5865C72.3973 44.7025 72.3103 44.8765 72.2523 45.1084L72.1655 46.674L72.0784 48.3266C72.0784 49.3704 72.0493 50.4431 71.9913 51.5449C71.9913 53.6324 71.9914 55.7199 72.0784 57.8074C61.7278 66.5924 53.0299 77.204 46.5064 89.0332C39.9829 100.862 35.7208 113.909 33.8072 127.217C32.1256 128.261 30.4151 129.334 28.6755 130.436C27.0229 131.479 25.3701 132.697 23.7175 133.915C23.5435 134.031 23.4567 134.176 23.4567 134.35C23.3987 135.046 23.3406 135.741 23.2826 136.437L23.1957 138.525C23.1957 139.916 23.1667 141.308 23.1087 142.7L23.2826 146.875C23.2826 147.571 23.2826 148.266 23.2826 148.962L23.4567 151.05C23.5437 152.442 23.6306 153.833 23.8046 155.225L24.3265 159.4C24.5005 160.792 24.7613 162.096 25.0222 163.488L25.3702 165.576C25.4572 166.271 25.6311 166.88 25.7181 167.576L26.6749 171.664L26.9359 172.708L27.1967 173.665L27.8057 175.665C28.5016 178.362 29.4583 180.971 30.3281 183.667C30.8499 184.972 31.3719 186.277 31.8937 187.581L32.5896 189.495L33.4594 191.408C34.0683 192.626 34.5902 193.931 35.199 195.236L37.1125 198.889L37.6343 199.846C37.8082 200.135 37.9823 200.425 38.1562 200.715L39.2 202.542C39.8958 203.76 40.5048 204.977 41.2876 206.195L43.5489 209.674C44.3318 210.805 45.2016 211.936 45.9844 213.067C46.3903 213.646 46.7962 214.226 47.2021 214.806L48.5068 216.459L49.8115 218.111C50.2464 218.633 50.5943 219.155 51.1162 219.677L53.8126 222.895C54.0446 223.127 54.2766 223.388 54.5085 223.678L55.2044 224.374L56.683 225.94L58.1616 227.418C58.5965 227.94 59.1183 228.375 59.6402 228.897L62.6845 231.767L65.8159 234.464C66.3378 234.985 66.8597 235.42 67.3816 235.855L69.0341 237.16L70.6866 238.465L71.4696 239.074L72.3394 239.682L75.7315 242.118C76.3404 242.553 76.9492 242.901 77.4711 243.249L79.2978 244.379L81.0374 245.51C81.6172 245.858 82.226 246.206 82.8638 246.554C83.1247 246.728 83.5597 246.554 83.8207 246.206C83.9946 245.858 83.9947 245.336 83.6468 245.162C83.0669 244.814 82.4579 244.466 81.8201 244.118L80.0805 243.075L78.428 241.944C77.8191 241.596 77.2102 241.248 76.6884 240.813L73.296 238.378L72.5133 237.856L71.6435 237.16L70.0778 235.942C67.9033 234.29 65.8158 232.376 63.7282 230.636L60.771 227.766C60.2491 227.331 59.7273 226.809 59.2924 226.374L57.9006 224.896L56.422 223.33C55.9581 222.866 55.4941 222.373 55.0302 221.851L52.334 218.72C51.8991 218.198 51.4641 217.676 51.1162 217.155L49.8115 215.502L48.5068 213.936C48.0719 213.327 47.724 212.806 47.2891 212.197C46.5353 211.095 45.7525 209.993 44.9407 208.891L42.7662 205.412C41.9834 204.282 41.2876 203.064 40.5917 201.846L39.6349 200.106L39.1131 199.237L38.5911 198.28L36.7645 194.627C36.4166 194.018 36.1556 193.409 35.8947 192.8L35.0249 190.887L34.1551 188.973C33.8941 188.364 33.6333 187.755 33.3723 187.147L31.8937 183.232L30.589 179.405C30.3281 178.709 30.1542 178.101 29.9802 177.405L29.3712 175.404L28.8494 173.491C28.5885 172.795 28.4145 172.186 28.3275 171.49L27.3708 167.489C26.2401 162.096 25.3702 156.704 25.1093 151.137L24.9353 149.136C24.8484 148.44 24.8483 147.745 24.8483 147.049L24.7614 142.961C24.7614 141.569 24.7613 140.177 24.8483 138.873V136.785C24.8483 136.089 24.9352 135.393 25.0222 134.698C26.7038 133.538 28.3566 132.378 29.9802 131.218C31.6328 130.175 33.3723 129.131 35.1119 128.087C35.2859 128.029 35.3729 127.913 35.3729 127.739C37.1995 114.431 41.4614 101.558 47.8979 89.816C54.3345 78.0737 63.0324 67.5492 73.296 58.9382C73.412 58.8222 73.4702 58.6483 73.4702 58.4163C73.4702 57.3726 73.3831 56.3288 73.3831 55.285C73.3831 54.2412 73.4122 53.1975 73.4702 52.1537C73.4702 51.11 73.4702 50.0372 73.4702 48.9355C73.5571 47.8917 73.6439 46.848 73.7309 45.7172C75.2966 44.5865 76.8622 43.4558 78.5148 42.499C80.0805 41.4552 81.7332 40.3245 83.3858 39.4547C83.7337 39.1938 83.8206 38.7589 83.5597 38.4109C83.3857 37.976 82.864 37.889 82.603 38.063Z" fill="#EF428C" fill-opacity="0.5"/>
<path d="M22.2404 168.446L23.3712 173.491L24.7629 178.449C24.9369 178.884 25.0238 179.232 25.1108 179.667L25.5457 180.884L26.4155 183.32L26.7633 184.538C26.9373 184.943 27.0822 185.349 27.1982 185.755L28.1551 188.191C30.6775 194.54 33.7218 200.803 37.288 206.63C40.8541 212.545 44.9421 218.112 49.3781 223.331C51.6395 225.94 53.9881 228.462 56.4235 230.898L60.1637 234.464L64.0778 237.769L69.7315 230.985L66.0784 227.853L62.5992 224.548C60.4247 222.287 58.1632 220.025 56.0757 217.59C51.9876 212.719 48.1604 207.5 44.8552 202.107C41.5499 196.628 38.7666 190.887 36.4182 184.885L35.5484 182.711C35.3744 182.305 35.2294 181.928 35.1135 181.58L34.7656 180.449L33.9827 178.188L33.5478 177.057C33.4608 176.622 33.3739 176.274 33.1999 175.926L31.8952 171.317L30.8515 166.62L22.2404 168.446Z" fill="#EF428C" fill-opacity="0.5"/>
<path d="M53.3774 37.8035C45.7231 44.4139 38.7647 51.8942 32.6761 60.0703C26.6745 68.1594 21.4558 77.0314 17.3678 86.3382C15.1933 90.9482 13.4536 95.732 11.888 100.516L11.627 101.473L11.366 102.343L10.8443 104.169L9.80035 107.822L8.93055 111.562L8.49565 113.389C8.32169 114.085 8.14773 114.694 8.06075 115.303C6.1472 125.305 5.2774 135.482 5.45136 145.572C5.88626 165.838 10.7573 186.104 19.9772 204.283C24.5001 213.416 30.0667 221.94 36.4163 229.855C36.8222 230.319 37.228 230.812 37.6339 231.334L38.9386 232.725C39.7504 233.711 40.5623 234.668 41.3741 235.596L44.0705 238.379C44.9403 239.249 45.8101 240.206 46.6799 241.075L49.4633 243.685C49.9272 244.149 50.3911 244.584 50.855 244.99L52.2466 246.294L55.204 248.73C55.6679 249.136 56.1608 249.541 56.6826 249.947L58.1612 251.165C62.5972 250.991 67.1201 250.469 71.3821 249.947C62.8581 244.12 55.0299 237.335 48.0715 229.768C41.1131 222.114 35.1115 213.677 30.0667 204.631C25.1088 195.585 21.2818 185.93 18.5854 175.927C18.2375 174.71 17.9765 173.492 17.7156 172.187C17.4257 170.912 17.1357 169.665 16.8458 168.447L16.1499 164.62C15.889 163.315 15.7151 162.098 15.5411 160.793C15.1932 158.271 14.8453 155.661 14.6713 153.139L14.4103 149.225L14.3235 145.398C13.7146 124.783 18.3244 103.995 27.4573 85.4684C28.675 83.2069 29.7187 80.8585 31.1104 78.684L33.0241 75.2918L35.1116 72.0736L36.1553 70.4209C36.5032 69.899 36.8512 69.3772 37.2861 68.8553L39.4606 65.724C39.8665 65.2021 40.2723 64.6802 40.6782 64.1584L41.8961 62.5927L43.0268 61.1141C43.4327 60.5922 43.8386 60.0993 44.2445 59.6354L46.7668 56.6781C47.2017 56.2432 47.6366 55.7213 48.0715 55.1994L49.3762 53.8078L52.0727 51.0244L54.856 48.328C56.6825 46.5884 58.683 44.9358 60.6836 43.1962L61.3795 42.5874L62.1624 41.9785L63.641 40.7608L65.2067 39.63C65.7286 39.1951 66.1634 38.7603 66.6853 38.4123C65.6416 38.3254 64.5978 38.2384 63.4671 38.1514C62.3654 38.0934 61.2636 38.0354 60.1618 37.9774C59.0311 37.8905 57.9002 37.8035 56.7695 37.8035C55.6677 37.8035 54.5371 37.8035 53.3774 37.8035Z" fill="#EF428C" fill-opacity="0.5"/>
<path d="M67.1221 57.3739C62.4252 61.6359 58.0762 66.2459 54.0752 71.2037C50.1611 76.1616 46.508 81.4673 43.4637 87.034C37.3751 98.0805 33.0259 110.171 30.9384 122.696L39.6364 124.174C41.55 112.693 45.6381 101.56 51.2048 91.296C54.0751 86.1642 57.3803 81.2934 60.9465 76.7704C64.5996 72.1605 68.6878 67.8984 73.0368 63.9843L67.1221 57.3739Z" fill="#EF428C" fill-opacity="0.5"/>
<g opacity="0.2">
<path d="M27.8919 159.313L27.9789 160.357L28.1529 161.4L28.5007 163.401L36.5899 161.922L36.242 160.096L36.0681 159.139L35.9811 158.182L27.8919 159.313Z" fill="#EF428C" fill-opacity="0.5"/>
</g>
<g opacity="0.5">
<path d="M27.1104 152.181L27.1972 154.268C27.2842 154.877 27.3712 155.573 27.4582 156.269L35.5474 155.312C35.5474 154.703 35.3735 154.094 35.3735 153.399L35.1996 151.572L27.1104 152.181Z" fill="#EF428C" fill-opacity="0.5"/>
</g>
<g opacity="0.7">
<path d="M26.6763 145.049L26.7631 147.049C26.7631 147.745 26.7632 148.441 26.8502 149.137L35.0262 148.615C34.9392 148.006 34.9394 147.397 34.9394 146.788L34.8523 144.875L26.6763 145.049Z" fill="#EF428C" fill-opacity="0.5"/>
</g>
<path d="M26.7631 137.83L26.6763 141.918H34.8523L34.9394 138.178L26.7631 137.83Z" fill="#EF428C" fill-opacity="0.5"/>
<path d="M261.543 141.855C261.459 139.925 261.459 137.995 261.375 136.065C261.208 134.135 261.04 132.205 260.872 130.275C260.872 130.107 260.788 129.968 260.62 129.856C258.83 128.681 257.068 127.562 255.334 126.499L254.075 125.744L252.733 124.989C251.838 124.486 250.943 124.01 250.048 123.563C247.782 110.724 243.083 98.306 236.371 87.1462C229.574 75.9863 220.764 66.0851 210.443 58.1137C210.443 57.1628 210.443 56.1838 210.443 55.1769C210.443 54.2539 210.359 53.2471 210.275 52.3241C210.163 50.3662 210.023 48.4083 209.855 46.4505C209.855 46.2267 209.772 46.0589 209.604 45.947C207.338 44.5205 205.072 43.0102 202.723 41.7515L200.961 40.7446C200.681 40.5768 200.402 40.409 200.122 40.2412L199.199 39.7378L195.591 37.8918C195.003 37.64 194.416 37.3883 193.829 37.0527L191.983 36.2136L190.137 35.3745C189.521 35.1508 188.906 34.927 188.291 34.7032C187.032 34.1998 185.774 33.6963 184.515 33.1929L180.655 31.9342C179.397 31.4308 178.138 31.0952 176.795 30.7595L174.865 30.1722L173.943 29.9204C173.607 29.8086 173.271 29.7247 172.935 29.6687L168.992 28.7457C168.656 28.6898 168.321 28.6338 167.985 28.5779L167.062 28.4101L165.048 27.9906C162.447 27.4871 159.762 27.2353 157.077 26.8997C155.734 26.7319 154.392 26.648 153.049 26.5641L151.035 26.3963C150.364 26.3124 149.693 26.3963 149.021 26.3124C127.541 25.4733 105.809 30.8434 87.1808 41.4998C86.8452 41.6676 86.7613 42.0872 87.013 42.5067C87.1809 42.8424 87.6844 43.0102 87.9361 42.8424C106.312 32.3538 127.625 26.9836 148.854 27.9066C149.525 27.9066 150.168 27.9066 150.784 27.9066L152.797 28.0744C154.14 28.1584 155.483 28.2423 156.741 28.4101L160.685 28.9135C161.356 28.9974 162.027 28.9974 162.699 29.1652L164.629 29.5009C169.831 30.34 174.949 31.7664 179.984 33.2768L183.76 34.6193C185.018 35.0389 186.277 35.5423 187.452 36.0458L189.298 36.717L191.144 37.5561C192.319 38.1435 193.577 38.6469 194.752 39.2343C197.101 40.409 199.451 41.5838 201.716 42.9263L203.478 43.9332C203.758 44.101 204.038 44.2688 204.317 44.4366L205.157 44.9401L208.513 47.1217C208.765 49.0516 208.848 51.0654 208.932 52.9953C208.988 53.9463 209.044 54.8972 209.1 55.8482C209.1 56.7712 209.1 57.7781 209.1 58.7011C209.1 58.9249 209.184 59.0927 209.352 59.2045C219.505 67.092 228.315 76.9093 235.028 87.9853C241.741 99.0612 246.356 111.312 248.537 124.066C248.593 124.234 248.705 124.346 248.873 124.402C249.768 124.849 250.663 125.325 251.558 125.828C252.397 126.332 253.236 126.835 254.159 127.422C255.893 128.485 257.627 129.576 259.361 130.695L259.781 136.317C259.865 138.163 259.949 140.009 259.949 141.855C259.949 142.19 260.368 142.526 260.788 142.526C261.208 142.526 261.543 142.19 261.543 141.855Z" fill="#EF428C" fill-opacity="0.5"/>
<path d="M181.935 24.3215C175.411 22.2339 168.714 20.6683 161.929 19.6245L156.797 19.0157C155.058 18.8417 153.318 18.7548 151.666 18.5808C149.926 18.4068 148.187 18.4068 146.447 18.4068L143.925 18.3198C143.055 18.3198 142.185 18.3199 141.315 18.4068H138.793L137.488 18.4938C137.024 18.4938 136.589 18.5228 136.183 18.5808L131.052 18.9287L125.92 19.6245C125.514 19.6825 125.079 19.7405 124.615 19.7985L123.397 19.9725L120.875 20.4074C114.09 21.7121 107.393 23.5386 100.956 25.8871L104.001 34.1502C110.002 31.9757 116.178 30.3231 122.44 29.1053L124.789 28.7574L126.007 28.4965C126.413 28.4385 126.79 28.3805 127.137 28.3225L131.921 27.7137L136.705 27.3658C137.111 27.3658 137.517 27.3368 137.923 27.2788H139.141L141.489 27.1918C142.272 27.1918 143.055 27.1918 143.925 27.1918H146.273C147.926 27.2788 149.491 27.2787 151.057 27.4527C152.623 27.5397 154.275 27.6267 155.841 27.8007L160.625 28.4095C166.887 29.3663 173.15 30.845 179.238 32.7585L181.935 24.3215Z" fill="#EF428C" fill-opacity="0.5"/>
<path d="M279.524 116.693C277.611 106.691 274.654 96.9488 270.653 87.642C266.564 78.2482 261.52 69.4632 255.518 61.2001C255.17 60.6783 254.793 60.1563 254.387 59.6345L253.257 58.1558L250.908 55.1985C250.502 54.6766 250.096 54.1837 249.69 53.7198L248.386 52.2412C247.574 51.3134 246.762 50.3566 245.95 49.3708L243.254 46.6745C242.384 45.7177 241.514 44.7609 240.644 43.8911L237.861 41.2817C237.426 40.8468 236.991 40.4119 236.469 39.977L235.078 38.7593C227.423 32.0618 219.073 26.1472 210.202 21.2764C192.371 11.4476 172.278 5.70698 152.012 4.48926C141.922 3.8804 131.746 4.31531 121.656 5.96793C111.653 7.62054 101.825 10.3169 92.3438 14.144C91.8219 15.1298 91.3 16.1156 90.7781 17.1013C90.3142 18.1451 89.8502 19.1599 89.3863 20.1456C88.9224 21.1894 88.4875 22.2042 88.0816 23.1899C87.5598 24.2337 87.2118 25.1905 86.7769 26.2342C105.304 17.1883 126.092 12.5784 146.706 13.1002C147.982 13.1582 149.258 13.2162 150.533 13.2742L154.36 13.5351C156.97 13.7091 159.492 14.057 162.102 14.4049C163.406 14.4919 164.624 14.7529 165.929 15.0138L169.756 15.7096L173.496 16.5794C174.714 16.8404 176.018 17.1013 177.236 17.4492C179.758 18.232 182.194 18.8409 184.629 19.7107C185.847 20.1166 187.065 20.5515 188.283 21.0154L191.936 22.4071L193.762 23.1029C194.284 23.3639 194.893 23.6248 195.502 23.8858L198.981 25.4514C199.329 25.6253 199.648 25.7703 199.938 25.8863L200.721 26.3212L202.46 27.191L204.2 28.0608C204.809 28.4087 205.331 28.6697 205.939 29.0176C214.898 33.9754 223.422 40.064 230.99 46.9354C238.557 53.9808 245.341 61.809 251.169 70.333C256.91 78.944 261.607 88.1639 265.26 97.9056C268.739 107.56 271.087 117.65 272.305 127.914C273.581 126.174 274.828 124.347 276.045 122.434C277.263 120.607 278.394 118.694 279.524 116.693Z" fill="#EF428C" fill-opacity="0.5"/>
<path d="M255.694 118.694L254.65 114.084C254.215 112.605 253.781 111.039 253.346 109.561L252.998 108.43L252.65 107.299L251.867 105.038C251.606 104.255 251.432 103.472 251.084 102.776L250.215 100.515C247.866 94.687 245.17 88.9464 241.864 83.5536C238.559 78.0739 234.819 72.9421 230.731 68.1582C226.556 63.2874 222.12 58.7644 217.249 54.7633L211.508 61.5477C216.031 65.2879 220.206 69.4629 224.034 73.8989C227.774 78.3348 231.253 83.1187 234.297 88.0766C237.341 93.1214 239.864 98.3402 242.038 103.82L242.821 105.82C243.082 106.516 243.256 107.212 243.517 107.908L244.213 109.996L244.561 111.039L244.909 112.083C245.257 113.475 245.692 114.866 246.127 116.258L247.083 120.52L255.694 118.694Z" fill="#EF428C" fill-opacity="0.5"/>
<g opacity="0.2">
<path d="M186.977 33.8024L185.151 33.0196C184.455 32.8456 183.846 32.5847 183.237 32.3237L180.454 40.0649C181.063 40.2389 181.672 40.4998 182.194 40.6738L184.02 41.3696L186.977 33.8024Z" fill="#EF428C" fill-opacity="0.5"/>
</g>
<g opacity="0.5">
<path d="M193.589 36.6719L189.935 35.0193L186.63 42.4996L190.109 44.0652L193.589 36.6719Z" fill="#EF428C" fill-opacity="0.5"/>
</g>
<path d="M206.203 43.6304L204.463 42.4997C203.883 42.1518 203.303 41.8039 202.723 41.4559L198.548 48.5013C199.128 48.8492 199.679 49.1682 200.201 49.4581L201.854 50.5018L206.203 43.6304Z" fill="#EF428C" fill-opacity="0.5"/>
</svg>
