<svg width="461" height="215" viewBox="0 0 461 215" fill="none" xmlns="http://www.w3.org/2000/svg">
<path opacity="0.5" d="M350.968 49.1996H128.122V6.98993H350.968V49.1996Z" fill="#F8F8F8" fill-opacity="0.6"/>
<path d="M391.867 59.4239L371.811 72.5981H170.528V40.8098H391.867V59.4239Z" fill="#F8F8F8" fill-opacity="0.6"/>
<path d="M445.415 49.397H391.867V47.4963H444.629L454.985 37.1405L442.335 20.7547H350.968V18.854H443.252L457.541 37.2716L445.415 49.397Z" fill="#F8F8F8" fill-opacity="0.6"/>
<path d="M409.694 19.8367L399.273 9.54645H350.968V7.64569H400.059L411.005 18.4603L409.694 19.8367Z" fill="#F8F8F8" fill-opacity="0.6"/>
<path d="M162.663 58.5068H119.536V8.62857H121.437V56.6061H162.663V58.5068Z" fill="#F8F8F8" fill-opacity="0.6"/>
<path d="M39.8996 172.88L38.5887 171.569L103.673 106.484V73.0575L119.862 56.8684L121.173 58.1792L105.574 73.844V107.271L105.312 107.533L39.8996 172.88Z" fill="#F8F8F8" fill-opacity="0.6"/>
<path d="M31.4458 208.01H3.45898V180.023H5.35967V206.109H31.4458V208.01Z" fill="#F8F8F8" fill-opacity="0.6"/>
<path d="M40.1631 185.005H38.2622V173.142H26.4645V171.307H40.1631V185.005Z" fill="#F8F8F8" fill-opacity="0.6"/>
<path opacity="0.5" d="M34.0666 200.801H10.4711V177.206H34.0666V200.801Z" fill="#F8F8F8" fill-opacity="0.6"/>
<path d="M26.3334 193.066H18.2062V185.004H26.3334V193.066Z" fill="#F8F8F8" fill-opacity="0.6"/>
<path d="M372.074 82.1685H161.746V66.4381H163.647V80.2677H372.074V82.1685Z" fill="#F8F8F8" fill-opacity="0.6"/>
<path d="M152.139 30.289L152.13 31.816H143.596V17.9669H152.13V19.4939H145.471V24.0941H150.864V25.5631H145.471V30.289H152.139ZM159.897 23.6399C159.82 23.7816 159.7 23.8525 159.539 23.8525C159.443 23.8525 159.333 23.8171 159.211 23.7462C159.088 23.6753 158.937 23.598 158.756 23.5143C158.582 23.4241 158.373 23.3435 158.128 23.2727C157.883 23.1953 157.593 23.1567 157.258 23.1567C156.969 23.1567 156.708 23.1953 156.476 23.2727C156.244 23.3435 156.044 23.4434 155.876 23.5723C155.715 23.7011 155.59 23.8525 155.5 24.0265C155.416 24.194 155.374 24.3776 155.374 24.5774C155.374 24.8286 155.445 25.038 155.586 25.2055C155.735 25.3731 155.928 25.518 156.166 25.6404C156.405 25.7629 156.675 25.8724 156.978 25.969C157.281 26.0592 157.59 26.1591 157.906 26.2686C158.228 26.3717 158.541 26.4877 158.843 26.6165C159.146 26.7454 159.417 26.9065 159.655 27.0998C159.894 27.2931 160.084 27.5314 160.225 27.8149C160.374 28.092 160.448 28.427 160.448 28.82C160.448 29.271 160.367 29.6898 160.206 30.0764C160.045 30.4565 159.807 30.7884 159.491 31.0718C159.175 31.3489 158.789 31.568 158.331 31.729C157.874 31.8901 157.345 31.9706 156.746 31.9706C156.063 31.9706 155.445 31.8611 154.891 31.642C154.337 31.4165 153.866 31.1298 153.48 30.7819L153.886 30.1247C153.937 30.041 153.998 29.9765 154.069 29.9314C154.14 29.8863 154.23 29.8638 154.34 29.8638C154.456 29.8638 154.578 29.9089 154.707 29.9991C154.836 30.0893 154.991 30.1892 155.171 30.2987C155.358 30.4082 155.583 30.5081 155.847 30.5983C156.112 30.6885 156.44 30.7336 156.833 30.7336C157.168 30.7336 157.461 30.6917 157.713 30.608C157.964 30.5178 158.173 30.3986 158.341 30.2504C158.508 30.1022 158.631 29.9314 158.708 29.7382C158.792 29.5449 158.834 29.3387 158.834 29.1196C158.834 28.849 158.76 28.6267 158.611 28.4528C158.47 28.2724 158.28 28.121 158.041 27.9986C157.803 27.8697 157.529 27.7602 157.22 27.67C156.917 27.5733 156.604 27.4735 156.282 27.3704C155.967 27.2673 155.654 27.1513 155.345 27.0225C155.042 26.8872 154.771 26.7196 154.533 26.5199C154.295 26.3202 154.101 26.0753 153.953 25.7854C153.811 25.489 153.741 25.1314 153.741 24.7127C153.741 24.339 153.818 23.9814 153.973 23.6399C154.127 23.292 154.353 22.9892 154.649 22.7314C154.945 22.4673 155.309 22.2579 155.741 22.1033C156.173 21.9486 156.666 21.8713 157.22 21.8713C157.864 21.8713 158.441 21.9744 158.95 22.1806C159.465 22.3803 159.91 22.6574 160.283 23.0117L159.897 23.6399ZM171.641 31.816H169.921V23.4659H164.876V29.3419C164.876 29.7543 164.976 30.0603 165.176 30.26C165.376 30.4598 165.633 30.5596 165.949 30.5596C166.129 30.5596 166.284 30.5371 166.413 30.492C166.548 30.4404 166.664 30.3857 166.761 30.3277C166.857 30.2697 166.938 30.2182 167.002 30.1731C167.073 30.1215 167.135 30.0957 167.186 30.0957C167.276 30.0957 167.357 30.1505 167.428 30.26L167.93 31.0815C167.634 31.3586 167.276 31.5776 166.857 31.7387C166.439 31.8933 166.007 31.9706 165.562 31.9706C164.789 31.9706 164.193 31.7548 163.775 31.3231C163.362 30.8914 163.156 30.2697 163.156 29.4579V23.4659H161.977C161.874 23.4659 161.787 23.4369 161.716 23.379C161.645 23.3145 161.61 23.2179 161.61 23.089V22.4029L163.214 22.1902L163.61 19.1749C163.63 19.0783 163.671 19.001 163.736 18.943C163.807 18.8786 163.897 18.8463 164.006 18.8463H164.876V22.2192H171.641V31.816ZM172.067 18.885C172.067 19.0525 172.031 19.2104 171.96 19.3586C171.896 19.5003 171.806 19.6259 171.69 19.7355C171.58 19.845 171.451 19.932 171.303 19.9964C171.155 20.0608 170.997 20.0931 170.83 20.0931C170.662 20.0931 170.504 20.0608 170.356 19.9964C170.214 19.932 170.089 19.845 169.979 19.7355C169.87 19.6259 169.783 19.5003 169.718 19.3586C169.654 19.2104 169.622 19.0525 169.622 18.885C169.622 18.7175 169.654 18.5596 169.718 18.4114C169.783 18.2568 169.87 18.1247 169.979 18.0152C170.089 17.8992 170.214 17.809 170.356 17.7446C170.504 17.6802 170.662 17.648 170.83 17.648C170.997 17.648 171.155 17.6802 171.303 17.7446C171.451 17.809 171.58 17.8992 171.69 18.0152C171.806 18.1247 171.896 18.2568 171.96 18.4114C172.031 18.5596 172.067 18.7175 172.067 18.885ZM174.467 31.816V22.0259H175.502C175.746 22.0259 175.898 22.1451 175.956 22.3835L176.081 23.3886C176.442 22.9441 176.848 22.58 177.299 22.2965C177.75 22.0131 178.272 21.8713 178.865 21.8713C179.522 21.8713 180.054 22.0549 180.459 22.4222C180.872 22.7894 181.168 23.2855 181.349 23.9105C181.49 23.5561 181.671 23.2501 181.89 22.9924C182.115 22.7347 182.367 22.522 182.644 22.3545C182.921 22.187 183.214 22.0646 183.523 21.9873C183.839 21.91 184.158 21.8713 184.48 21.8713C184.995 21.8713 185.453 21.9551 185.852 22.1226C186.258 22.2837 186.6 22.522 186.877 22.8378C187.16 23.1535 187.376 23.5433 187.524 24.0072C187.672 24.4646 187.746 24.9897 187.746 25.5825V31.816H186.016V25.5825C186.016 24.8157 185.849 24.2359 185.514 23.8429C185.179 23.4434 184.696 23.2437 184.064 23.2437C183.781 23.2437 183.51 23.2952 183.252 23.3983C183.001 23.4949 182.779 23.6399 182.586 23.8332C182.392 24.0265 182.238 24.2713 182.122 24.5677C182.012 24.8576 181.957 25.1959 181.957 25.5825V31.816H180.227V25.5825C180.227 24.7964 180.07 24.2101 179.754 23.8235C179.438 23.4369 178.978 23.2437 178.372 23.2437C177.947 23.2437 177.554 23.3596 177.193 23.5916C176.832 23.8171 176.5 24.1263 176.197 24.5194V31.816H174.467ZM195.667 27.409C194.874 27.4348 194.198 27.4992 193.637 27.6023C193.083 27.699 192.629 27.8278 192.274 27.9889C191.927 28.15 191.672 28.34 191.511 28.5591C191.356 28.7782 191.279 29.023 191.279 29.2936C191.279 29.5513 191.321 29.7736 191.405 29.9604C191.488 30.1473 191.601 30.3019 191.743 30.4243C191.891 30.5403 192.062 30.6273 192.255 30.6853C192.455 30.7368 192.667 30.7626 192.893 30.7626C193.196 30.7626 193.473 30.7336 193.724 30.6756C193.975 30.6112 194.211 30.521 194.43 30.405C194.655 30.289 194.868 30.1505 195.067 29.9894C195.274 29.8284 195.473 29.6447 195.667 29.4386V27.409ZM190.11 23.408C190.651 22.8861 191.234 22.4963 191.859 22.2386C192.484 21.9808 193.176 21.852 193.937 21.852C194.484 21.852 194.971 21.9422 195.396 22.1226C195.821 22.303 196.179 22.5543 196.469 22.8764C196.759 23.1986 196.978 23.5884 197.126 24.0458C197.274 24.5033 197.348 25.0058 197.348 25.5535V31.816H196.585C196.417 31.816 196.288 31.7902 196.198 31.7387C196.108 31.6807 196.037 31.5712 195.986 31.4101L195.792 30.4823C195.535 30.7207 195.283 30.9333 195.039 31.1202C194.794 31.3006 194.536 31.4552 194.265 31.5841C193.995 31.7065 193.705 31.7999 193.396 31.8643C193.093 31.9352 192.754 31.9706 192.381 31.9706C192.001 31.9706 191.643 31.9191 191.308 31.816C190.973 31.7065 190.68 31.5454 190.429 31.3328C190.184 31.1202 189.987 30.8528 189.839 30.5306C189.697 30.202 189.626 29.8155 189.626 29.3709C189.626 28.9843 189.733 28.6139 189.945 28.2595C190.158 27.8987 190.503 27.5798 190.979 27.3027C191.456 27.0257 192.078 26.8002 192.845 26.6262C193.611 26.4458 194.552 26.3427 195.667 26.3169V25.5535C195.667 24.7932 195.502 24.2198 195.174 23.8332C194.845 23.4402 194.365 23.2437 193.734 23.2437C193.309 23.2437 192.951 23.2984 192.661 23.408C192.378 23.511 192.13 23.6302 191.917 23.7655C191.711 23.8944 191.53 24.0136 191.376 24.1231C191.227 24.2262 191.079 24.2778 190.931 24.2778C190.815 24.2778 190.715 24.2488 190.632 24.1908C190.548 24.1263 190.477 24.049 190.419 23.9588L190.11 23.408ZM202.842 31.9706C202.069 31.9706 201.473 31.7548 201.054 31.3231C200.642 30.8914 200.436 30.2697 200.436 29.4579V23.4659H199.257C199.154 23.4659 199.067 23.4369 198.996 23.379C198.925 23.3145 198.889 23.2179 198.889 23.089V22.4029L200.494 22.1999L200.89 19.1749C200.909 19.0783 200.951 19.001 201.016 18.943C201.087 18.8786 201.177 18.8463 201.286 18.8463H202.156V22.2192H204.988V23.4659H202.156V29.3419C202.156 29.7543 202.256 30.0603 202.456 30.26C202.655 30.4598 202.913 30.5596 203.229 30.5596C203.409 30.5596 203.564 30.5371 203.693 30.492C203.828 30.4404 203.944 30.3857 204.041 30.3277C204.137 30.2697 204.218 30.2182 204.282 30.1731C204.353 30.1215 204.414 30.0957 204.466 30.0957C204.556 30.0957 204.637 30.1505 204.707 30.26L205.21 31.0815C204.914 31.3586 204.556 31.5776 204.137 31.7387C203.718 31.8933 203.287 31.9706 202.842 31.9706ZM213.26 25.8531C213.26 25.4536 213.202 25.0896 213.086 24.761C212.976 24.4259 212.812 24.1392 212.593 23.9008C212.38 23.656 212.119 23.4692 211.81 23.3403C211.501 23.205 211.15 23.1374 210.757 23.1374C209.932 23.1374 209.278 23.379 208.795 23.8622C208.318 24.339 208.022 25.0026 207.906 25.8531H213.26ZM214.652 30.4437C214.439 30.7014 214.184 30.9269 213.888 31.1202C213.592 31.307 213.273 31.4616 212.931 31.5841C212.596 31.7065 212.248 31.7967 211.888 31.8547C211.527 31.9191 211.169 31.9513 210.815 31.9513C210.138 31.9513 209.513 31.8386 208.94 31.6131C208.373 31.3811 207.88 31.0461 207.461 30.608C207.049 30.1634 206.727 29.6157 206.495 28.965C206.263 28.3143 206.147 27.5669 206.147 26.7229C206.147 26.0399 206.25 25.402 206.456 24.8093C206.669 24.2165 206.972 23.7043 207.365 23.2727C207.758 22.8345 208.238 22.4931 208.805 22.2482C209.372 21.9969 210.009 21.8713 210.718 21.8713C211.304 21.8713 211.846 21.9712 212.342 22.1709C212.844 22.3642 213.276 22.6477 213.637 23.0214C214.004 23.3886 214.291 23.8461 214.497 24.3937C214.703 24.9349 214.806 25.5535 214.806 26.2493C214.806 26.5199 214.777 26.7003 214.719 26.7905C214.661 26.8807 214.552 26.9258 214.391 26.9258H207.848C207.867 27.5443 207.951 28.0823 208.099 28.5398C208.254 28.9972 208.466 29.3806 208.737 29.6898C209.008 29.9927 209.33 30.2214 209.703 30.376C210.077 30.5242 210.496 30.5983 210.96 30.5983C211.391 30.5983 211.762 30.55 212.071 30.4533C212.387 30.3502 212.657 30.2407 212.883 30.1247C213.108 30.0088 213.295 29.9025 213.444 29.8058C213.598 29.7027 213.73 29.6512 213.84 29.6512C213.981 29.6512 214.091 29.7059 214.168 29.8155L214.652 30.4437ZM223.298 24.3551C222.976 23.9234 222.628 23.6238 222.254 23.4563C221.88 23.2823 221.462 23.1953 220.998 23.1953C220.089 23.1953 219.39 23.5207 218.9 24.1714C218.411 24.8222 218.166 25.75 218.166 26.9548C218.166 27.5927 218.221 28.1403 218.33 28.5978C218.44 29.0488 218.601 29.4225 218.813 29.7188C219.026 30.0088 219.287 30.2214 219.596 30.3567C219.906 30.492 220.257 30.5596 220.65 30.5596C221.217 30.5596 221.71 30.4308 222.128 30.1731C222.554 29.9153 222.943 29.5513 223.298 29.081V24.3551ZM225.018 17.5803V31.816H223.994C223.749 31.816 223.594 31.6968 223.53 31.4584L223.375 30.2697C222.956 30.7723 222.479 31.1782 221.945 31.4874C221.41 31.7967 220.791 31.9513 220.089 31.9513C219.529 31.9513 219.02 31.845 218.562 31.6324C218.105 31.4133 217.715 31.0944 217.393 30.6756C217.071 30.2568 216.823 29.7349 216.649 29.11C216.475 28.485 216.388 27.7666 216.388 26.9548C216.388 26.2332 216.484 25.5631 216.678 24.9446C216.871 24.3196 217.148 23.7784 217.509 23.321C217.87 22.8635 218.311 22.5059 218.833 22.2482C219.361 21.9841 219.954 21.852 220.611 21.852C221.21 21.852 221.722 21.9551 222.148 22.1612C222.579 22.361 222.963 22.6412 223.298 23.002V17.5803H225.018ZM241.765 31.816H240.045V23.4659H235V29.3419C235 29.7543 235.1 30.0603 235.3 30.26C235.499 30.4598 235.757 30.5596 236.073 30.5596C236.253 30.5596 236.408 30.5371 236.537 30.492C236.672 30.4404 236.788 30.3857 236.885 30.3277C236.981 30.2697 237.062 30.2182 237.126 30.1731C237.197 30.1215 237.258 30.0957 237.31 30.0957C237.4 30.0957 237.481 30.1505 237.551 30.26L238.054 31.0815C237.758 31.3586 237.4 31.5776 236.981 31.7387C236.562 31.8933 236.131 31.9706 235.686 31.9706C234.913 31.9706 234.317 31.7548 233.898 31.3231C233.486 30.8914 233.28 30.2697 233.28 29.4579V23.4659H232.101C231.998 23.4659 231.911 23.4369 231.84 23.379C231.769 23.3145 231.733 23.2179 231.733 23.089V22.4029L233.338 22.1902L233.734 19.1749C233.753 19.0783 233.795 19.001 233.86 18.943C233.93 18.8786 234.021 18.8463 234.13 18.8463H235V22.2192H241.765V31.816ZM242.19 18.885C242.19 19.0525 242.155 19.2104 242.084 19.3586C242.02 19.5003 241.929 19.6259 241.813 19.7355C241.704 19.845 241.575 19.932 241.427 19.9964C241.279 20.0608 241.121 20.0931 240.953 20.0931C240.786 20.0931 240.628 20.0608 240.48 19.9964C240.338 19.932 240.212 19.845 240.103 19.7355C239.993 19.6259 239.906 19.5003 239.842 19.3586C239.777 19.2104 239.745 19.0525 239.745 18.885C239.745 18.7175 239.777 18.5596 239.842 18.4114C239.906 18.2568 239.993 18.1247 240.103 18.0152C240.212 17.8992 240.338 17.809 240.48 17.7446C240.628 17.6802 240.786 17.648 240.953 17.648C241.121 17.648 241.279 17.6802 241.427 17.7446C241.575 17.809 241.704 17.8992 241.813 18.0152C241.929 18.1247 242.02 18.2568 242.084 18.4114C242.155 18.5596 242.19 18.7175 242.19 18.885ZM244.591 31.816V22.0259H245.625C245.87 22.0259 246.022 22.1451 246.08 22.3835L246.205 23.3886C246.566 22.9441 246.972 22.58 247.423 22.2965C247.874 22.0131 248.396 21.8713 248.989 21.8713C249.646 21.8713 250.177 22.0549 250.583 22.4222C250.996 22.7894 251.292 23.2855 251.472 23.9105C251.614 23.5561 251.794 23.2501 252.013 22.9924C252.239 22.7347 252.49 22.522 252.767 22.3545C253.044 22.187 253.338 22.0646 253.647 21.9873C253.962 21.91 254.281 21.8713 254.604 21.8713C255.119 21.8713 255.576 21.9551 255.976 22.1226C256.382 22.2837 256.723 22.522 257 22.8378C257.284 23.1535 257.5 23.5433 257.648 24.0072C257.796 24.4646 257.87 24.9897 257.87 25.5825V31.816H256.14V25.5825C256.14 24.8157 255.973 24.2359 255.638 23.8429C255.303 23.4434 254.819 23.2437 254.188 23.2437C253.904 23.2437 253.634 23.2952 253.376 23.3983C253.125 23.4949 252.903 23.6399 252.709 23.8332C252.516 24.0265 252.361 24.2713 252.245 24.5677C252.136 24.8576 252.081 25.1959 252.081 25.5825V31.816H250.351V25.5825C250.351 24.7964 250.193 24.2101 249.878 23.8235C249.562 23.4369 249.101 23.2437 248.496 23.2437C248.07 23.2437 247.677 23.3596 247.317 23.5916C246.956 23.8171 246.624 24.1263 246.321 24.5194V31.816H244.591ZM267.037 25.8531C267.037 25.4536 266.979 25.0896 266.863 24.761C266.754 24.4259 266.589 24.1392 266.37 23.9008C266.158 23.656 265.897 23.4692 265.587 23.3403C265.278 23.205 264.927 23.1374 264.534 23.1374C263.709 23.1374 263.055 23.379 262.572 23.8622C262.095 24.339 261.799 25.0026 261.683 25.8531H267.037ZM268.429 30.4437C268.216 30.7014 267.962 30.9269 267.665 31.1202C267.369 31.307 267.05 31.4616 266.709 31.5841C266.374 31.7065 266.026 31.7967 265.665 31.8547C265.304 31.9191 264.946 31.9513 264.592 31.9513C263.916 31.9513 263.291 31.8386 262.717 31.6131C262.15 31.3811 261.657 31.0461 261.238 30.608C260.826 30.1634 260.504 29.6157 260.272 28.965C260.04 28.3143 259.924 27.5669 259.924 26.7229C259.924 26.0399 260.027 25.402 260.233 24.8093C260.446 24.2165 260.749 23.7043 261.142 23.2727C261.535 22.8345 262.015 22.4931 262.582 22.2482C263.149 21.9969 263.787 21.8713 264.495 21.8713C265.082 21.8713 265.623 21.9712 266.119 22.1709C266.622 22.3642 267.053 22.6477 267.414 23.0214C267.781 23.3886 268.068 23.8461 268.274 24.3937C268.48 24.9349 268.583 25.5535 268.583 26.2493C268.583 26.5199 268.554 26.7003 268.496 26.7905C268.438 26.8807 268.329 26.9258 268.168 26.9258H261.625C261.644 27.5443 261.728 28.0823 261.876 28.5398C262.031 28.9972 262.244 29.3806 262.514 29.6898C262.785 29.9927 263.107 30.2214 263.481 30.376C263.854 30.5242 264.273 30.5983 264.737 30.5983C265.169 30.5983 265.539 30.55 265.848 30.4533C266.164 30.3502 266.435 30.2407 266.66 30.1247C266.886 30.0088 267.073 29.9025 267.221 29.8058C267.375 29.7027 267.507 29.6512 267.617 29.6512C267.759 29.6512 267.868 29.7059 267.946 29.8155L268.429 30.4437Z" fill="black"/>
<path d="M203.513 57.7279C203.513 58.9392 203.381 59.9894 203.116 60.8785C202.859 61.7612 202.504 62.4925 202.053 63.0724C201.602 63.6522 201.067 64.0839 200.449 64.3674C199.837 64.6509 199.18 64.7926 198.477 64.7926C197.769 64.7926 197.108 64.6509 196.496 64.3674C195.891 64.0839 195.362 63.6522 194.911 63.0724C194.46 62.4925 194.106 61.7612 193.848 60.8785C193.59 59.9894 193.462 58.9392 193.462 57.7279C193.462 56.5167 193.59 55.4665 193.848 54.5773C194.106 53.6882 194.46 52.9537 194.911 52.3738C195.362 51.7875 195.891 51.3526 196.496 51.0692C197.108 50.7857 197.769 50.6439 198.477 50.6439C199.18 50.6439 199.837 50.7857 200.449 51.0692C201.067 51.3526 201.602 51.7875 202.053 52.3738C202.504 52.9537 202.859 53.6882 203.116 54.5773C203.381 55.4665 203.513 56.5167 203.513 57.7279ZM201.725 57.7279C201.725 56.6713 201.634 55.7854 201.454 55.0702C201.28 54.3486 201.042 53.7687 200.739 53.3306C200.443 52.8925 200.098 52.58 199.705 52.3932C199.312 52.1999 198.903 52.1032 198.477 52.1032C198.052 52.1032 197.643 52.1999 197.25 52.3932C196.857 52.58 196.512 52.8925 196.216 53.3306C195.92 53.7687 195.681 54.3486 195.501 55.0702C195.327 55.7854 195.24 56.6713 195.24 57.7279C195.24 58.7846 195.327 59.6705 195.501 60.3857C195.681 61.1008 195.92 61.6775 196.216 62.1156C196.512 62.5537 196.857 62.8694 197.25 63.0627C197.643 63.2496 198.052 63.343 198.477 63.343C198.903 63.343 199.312 63.2496 199.705 63.0627C200.098 62.8694 200.443 62.5537 200.739 62.1156C201.042 61.6775 201.28 61.1008 201.454 60.3857C201.634 59.6705 201.725 58.7846 201.725 57.7279ZM214.725 57.7279C214.725 58.9392 214.593 59.9894 214.329 60.8785C214.071 61.7612 213.717 62.4925 213.266 63.0724C212.815 63.6522 212.28 64.0839 211.661 64.3674C211.049 64.6509 210.392 64.7926 209.69 64.7926C208.981 64.7926 208.321 64.6509 207.708 64.3674C207.103 64.0839 206.574 63.6522 206.123 63.0724C205.672 62.4925 205.318 61.7612 205.06 60.8785C204.803 59.9894 204.674 58.9392 204.674 57.7279C204.674 56.5167 204.803 55.4665 205.06 54.5773C205.318 53.6882 205.672 52.9537 206.123 52.3738C206.574 51.7875 207.103 51.3526 207.708 51.0692C208.321 50.7857 208.981 50.6439 209.69 50.6439C210.392 50.6439 211.049 50.7857 211.661 51.0692C212.28 51.3526 212.815 51.7875 213.266 52.3738C213.717 52.9537 214.071 53.6882 214.329 54.5773C214.593 55.4665 214.725 56.5167 214.725 57.7279ZM212.937 57.7279C212.937 56.6713 212.847 55.7854 212.666 55.0702C212.492 54.3486 212.254 53.7687 211.951 53.3306C211.655 52.8925 211.31 52.58 210.917 52.3932C210.524 52.1999 210.115 52.1032 209.69 52.1032C209.264 52.1032 208.855 52.1999 208.462 52.3932C208.069 52.58 207.725 52.8925 207.428 53.3306C207.132 53.7687 206.893 54.3486 206.713 55.0702C206.539 55.7854 206.452 56.6713 206.452 57.7279C206.452 58.7846 206.539 59.6705 206.713 60.3857C206.893 61.1008 207.132 61.6775 207.428 62.1156C207.725 62.5537 208.069 62.8694 208.462 63.0627C208.855 63.2496 209.264 63.343 209.69 63.343C210.115 63.343 210.524 63.2496 210.917 63.0627C211.31 62.8694 211.655 62.5537 211.951 62.1156C212.254 61.6775 212.492 61.1008 212.666 60.3857C212.847 59.6705 212.937 58.7846 212.937 57.7279ZM216.514 63.5846C216.514 63.4171 216.543 63.2592 216.601 63.111C216.666 62.9628 216.749 62.834 216.853 62.7245C216.962 62.6149 217.091 62.5279 217.239 62.4635C217.387 62.3991 217.545 62.3669 217.713 62.3669C217.88 62.3669 218.038 62.3991 218.186 62.4635C218.334 62.5279 218.463 62.6149 218.573 62.7245C218.682 62.834 218.769 62.9628 218.834 63.111C218.898 63.2592 218.93 63.4171 218.93 63.5846C218.93 63.7585 218.898 63.9196 218.834 64.0678C218.769 64.2096 218.682 64.3352 218.573 64.4447C218.463 64.5543 218.334 64.638 218.186 64.696C218.038 64.7604 217.88 64.7926 217.713 64.7926C217.545 64.7926 217.387 64.7604 217.239 64.696C217.091 64.638 216.962 64.5543 216.853 64.4447C216.749 64.3352 216.666 64.2096 216.601 64.0678C216.543 63.9196 216.514 63.7585 216.514 63.5846ZM216.514 56.3363C216.514 56.1687 216.543 56.0109 216.601 55.8627C216.666 55.7145 216.749 55.5857 216.853 55.4761C216.962 55.3666 217.091 55.2796 217.239 55.2152C217.387 55.1508 217.545 55.1185 217.713 55.1185C217.88 55.1185 218.038 55.1508 218.186 55.2152C218.334 55.2796 218.463 55.3666 218.573 55.4761C218.682 55.5857 218.769 55.7145 218.834 55.8627C218.898 56.0109 218.93 56.1687 218.93 56.3363C218.93 56.5102 218.898 56.6713 218.834 56.8195C218.769 56.9612 218.682 57.0869 218.573 57.1964C218.463 57.3059 218.334 57.3929 218.186 57.4573C218.038 57.5153 217.88 57.5443 217.713 57.5443C217.545 57.5443 217.387 57.5153 217.239 57.4573C217.091 57.3929 216.962 57.3059 216.853 57.1964C216.749 57.0869 216.666 56.9612 216.601 56.8195C216.543 56.6713 216.514 56.5102 216.514 56.3363ZM229.677 63.0144C229.864 63.0144 230.012 63.0692 230.122 63.1787C230.231 63.2882 230.286 63.43 230.286 63.6039V64.6477H221.047V64.0581C221.047 63.9357 221.073 63.8101 221.124 63.6812C221.176 63.5524 221.256 63.4332 221.366 63.3236L225.802 58.8683C226.169 58.4947 226.504 58.1371 226.807 57.7956C227.11 57.4477 227.367 57.0998 227.58 56.7518C227.793 56.4039 227.957 56.0528 228.073 55.6984C228.189 55.3376 228.247 54.9543 228.247 54.5483C228.247 54.1424 228.182 53.7881 228.054 53.4853C227.925 53.176 227.748 52.9215 227.522 52.7218C227.303 52.522 227.042 52.3738 226.739 52.2772C226.436 52.1741 226.111 52.1226 225.763 52.1226C225.409 52.1226 225.083 52.1741 224.787 52.2772C224.491 52.3803 224.226 52.5253 223.995 52.7121C223.769 52.8925 223.579 53.1083 223.424 53.3596C223.27 53.6109 223.16 53.8879 223.096 54.1908C223.018 54.4163 222.912 54.5677 222.777 54.645C222.648 54.7159 222.464 54.7352 222.226 54.703L221.327 54.5483C221.417 53.9169 221.591 53.3596 221.849 52.8764C222.113 52.3867 222.442 51.9776 222.835 51.649C223.234 51.3204 223.688 51.0724 224.197 50.9049C224.706 50.7309 225.257 50.6439 225.85 50.6439C226.436 50.6439 226.984 50.7309 227.493 50.9049C228.002 51.0788 228.443 51.3333 228.817 51.6683C229.191 51.9969 229.484 52.3996 229.697 52.8764C229.909 53.3532 230.015 53.8944 230.015 54.5C230.015 55.0155 229.938 55.4955 229.784 55.94C229.629 56.3781 229.42 56.7969 229.155 57.1964C228.891 57.5959 228.585 57.9857 228.237 58.3658C227.896 58.7459 227.532 59.1293 227.145 59.5159L223.492 63.2463C223.75 63.1755 224.011 63.1207 224.275 63.082C224.539 63.0369 224.793 63.0144 225.038 63.0144H229.677ZM232.607 54.5483C232.697 53.9169 232.871 53.3596 233.129 52.8764C233.387 52.3867 233.712 51.9776 234.105 51.649C234.504 51.3204 234.959 51.0724 235.468 50.9049C235.983 50.7309 236.537 50.6439 237.13 50.6439C237.716 50.6439 238.258 50.7277 238.754 50.8952C239.25 51.0627 239.675 51.3011 240.029 51.6104C240.39 51.9196 240.67 52.2933 240.87 52.7314C241.07 53.1696 241.17 53.656 241.17 54.1908C241.17 54.6289 241.112 55.0219 240.996 55.3698C240.886 55.7113 240.725 56.0109 240.513 56.2686C240.306 56.5263 240.055 56.7454 239.759 56.9258C239.462 57.1062 239.131 57.2544 238.763 57.3704C239.665 57.6023 240.342 58.0018 240.793 58.5687C241.25 59.1293 241.479 59.8316 241.479 60.6756C241.479 61.3134 241.357 61.8869 241.112 62.3959C240.873 62.9049 240.545 63.3398 240.126 63.7006C239.707 64.0549 239.218 64.3287 238.657 64.522C238.103 64.7089 237.507 64.8023 236.869 64.8023C236.135 64.8023 235.506 64.7121 234.984 64.5317C234.463 64.3449 234.021 64.0904 233.66 63.7682C233.3 63.4461 233.003 63.0659 232.771 62.6278C232.539 62.1832 232.343 61.7032 232.182 61.1878L232.926 60.8785C233.119 60.7948 233.306 60.7722 233.487 60.8109C233.673 60.8496 233.809 60.9559 233.892 61.1298C233.976 61.3102 234.079 61.5261 234.202 61.7773C234.331 62.0286 234.504 62.2702 234.724 62.5022C234.943 62.7341 235.22 62.9306 235.555 63.0917C235.896 63.2528 236.328 63.3333 236.85 63.3333C237.333 63.3333 237.755 63.256 238.116 63.1014C238.483 62.9403 238.786 62.7341 239.024 62.4828C239.269 62.2316 239.453 61.9513 239.575 61.642C239.698 61.3328 239.759 61.0267 239.759 60.7239C239.759 60.3502 239.71 60.0087 239.614 59.6995C239.517 59.3902 239.337 59.1228 239.073 58.8973C238.808 58.6718 238.444 58.4947 237.98 58.3658C237.523 58.2369 236.933 58.1725 236.212 58.1725V56.9258C236.805 56.9194 237.307 56.8549 237.72 56.7325C238.138 56.6101 238.477 56.4426 238.734 56.23C238.998 56.0173 239.189 55.7628 239.304 55.4665C239.427 55.1701 239.488 54.8415 239.488 54.4807C239.488 54.0812 239.424 53.7333 239.295 53.4369C239.172 53.1406 239.002 52.8957 238.783 52.7024C238.564 52.5092 238.303 52.3642 238 52.2675C237.703 52.1709 237.381 52.1226 237.033 52.1226C236.685 52.1226 236.36 52.1741 236.057 52.2772C235.761 52.3803 235.497 52.5253 235.265 52.7121C235.039 52.8925 234.849 53.1083 234.695 53.3596C234.54 53.6109 234.43 53.8879 234.366 54.1908C234.282 54.4163 234.176 54.5677 234.047 54.645C233.925 54.7159 233.744 54.7352 233.506 54.703L232.607 54.5483ZM243.771 63.5846C243.771 63.4171 243.8 63.2592 243.858 63.111C243.922 62.9628 244.006 62.834 244.109 62.7245C244.219 62.6149 244.348 62.5279 244.496 62.4635C244.644 62.3991 244.802 62.3669 244.969 62.3669C245.137 62.3669 245.295 62.3991 245.443 62.4635C245.591 62.5279 245.72 62.6149 245.83 62.7245C245.939 62.834 246.026 62.9628 246.09 63.111C246.155 63.2592 246.187 63.4171 246.187 63.5846C246.187 63.7585 246.155 63.9196 246.09 64.0678C246.026 64.2096 245.939 64.3352 245.83 64.4447C245.72 64.5543 245.591 64.638 245.443 64.696C245.295 64.7604 245.137 64.7926 244.969 64.7926C244.802 64.7926 244.644 64.7604 244.496 64.696C244.348 64.638 244.219 64.5543 244.109 64.4447C244.006 64.3352 243.922 64.2096 243.858 64.0678C243.8 63.9196 243.771 63.7585 243.771 63.5846ZM243.771 56.3363C243.771 56.1687 243.8 56.0109 243.858 55.8627C243.922 55.7145 244.006 55.5857 244.109 55.4761C244.219 55.3666 244.348 55.2796 244.496 55.2152C244.644 55.1508 244.802 55.1185 244.969 55.1185C245.137 55.1185 245.295 55.1508 245.443 55.2152C245.591 55.2796 245.72 55.3666 245.83 55.4761C245.939 55.5857 246.026 55.7145 246.09 55.8627C246.155 56.0109 246.187 56.1687 246.187 56.3363C246.187 56.5102 246.155 56.6713 246.09 56.8195C246.026 56.9612 245.939 57.0869 245.83 57.1964C245.72 57.3059 245.591 57.3929 245.443 57.4573C245.295 57.5153 245.137 57.5443 244.969 57.5443C244.802 57.5443 244.644 57.5153 244.496 57.4573C244.348 57.3929 244.219 57.3059 244.109 57.1964C244.006 57.0869 243.922 56.9612 243.858 56.8195C243.8 56.6713 243.771 56.5102 243.771 56.3363ZM250.894 56.027C251.615 55.8724 252.279 55.7951 252.885 55.7951C253.606 55.7951 254.244 55.9014 254.798 56.114C255.352 56.3266 255.813 56.6198 256.18 56.9934C256.554 57.3671 256.834 57.8085 257.021 58.3175C257.214 58.8265 257.311 59.3806 257.311 59.9798C257.311 60.7143 257.182 61.3779 256.924 61.9706C256.673 62.5634 256.322 63.0724 255.871 63.4976C255.426 63.9164 254.901 64.2385 254.296 64.4641C253.69 64.6896 253.036 64.8023 252.334 64.8023C251.928 64.8023 251.538 64.7604 251.164 64.6767C250.791 64.5994 250.439 64.493 250.111 64.3577C249.789 64.2224 249.489 64.0678 249.212 63.8938C248.935 63.7199 248.69 63.5363 248.478 63.343L249.009 62.6085C249.125 62.441 249.276 62.3572 249.463 62.3572C249.592 62.3572 249.737 62.4087 249.898 62.5118C250.059 62.6085 250.256 62.718 250.488 62.8404C250.72 62.9628 250.99 63.0756 251.3 63.1787C251.615 63.2753 251.989 63.3236 252.421 63.3236C252.904 63.3236 253.339 63.2463 253.725 63.0917C254.112 62.9371 254.444 62.718 254.721 62.4345C254.998 62.1446 255.21 61.7999 255.359 61.4004C255.507 61.001 255.581 60.5532 255.581 60.0571C255.581 59.6254 255.516 59.2356 255.388 58.8877C255.265 58.5398 255.075 58.2434 254.817 57.9985C254.566 57.7537 254.25 57.5636 253.87 57.4283C253.49 57.293 253.046 57.2254 252.537 57.2254C252.189 57.2254 251.825 57.2544 251.445 57.3124C251.071 57.3704 250.687 57.4638 250.294 57.5926L249.212 57.2737L250.323 50.7985H256.886V51.5524C256.886 51.7972 256.808 52.0002 256.654 52.1612C256.505 52.3159 256.248 52.3932 255.881 52.3932H251.532L250.894 56.027ZM264.193 63.372C264.657 63.372 265.076 63.2979 265.45 63.1497C265.83 63.0015 266.152 62.7953 266.416 62.5312C266.687 62.267 266.893 61.9545 267.035 61.5937C267.183 61.2329 267.257 60.8399 267.257 60.4147C267.257 59.9636 267.186 59.5577 267.044 59.1969C266.903 58.8297 266.7 58.5204 266.436 58.2692C266.178 58.0114 265.869 57.8149 265.508 57.6796C265.147 57.5443 264.751 57.4767 264.319 57.4767C263.855 57.4767 263.436 57.5572 263.063 57.7183C262.689 57.8729 262.37 58.0855 262.106 58.3561C261.848 58.6203 261.648 58.9296 261.507 59.2839C261.371 59.6318 261.304 59.9959 261.304 60.376C261.304 60.8206 261.368 61.2265 261.497 61.5937C261.626 61.961 261.813 62.2767 262.058 62.5408C262.309 62.805 262.612 63.0112 262.966 63.1594C263.327 63.3011 263.736 63.372 264.193 63.372ZM263.188 55.9883C263.066 56.143 262.947 56.2944 262.831 56.4426C262.721 56.5843 262.615 56.7261 262.512 56.8678C262.84 56.6423 263.201 56.4683 263.594 56.3459C263.987 56.2235 264.416 56.1623 264.88 56.1623C265.44 56.1623 265.968 56.2557 266.465 56.4426C266.961 56.623 267.392 56.8904 267.76 57.2447C268.133 57.5926 268.43 58.0243 268.649 58.5398C268.868 59.0487 268.977 59.6318 268.977 60.289C268.977 60.9269 268.861 61.5196 268.629 62.0673C268.397 62.6149 268.072 63.0917 267.653 63.4976C267.241 63.9035 266.742 64.2224 266.155 64.4544C265.575 64.6863 264.934 64.8023 264.232 64.8023C263.536 64.8023 262.905 64.6928 262.338 64.4737C261.771 64.2482 261.288 63.9325 260.888 63.5266C260.495 63.1143 260.189 62.6181 259.97 62.0383C259.757 61.452 259.651 60.798 259.651 60.0764C259.651 59.4708 259.783 58.8265 260.047 58.1435C260.318 57.4541 260.746 56.7196 261.333 55.94L264.851 51.2141C264.941 51.0981 265.063 51.0015 265.218 50.9242C265.379 50.8404 265.563 50.7985 265.769 50.7985H267.296L263.188 55.9883ZM271.028 63.5846C271.028 63.4171 271.057 63.2592 271.115 63.111C271.179 62.9628 271.263 62.834 271.366 62.7245C271.475 62.6149 271.604 62.5279 271.753 62.4635C271.901 62.3991 272.059 62.3669 272.226 62.3669C272.394 62.3669 272.551 62.3991 272.7 62.4635C272.848 62.5279 272.977 62.6149 273.086 62.7245C273.196 62.834 273.283 62.9628 273.347 63.111C273.412 63.2592 273.444 63.4171 273.444 63.5846C273.444 63.7585 273.412 63.9196 273.347 64.0678C273.283 64.2096 273.196 64.3352 273.086 64.4447C272.977 64.5543 272.848 64.638 272.7 64.696C272.551 64.7604 272.394 64.7926 272.226 64.7926C272.059 64.7926 271.901 64.7604 271.753 64.696C271.604 64.638 271.475 64.5543 271.366 64.4447C271.263 64.3352 271.179 64.2096 271.115 64.0678C271.057 63.9196 271.028 63.7585 271.028 63.5846ZM271.028 56.3363C271.028 56.1687 271.057 56.0109 271.115 55.8627C271.179 55.7145 271.263 55.5857 271.366 55.4761C271.475 55.3666 271.604 55.2796 271.753 55.2152C271.901 55.1508 272.059 55.1185 272.226 55.1185C272.394 55.1185 272.551 55.1508 272.7 55.2152C272.848 55.2796 272.977 55.3666 273.086 55.4761C273.196 55.5857 273.283 55.7145 273.347 55.8627C273.412 56.0109 273.444 56.1687 273.444 56.3363C273.444 56.5102 273.412 56.6713 273.347 56.8195C273.283 56.9612 273.196 57.0869 273.086 57.1964C272.977 57.3059 272.848 57.3929 272.7 57.4573C272.551 57.5153 272.394 57.5443 272.226 57.5443C272.059 57.5443 271.901 57.5153 271.753 57.4573C271.604 57.3929 271.475 57.3059 271.366 57.1964C271.263 57.0869 271.179 56.9612 271.115 56.8195C271.057 56.6713 271.028 56.5102 271.028 56.3363ZM284.49 63.3333V64.6477H277.068V63.3333H280.035V53.8912C280.035 53.6077 280.045 53.321 280.064 53.031L277.599 55.1475C277.516 55.2184 277.432 55.2635 277.348 55.2828C277.264 55.2957 277.187 55.2957 277.116 55.2828C277.045 55.27 276.978 55.2442 276.913 55.2055C276.855 55.1669 276.81 55.125 276.778 55.0799L276.237 54.3357L280.364 50.7696H281.765V63.3333H284.49ZM295.403 63.0144C295.59 63.0144 295.738 63.0692 295.847 63.1787C295.957 63.2882 296.012 63.43 296.012 63.6039V64.6477H286.773V64.0581C286.773 63.9357 286.798 63.8101 286.85 63.6812C286.901 63.5524 286.982 63.4332 287.091 63.3236L291.527 58.8683C291.895 58.4947 292.23 58.1371 292.533 57.7956C292.835 57.4477 293.093 57.0998 293.306 56.7518C293.518 56.4039 293.683 56.0528 293.799 55.6984C293.915 55.3376 293.973 54.9543 293.973 54.5483C293.973 54.1424 293.908 53.7881 293.779 53.4853C293.65 53.176 293.473 52.9215 293.248 52.7218C293.029 52.522 292.768 52.3738 292.465 52.2772C292.162 52.1741 291.837 52.1226 291.489 52.1226C291.134 52.1226 290.809 52.1741 290.513 52.2772C290.216 52.3803 289.952 52.5253 289.72 52.7121C289.495 52.8925 289.305 53.1083 289.15 53.3596C288.995 53.6109 288.886 53.8879 288.821 54.1908C288.744 54.4163 288.638 54.5677 288.502 54.645C288.374 54.7159 288.19 54.7352 287.952 54.703L287.053 54.5483C287.143 53.9169 287.317 53.3596 287.575 52.8764C287.839 52.3867 288.167 51.9776 288.56 51.649C288.96 51.3204 289.414 51.0724 289.923 50.9049C290.432 50.7309 290.983 50.6439 291.576 50.6439C292.162 50.6439 292.71 50.7309 293.219 50.9049C293.728 51.0788 294.169 51.3333 294.543 51.6683C294.916 51.9969 295.21 52.3996 295.422 52.8764C295.635 53.3532 295.741 53.8944 295.741 54.5C295.741 55.0155 295.664 55.4955 295.509 55.94C295.355 56.3781 295.145 56.7969 294.881 57.1964C294.617 57.5959 294.311 57.9857 293.963 58.3658C293.621 58.7459 293.257 59.1293 292.871 59.5159L289.218 63.2463C289.475 63.1755 289.736 63.1207 290 63.082C290.265 63.0369 290.519 63.0144 290.764 63.0144H295.403Z" fill="black"/>
</svg>
