<svg width="386" height="203" viewBox="0 0 386 203" fill="none" xmlns="http://www.w3.org/2000/svg">
<path d="M181.175 156.815H125.121V133.62H181.175V156.815Z" fill="white" fill-opacity="0.7"/>
<path fill-rule="evenodd" clip-rule="evenodd" d="M183.108 158.748H123.188V131.687H183.108V158.748ZM124.992 156.85H181.304V133.585H124.992V156.85Z" fill="white" fill-opacity="0.7"/>
<path fill-rule="evenodd" clip-rule="evenodd" d="M343.537 158.748H123.188V131.687H343.537V158.748ZM124.977 156.85H341.748V133.585H124.977V156.85Z" fill="white" fill-opacity="0.7"/>
<path fill-rule="evenodd" clip-rule="evenodd" d="M366.732 183.875H99.9937V65.969H366.732V183.875ZM101.785 182.078H365.019V67.688H101.785V182.078Z" fill="#F8F8F8" fill-opacity="0.8"/>
<g opacity="0.4">
<path d="M378.785 91.6969H377.076V55.5733H340.952V53.7865H378.785V91.6969Z" fill="#F8F8F8" fill-opacity="0.8"/>
<path d="M89.5628 91.6969H87.8538V53.7865H125.686V55.5733H89.5628V91.6969Z" fill="#F8F8F8" fill-opacity="0.8"/>
<path d="M378.785 195.018H340.952V193.231H377.076V157.185H378.785V195.018Z" fill="#F8F8F8" fill-opacity="0.8"/>
<path d="M125.686 195.018H87.8538V157.185H89.5628V193.231H125.686V195.018Z" fill="#F8F8F8" fill-opacity="0.8"/>
</g>
<g opacity="0.4">
<path fill-rule="evenodd" clip-rule="evenodd" d="M37.6668 38.015H15.4489V15.797H37.6668V38.015ZM17.2356 36.2282H35.8801V17.5061H17.2356V36.2282Z" fill="#F8F8F8" fill-opacity="0.8"/>
</g>
<path d="M30.4096 31.1771H22.6781V21.5127H30.4096V31.1771Z" fill="#F8F8F8" fill-opacity="0.8"/>
<path d="M45.8728 17.6469H44.2621V9.53437H36.2084V7.98242H45.8728V17.6469Z" fill="#F8F8F8" fill-opacity="0.8"/>
<path d="M9.1481 17.6469H7.21521V7.98242H18.8125V9.53437H9.1481V17.6469Z" fill="#F8F8F8" fill-opacity="0.8"/>
<path d="M45.8728 46.6402H36.2084V44.7778H44.2621V35.0428H45.8728V46.6402Z" fill="#F8F8F8" fill-opacity="0.8"/>
<path d="M18.8125 46.6402H7.21521V35.0428H9.1481V44.7778H18.8125V46.6402Z" fill="#F8F8F8" fill-opacity="0.8"/>
<path d="M88.3963 65.969H64.0454L43.9399 45.9766L45.2216 44.7073L64.8465 64.1443H88.3963V65.969Z" fill="#F8F8F8" fill-opacity="0.8"/>
</svg>
