<svg width="131" height="63" viewBox="0 0 131 63" fill="none" xmlns="http://www.w3.org/2000/svg">
<path d="M64.9032 12.3232C50.9027 12.3232 29.953 14.3671 17.8941 21.1119C12.9888 23.8711 8.69666 28.0611 11.4559 33.0686C15.1349 40.0178 29.8508 43.799 37.7197 45.3319L44.6689 41.4485C25.3542 37.7695 18.7116 29.6962 29.8508 23.3602C41.6031 16.8198 66.7427 15.0825 85.1376 18.5571L92.0867 14.6737C83.8091 13.1408 74.4072 12.3232 64.9032 12.3232Z" fill="#163C5B"/>
<path d="M119.168 30.0024H105.372C105.372 32.3529 103.43 34.6012 99.9555 36.5429C90.8603 41.6525 75.3268 43.1854 64.9031 43.1854V47.682C78.8014 47.682 99.7512 45.6381 111.912 38.7911C116.715 36.1341 119.168 33.0683 119.168 30.0024Z" fill="#163C5B"/>
<path d="M49.88 11.812C38.6387 12.8339 20.8569 15.7976 11.8639 22.5424L12.4771 22.6446C19.3241 17.4327 33.4268 13.4471 50.0844 12.0164L49.88 11.812Z" fill="#163C5B"/>
<path d="M9.61613 24.4844C7.98103 26.2557 7.16345 28.0952 7.16345 30.0028H7.77659C7.77659 28.1633 8.59417 26.3579 10.2293 24.5866L9.61613 24.4844Z" fill="#163C5B"/>
<path d="M19.0179 41.0396L18.507 41.244C22.1859 42.7769 26.4781 44.1054 31.3834 45.3317L31.7922 45.1273C26.8868 44.0032 22.5947 42.6747 19.0179 41.0396Z" fill="#163C5B"/>
<path d="M89.4292 46.7622C76.5528 48.8061 62.2457 49.0105 49.4715 47.8863L49.2671 48.0907C62.2457 49.2148 76.655 49.0105 89.7358 46.9666L89.4292 46.7622Z" fill="#163C5B"/>
<path d="M106.087 42.8794C103.123 43.7991 99.9549 44.7189 96.4803 45.4342L96.7869 45.6386C100.262 44.9233 103.532 44.0035 106.495 42.9816L106.087 42.8794Z" fill="#163C5B"/>
<path d="M121.825 26.8345L121.212 26.9367C124.686 33.6814 116.102 38.9955 109.051 41.7548L109.562 41.8569C116.715 38.9955 125.3 33.7837 121.825 26.8345Z" fill="#163C5B"/>
<path d="M106.905 17.1255L106.496 17.2277C112.525 19.3737 117.124 21.9286 119.577 24.6878L120.19 24.5856C117.635 21.8264 113.036 19.2716 106.905 17.1255Z" fill="#163C5B"/>
<path d="M64.9031 11.1987C63.4724 11.1987 62.0417 11.1987 60.611 11.1987L60.7132 11.4031C69.9106 11.1987 79.4146 11.7097 88.4077 13.0382L88.7143 12.8338C81.2541 11.7097 73.1808 11.1987 64.9031 11.1987Z" fill="#163C5B"/>
<path d="M86.4662 40.1196C84.6267 40.5284 82.6851 40.9031 80.6412 41.2438L80.9478 41.4481C82.9917 41.1075 84.9674 40.7328 86.875 40.324L86.4662 40.1196Z" fill="#163C5B"/>
<path d="M98.9339 35.522C96.0724 37.2593 92.3935 38.5878 89.1233 39.5075L89.532 39.6097C92.8022 38.7922 96.5834 37.4637 99.4448 35.522H98.9339Z" fill="#163C5B"/>
<path d="M76.655 18.0464L76.4506 18.2508C82.2756 18.8639 87.3853 19.8859 91.6775 21.2144L92.1884 21.1122C87.7941 19.6815 82.5822 18.6595 76.655 18.0464Z" fill="#163C5B"/>
<path d="M64.9023 17.4321C63.3353 17.4321 61.8024 17.4662 60.3036 17.5343L60.4058 17.7387C64.8001 17.5343 69.1945 17.6365 73.2822 17.9431L73.4866 17.7387C70.6252 17.5343 67.7637 17.4321 64.9023 17.4321Z" fill="#163C5B"/>
<path d="M49.4722 20.6006C46.6108 21.1116 44.0559 21.7247 41.7054 22.4401L42.2164 22.6445C44.4647 21.8269 47.0195 21.2137 49.7788 20.805L49.4722 20.6006Z" fill="#163C5B"/>
<path d="M124.379 47.9878C123.766 49.146 122.846 50.2701 121.62 51.3602H122.131C123.357 50.2701 124.311 49.146 124.993 47.9878H124.379Z" fill="#163C5B"/>
<path d="M122.745 38.1777H122.234C124.584 40.426 126.015 43.1852 125.095 46.251H125.709C126.526 43.1852 125.095 40.426 122.745 38.1777Z" fill="#163C5B"/>
<path d="M32.8145 27.7534C26.8873 28.8775 21.6754 30.4105 17.3833 32.2499L17.7921 32.3521C22.0842 30.6148 27.1939 29.0819 33.1212 27.8556L32.8145 27.7534Z" fill="#163C5B"/>
<path d="M10.74 52.8931L10.229 52.9953C11.5235 53.8809 13.0223 54.7326 14.7256 55.5501L15.1343 55.4479C13.4992 54.6304 12.0344 53.7787 10.74 52.8931Z" fill="#163C5B"/>
<path d="M17.9958 56.6743L17.587 56.7765C23.1055 59.0248 30.1569 60.9665 38.0258 62.1928L38.3324 61.9884C30.4634 60.7621 23.5142 58.9226 17.9958 56.6743Z" fill="#163C5B"/>
<path d="M111.196 24.4844L109.459 24.9953C115.284 26.937 119.883 29.1853 123.051 31.6379C129.387 36.6454 129.387 42.2661 123.051 47.2736L124.175 47.3758H123.97C123.085 48.0571 122.097 48.7384 121.007 49.4197C120.598 49.0109 120.291 48.9087 120.087 48.7043C112.014 53.6096 100.67 56.1644 91.2683 57.6973C92.0859 57.7995 92.6991 57.9017 93.5166 58.0039C93.0397 58.0721 92.5287 58.1402 91.9837 58.2083C91.3705 58.1061 90.6552 58.0039 89.9398 57.9017C89.7354 58.0039 89.6333 58.1061 89.6333 58.1061C90.2464 58.1743 90.7914 58.2424 91.2683 58.3105C90.7914 58.3786 90.2805 58.4468 89.7354 58.5149C89.1223 58.4127 88.5091 58.3105 87.6916 58.2083C87.6916 58.2083 87.385 58.4127 87.4871 58.4127C88.0322 58.4808 88.5432 58.549 89.0201 58.6171C88.5432 58.6852 88.0322 58.7533 87.4871 58.8215C86.4652 58.7193 86.6696 58.7193 85.4433 58.5149L85.2389 58.6171C86.4653 58.9237 86.1587 58.8215 86.7718 58.9237C86.2268 58.9918 85.6817 59.0599 85.1367 59.1281C84.5235 58.9918 83.8764 58.8555 83.1951 58.7193C83.0929 58.7193 82.8884 58.9237 82.8884 58.8215C83.4335 58.9577 83.9444 59.094 84.4213 59.2302C83.8763 59.2302 83.3313 59.2643 82.7863 59.3324C82.1731 59.1962 81.5599 59.0599 80.9468 58.9237C80.8446 58.9237 80.538 59.1281 80.6402 59.0259C81.1171 59.1621 81.594 59.2984 82.0709 59.4346C81.5259 59.5028 80.9809 59.5368 80.4358 59.5368C79.8227 59.4006 79.2095 59.2643 78.5963 59.1281L78.4941 59.2302L78.3919 59.1281C66.3331 59.9456 53.3544 59.639 41.4999 58.0039L41.2956 58.2083C53.3545 59.8434 66.4353 60.15 78.3919 59.2302C78.8688 59.3665 79.3117 59.5028 79.7204 59.639C61.2234 61.0698 37.7188 59.8434 20.1415 54.1206C14.2142 52.1789 9.51332 49.9306 6.34532 47.3758H6.03875L7.16286 47.2736C1.03123 42.3683 0.724646 36.7476 7.16286 31.6379C10.3309 29.1853 14.9296 26.937 20.7546 24.9953L19.1195 24.4844C12.9879 26.4261 8.18478 28.7765 4.91458 31.3314C-1.62582 36.5432 -1.62582 42.3683 4.91458 47.5802L5.83435 47.478C22.6963 60.7631 74.3042 64.4421 106.904 55.3469C107.926 55.3469 108.743 55.3469 109.357 55.4491C112.831 54.4272 116.101 53.303 119.372 51.7701C119.167 51.4976 118.963 51.2251 118.758 50.9526C121.007 49.8625 122.914 48.7043 124.481 47.478L125.299 47.5802C131.941 42.3683 131.941 36.5432 125.299 31.3314C122.029 28.7765 117.226 26.4261 111.196 24.4844Z" fill="#40F4FF"/>
<path d="M73.0785 19.6807L72.9763 19.7828C78.086 20.2938 87.9988 21.8267 91.269 25.8123L91.8822 25.7101C88.5098 21.7245 78.2904 20.0894 73.0785 19.6807Z" fill="#40F4FF"/>
<path d="M59.3842 19.6807C54.1723 20.0894 43.9529 21.7245 40.6827 25.7101L41.2959 25.8123C44.4639 21.8267 54.4789 20.2938 59.5886 19.7828L59.3842 19.6807Z" fill="#40F4FF"/>
<path d="M41.2959 30.105L40.6827 30.2072C43.9529 34.1927 54.1723 35.8278 59.3842 36.3388L59.5886 36.1344C54.4789 35.6235 44.4639 34.0905 41.2959 30.105Z" fill="#40F4FF"/>
<path d="M91.269 30.105C87.9988 34.0905 78.086 35.6235 72.9763 36.1344L73.0785 36.3388C78.3926 35.8278 88.5098 34.1927 91.8822 30.2072L91.269 30.105Z" fill="#40F4FF"/>
<path d="M66.2311 61.376H65.4136L65.5157 62.5001H66.3333L66.2311 61.376Z" fill="#40F4FF"/>
<path d="M69.0924 61.2744H68.1727L68.3771 62.5008H69.2968L69.0924 61.2744Z" fill="#40F4FF"/>
<path d="M71.8523 61.1714L70.9326 61.2736L71.3414 62.3977H72.1589L71.8523 61.1714Z" fill="#40F4FF"/>
<path d="M74.5083 61.0684L73.6907 61.1706L74.2016 62.2947L75.1214 62.1925L74.5083 61.0684Z" fill="#40F4FF"/>
<path d="M77.2685 60.9668H76.3488L77.0641 62.0909H77.9838L77.2685 60.9668Z" fill="#40F4FF"/>
<path d="M35.8797 59.127L34.2446 60.1489L35.0622 60.2511L36.6973 59.2291L35.8797 59.127Z" fill="#40F4FF"/>
<path d="M38.3326 59.5361L36.9019 60.5581L37.7195 60.6603L39.1501 59.6383L38.3326 59.5361Z" fill="#40F4FF"/>
<path d="M40.8865 59.8428L39.558 60.9669L40.4777 61.0691L41.704 59.945L40.8865 59.8428Z" fill="#40F4FF"/>
<path d="M43.5444 60.1494L42.3181 61.2735L43.2378 61.3757L44.362 60.2516L43.5444 60.1494Z" fill="#40F4FF"/>
<path d="M46.0995 60.4575L45.1798 61.5817L45.9973 61.6839L47.0193 60.5597L46.0995 60.4575Z" fill="#40F4FF"/>
<path d="M48.7558 60.7622L47.9382 61.8863H48.8579L49.6755 60.7622H48.7558Z" fill="#40F4FF"/>
<path d="M51.5149 60.9668L50.7996 62.0909H51.7193L52.3325 60.9668H51.5149Z" fill="#40F4FF"/>
<path d="M54.2745 61.0684L53.6614 62.1925L54.5811 62.2947L55.0921 61.1706L54.2745 61.0684Z" fill="#40F4FF"/>
<path d="M56.9325 61.1714L56.5237 62.3977H57.4435L57.8522 61.2736L56.9325 61.1714Z" fill="#40F4FF"/>
<path d="M59.6917 61.2744L59.4873 62.5008H60.407L60.6114 61.2744H59.6917Z" fill="#40F4FF"/>
<path d="M62.4501 61.376V62.5001H63.2677L63.3698 61.376H62.4501Z" fill="#40F4FF"/>
<path d="M39.6612 21.4194L30.3616 23.9743C31.3154 24.3149 32.2692 24.6556 33.223 24.9962L41.6029 22.1348C40.9216 21.9304 40.2743 21.692 39.6612 21.4194Z" fill="#40F4FF"/>
<path d="M56.0114 24.8931L52.4346 28.572C53.0477 28.6402 53.6268 28.7083 54.1719 28.7764L57.0333 24.9953C56.6926 24.9271 56.352 24.8931 56.0114 24.8931Z" fill="#40F4FF"/>
<path d="M19.4265 13.855C19.3583 14.6725 19.4946 15.456 19.8353 16.2054L31.6897 15.6945C31.4853 15.0813 31.3831 14.5022 31.3831 13.9572L19.4265 13.855Z" fill="#40F4FF"/>
<path d="M51.8217 24.3813L46.9164 27.9581C47.5977 28.0263 48.313 28.1285 49.0624 28.2647L53.2523 24.5857C52.7754 24.5176 52.2986 24.4495 51.8217 24.3813Z" fill="#40F4FF"/>
<path d="M53.9681 24.6885L49.7782 28.3675C50.4595 28.4356 51.1067 28.5037 51.7198 28.5718L55.2966 24.7907C54.8197 24.7225 54.3769 24.6885 53.9681 24.6885Z" fill="#40F4FF"/>
<path d="M37.2082 20.397L27.0909 22.543C27.9766 22.9518 28.8964 23.3606 29.8502 23.7694L39.1498 21.2145C38.4685 20.942 37.8213 20.6695 37.2082 20.397Z" fill="#40F4FF"/>
<path d="M33.1209 17.6357L21.573 18.7599C22.1862 19.373 22.9016 19.9862 23.7191 20.5994L34.6539 18.8621C34.0407 18.4533 33.5297 18.0445 33.1209 17.6357Z" fill="#40F4FF"/>
<path d="M34.9593 19.0679L24.1267 20.8052C24.8761 21.3502 25.7277 21.8612 26.6816 22.3381L36.7988 20.192C36.1175 19.8514 35.5043 19.4766 34.9593 19.0679Z" fill="#40F4FF"/>
<path d="M31.7926 15.9009L19.9381 16.514C20.2788 17.1953 20.7557 17.8766 21.3688 18.5579L32.9167 17.4338C32.4398 16.9569 32.0651 16.4459 31.7926 15.9009Z" fill="#40F4FF"/>
<path d="M49.5733 23.9727L43.8505 27.4472C44.5999 27.5835 45.3834 27.7198 46.2009 27.856L51.2084 24.2792C50.6633 24.2111 50.1183 24.1089 49.5733 23.9727Z" fill="#40F4FF"/>
<path d="M63.7793 25.3018L62.9617 29.1851C63.2342 29.1851 63.5068 29.1851 63.7793 29.1851L64.188 25.3018C64.0517 25.3018 63.9155 25.3018 63.7793 25.3018Z" fill="#40F4FF"/>
<path d="M62.4503 25.3018L61.224 29.1851C61.5646 29.1851 61.8712 29.1851 62.1437 29.1851L62.9612 25.3018C62.825 25.3018 62.6547 25.3018 62.4503 25.3018Z" fill="#40F4FF"/>
<path d="M64.9031 25.3018L64.4943 29.1851C64.7668 29.1851 65.0052 29.1851 65.2096 29.1851V25.3018C65.1415 25.3018 65.0393 25.3018 64.9031 25.3018Z" fill="#40F4FF"/>
<path d="M61.0189 25.2002L59.2816 29.0836C59.6223 29.0836 59.9969 29.1176 60.4057 29.1857L61.7343 25.2002C61.4618 25.2002 61.2233 25.2002 61.0189 25.2002Z" fill="#40F4FF"/>
<path d="M59.4862 25.0967L57.2379 28.98C57.6467 28.98 58.0895 29.0141 58.5664 29.0822L60.3037 25.1989C60.0312 25.1989 59.7587 25.1648 59.4862 25.0967Z" fill="#40F4FF"/>
<path d="M47.2224 23.564L40.5798 26.8342C41.4655 27.0386 42.3171 27.2089 43.1347 27.3451L48.9597 23.8705C48.3466 23.8024 47.7675 23.7002 47.2224 23.564Z" fill="#40F4FF"/>
<path d="M44.7706 22.9521L37.2083 26.1201C38.0939 26.3245 39.0136 26.5289 39.9674 26.7333L46.61 23.4631C45.9969 23.3269 45.3837 23.1565 44.7706 22.9521Z" fill="#40F4FF"/>
<path d="M57.851 24.9951L54.8875 28.8785C55.4325 28.8785 55.9435 28.9125 56.4204 28.9807L58.7708 25.0973C58.4302 25.0973 58.1236 25.0632 57.851 24.9951Z" fill="#40F4FF"/>
<path d="M42.2157 22.3374L33.8358 25.0966C34.7215 25.3691 35.6754 25.6417 36.6973 25.9142L44.1574 22.8484C43.4761 22.644 42.8289 22.4737 42.2157 22.3374Z" fill="#40F4FF"/>
<path d="M103.634 9.46094L101.079 9.97191C101.42 10.1763 101.761 10.3807 102.101 10.5851L104.86 10.0741C104.452 9.8697 104.043 9.66533 103.634 9.46094Z" fill="#40F4FF"/>
<path d="M100.466 8.03125L98.0137 8.64442C98.4224 8.78068 98.7631 8.91693 99.0356 9.05319L101.59 8.44003C101.182 8.30378 100.807 8.16751 100.466 8.03125Z" fill="#40F4FF"/>
<path d="M101.999 8.64502L99.5469 9.25817C99.8875 9.39443 100.228 9.56475 100.569 9.76914L103.226 9.25817C102.817 9.05379 102.408 8.84941 101.999 8.64502Z" fill="#40F4FF"/>
<path d="M106.7 11.3018L103.941 11.7105C104.35 11.9831 104.725 12.2556 105.065 12.5281L107.927 12.2215C107.518 11.8809 107.109 11.5743 106.7 11.3018Z" fill="#40F4FF"/>
<path d="M105.168 10.2793L102.511 10.7903C102.92 10.9947 103.294 11.2331 103.635 11.5056L106.394 11.0969C106.054 10.8243 105.645 10.5518 105.168 10.2793Z" fill="#40F4FF"/>
<path d="M96.0716 6.49902L93.9255 7.21438C94.1981 7.35064 94.4706 7.45283 94.7431 7.52096L96.9914 6.80561C96.7188 6.66935 96.4122 6.56715 96.0716 6.49902Z" fill="#40F4FF"/>
<path d="M94.7438 6.08984L92.7 6.9074C92.9725 6.97553 93.2109 7.04365 93.4153 7.11178L95.5614 6.29423C95.2888 6.2261 95.0163 6.15797 94.7438 6.08984Z" fill="#40F4FF"/>
<path d="M92.3926 5.47559L90.5531 6.29314C90.6894 6.36127 90.8256 6.42939 90.9619 6.49752L93.0058 5.67997C92.8014 5.61184 92.597 5.54372 92.3926 5.47559Z" fill="#40F4FF"/>
<path d="M108.13 12.4248L105.269 12.7314C105.61 13.072 105.95 13.4127 106.291 13.7533L109.152 13.4467C108.88 13.1061 108.539 12.7655 108.13 12.4248Z" fill="#40F4FF"/>
<path d="M97.5025 6.90625L95.2543 7.6216C95.5268 7.75786 95.7993 7.86006 96.0718 7.92819L98.4223 7.21282C98.0816 7.14469 97.7751 7.04251 97.5025 6.90625Z" fill="#40F4FF"/>
<path d="M98.9333 7.41797L96.6851 8.13332C96.9576 8.26958 97.2642 8.37178 97.6048 8.43991L99.9553 7.82674C99.6146 7.69048 99.274 7.55423 98.9333 7.41797Z" fill="#40F4FF"/>
<path d="M107.007 20.2949C106.666 20.84 106.223 21.4191 105.678 22.0322L108.54 22.3388C109.153 21.7256 109.664 21.1125 110.073 20.4993L107.007 20.2949Z" fill="#40F4FF"/>
<path d="M93.5175 5.78271L91.5758 6.60027C91.7802 6.6684 91.9846 6.70245 92.189 6.70245L94.2329 5.9871C94.0285 5.91897 93.79 5.85084 93.5175 5.78271Z" fill="#40F4FF"/>
<path d="M107.824 18.4551C107.688 19.0001 107.484 19.5452 107.211 20.0902L110.175 20.1924C110.515 19.6474 110.754 19.1023 110.89 18.5573L107.824 18.4551Z" fill="#40F4FF"/>
<path d="M110.889 16.7173L107.823 16.8195C107.891 17.2964 107.891 17.7733 107.823 18.2502H110.889C110.957 17.7733 110.957 17.2623 110.889 16.7173Z" fill="#40F4FF"/>
<path d="M102.612 24.2793C101.522 24.8925 100.262 25.4716 98.8309 26.0166L101.386 26.7319C102.714 26.1188 104.043 25.5056 105.371 24.6881L102.612 24.2793Z" fill="#40F4FF"/>
<path d="M105.372 22.2358C104.691 22.849 103.873 23.4622 102.919 24.0753L105.679 24.4841C106.7 23.8709 107.586 23.2237 108.336 22.5424L105.372 22.2358Z" fill="#40F4FF"/>
<path d="M110.378 15.082L107.313 15.2864C107.517 15.6952 107.687 16.104 107.824 16.5127H110.787C110.719 16.0358 110.583 15.5589 110.378 15.082Z" fill="#40F4FF"/>
<path d="M109.357 13.6514L106.496 13.958C106.768 14.2986 107.007 14.6733 107.211 15.0821L110.175 14.8777C109.97 14.4689 109.698 14.0601 109.357 13.6514Z" fill="#40F4FF"/>
<path d="M123.664 13.9585C123.596 13.9585 123.528 13.9585 123.46 13.9585C122.234 14.8782 122.131 14.8782 122.131 14.8782C123.63 16.3089 124.652 17.7737 125.197 19.2726C125.299 19.5792 125.299 19.5792 125.402 19.6814C125.402 19.7835 125.504 20.2945 125.504 20.2945C125.504 20.4989 125.504 20.4989 125.606 21.4186L125.504 22.4406C125.402 23.3603 125.402 23.2581 125.299 23.3603L125.197 23.6669C125.197 23.6669 125.299 23.6669 127.037 24.3823C125.095 28.8788 119.168 32.0468 114.671 33.8863C108.846 36.3389 102.306 38.0762 96.072 39.2004C93.2106 38.8938 93.415 38.8938 93.2106 38.996C83.0934 40.6311 86.2614 39.4047 83.7066 40.9377C83.6044 41.0398 83.9109 41.1421 84.1153 41.1421C94.1303 40.1201 105.883 37.9741 115.08 34.0907C117.941 33.9885 118.044 33.9885 118.146 33.8863C120.394 32.8643 121.416 32.2512 121.314 32.3534C124.788 30.4117 126.73 28.5722 126.73 28.5722C128.263 27.1415 129.694 25.4042 130.205 23.3603L130.307 22.645C130.307 22.645 130.409 22.645 128.365 21.9296V21.4186L128.263 20.3967L128.059 19.477L127.65 18.455C126.832 16.8199 126.321 16.2068 124.686 14.5717C123.971 13.9585 123.971 13.9585 123.664 13.9585Z" fill="#40F4FF"/>
<path d="M9.00319 12.1196C8.86693 12.1196 8.76475 12.1196 8.69662 12.1196C6.95932 13.2438 5.22205 14.6745 3.99573 16.2074C1.95185 18.66 1.2365 21.3171 2.46282 24.2807C1.95185 24.4851 1.13429 24.7917 0.725514 25.0982C0.62332 25.0982 0.725526 25.0982 0.929914 25.6092L1.64522 26.6311C2.054 27.1421 2.97376 28.3685 5.11983 29.9014C7.57248 31.843 10.4339 33.1715 10.4339 33.1715C11.7624 33.7847 14.2151 34.8066 14.2151 34.8066C14.4195 34.9088 16.0546 35.522 16.0546 35.522C16.8721 35.8286 16.8721 35.8286 17.0765 35.8286C18.0303 35.8967 18.9841 35.9308 19.9379 35.9308C29.0332 38.8944 38.946 40.2229 38.3328 40.1207C39.0141 40.257 39.6614 40.3592 40.2745 40.4273C40.4789 40.4273 40.7854 40.4273 40.6833 40.3251C39.4569 39.3032 39.6613 39.4054 39.4569 39.3032C31.2814 38.0768 24.0257 36.2374 18.2006 33.9891C18.0984 33.8869 18.2007 33.9891 15.237 33.7847C6.44838 30.1057 -1.42054 23.6675 4.5067 16.3096C7.06154 15.7986 7.06152 15.9008 7.16371 15.7986L7.77685 15.0833C7.87904 14.9811 9.00321 14.0613 8.90102 14.1635C10.1273 13.1416 10.3317 13.1416 10.2295 13.0394C9.10539 12.1196 9.30977 12.1196 9.00319 12.1196Z" fill="#40F4FF"/>
<path d="M61.8365 0.672363C57.0334 0.876751 55.9093 0.876748 55.9093 0.876748C47.836 1.28552 41.2956 2.00089 35.2662 3.02282C32.7113 2.92063 32.9157 2.92062 32.8135 2.92062C25.7621 4.24914 21.0612 5.67986 21.0612 5.78205C20.9249 5.98644 20.8228 6.22489 20.7546 6.49741C20.5502 6.90618 20.448 7.00837 20.2437 8.2347C26.6819 6.08863 31.0762 5.16888 31.0762 5.16888C38.0254 3.63598 47.0185 2.40965 57.9532 1.89869C59.0773 1.48991 59.2817 1.48991 61.8365 0.672363Z" fill="#40F4FF"/>
<path d="M68.2751 0.162109C68.0707 0.162109 67.1509 0.468691 66.2312 0.673078C64.6983 1.08185 64.4939 1.08186 62.0413 1.79722C75.8374 1.69502 89.0204 2.61476 102.51 5.98715C103.838 5.98715 104.043 5.98716 107.926 6.08935C100.364 3.94328 93.4148 2.51256 84.0129 1.59282C83.1954 1.18404 82.5822 0.979663 82.5822 0.979663C82.3778 0.877469 72.6694 0.162109 68.2751 0.162109Z" fill="#40F4FF"/>
<path fill-rule="evenodd" clip-rule="evenodd" d="M62.6551 44.5138L62.4507 46.0467C54.3774 45.9445 46.6107 45.2291 38.7418 43.7984L40.7857 42.3677C48.0415 43.6962 55.2972 44.4116 62.6551 44.5138ZM62.042 44.7182C54.684 44.616 47.4283 43.7984 41.0923 42.6743L39.5594 43.6962C46.8151 45.0247 54.5818 45.7401 61.8376 45.8423L62.042 44.7182Z" fill="#40F4FF"/>
<path d="M65.8224 5.88428H65.3114L65.4136 6.39525H65.8224V5.88428Z" fill="#40F4FF"/>
<path d="M64.3922 5.88428H63.8812L64.0856 6.49743L64.4944 6.39525L64.3922 5.88428Z" fill="#40F4FF"/>
<path d="M62.961 5.88428H62.4501L62.6545 6.49743H63.1654L62.961 5.88428Z" fill="#40F4FF"/>
<path d="M61.5305 5.98633H61.1217L61.3261 6.5995L61.7349 6.4973L61.5305 5.98633Z" fill="#40F4FF"/>
<path d="M60.0997 6.08984H59.6909L59.9975 6.60081H60.4062L60.0997 6.08984Z" fill="#40F4FF"/>
<path d="M58.6692 6.19189H58.2604L58.6692 6.70286H59.0779L58.6692 6.19189Z" fill="#40F4FF"/>
<path d="M57.3407 6.29395H56.932L57.3407 6.90711L57.8517 6.80491L57.3407 6.29395Z" fill="#40F4FF"/>
<path d="M55.9097 6.39648L55.5009 6.49867L56.1141 7.00964L56.5228 6.90745L55.9097 6.39648Z" fill="#40F4FF"/>
<path d="M54.5809 6.6001H54.1721L54.7853 7.11107H55.1941L54.5809 6.6001Z" fill="#40F4FF"/>
<path d="M53.2525 6.70166L52.8438 6.80386L53.5591 7.31483H53.9679L53.2525 6.70166Z" fill="#40F4FF"/>
<path d="M51.9247 6.90625L51.6182 7.00843L52.3335 7.5194L52.7423 7.41722L51.9247 6.90625Z" fill="#40F4FF"/>
<path d="M80.7426 6.90625L79.925 7.41722L80.3338 7.5194L81.0492 7.00843L80.7426 6.90625Z" fill="#40F4FF"/>
<path d="M79.4147 6.70166L78.6993 7.31483H79.1081L79.8234 6.80386L79.4147 6.70166Z" fill="#40F4FF"/>
<path d="M78.0857 6.6001L77.4725 7.11107H77.8813L78.4945 6.6001H78.0857Z" fill="#40F4FF"/>
<path d="M76.7567 6.39648L76.1436 6.90745L76.5524 7.00964L77.1655 6.49867L76.7567 6.39648Z" fill="#40F4FF"/>
<path d="M75.3263 6.29395L74.8153 6.80491L75.3263 6.90711L75.735 6.29395H75.3263Z" fill="#40F4FF"/>
<path d="M73.998 6.19189L73.5892 6.70286H73.998L74.4068 6.19189H73.998Z" fill="#40F4FF"/>
<path d="M72.568 6.08984L72.2615 6.60081H72.6702L72.9768 6.08984H72.568Z" fill="#40F4FF"/>
<path d="M71.1369 5.98633L70.8303 6.4973L71.3413 6.5995L71.5457 5.98633H71.1369Z" fill="#40F4FF"/>
<path d="M69.7057 5.88428L69.5013 6.49743H70.0123L70.1145 5.88428H69.7057Z" fill="#40F4FF"/>
<path d="M68.2749 5.88428L68.1727 6.39525L68.5815 6.49743L68.6837 5.88428H68.2749Z" fill="#40F4FF"/>
<path d="M66.8448 5.88428V6.39525H67.2536V5.88428H66.8448Z" fill="#40F4FF"/>
</svg>
