<svg width="417" height="203" viewBox="0 0 417 203" fill="none" xmlns="http://www.w3.org/2000/svg">
<path fill-rule="evenodd" clip-rule="evenodd" d="M0.543962 105.115L0 104.911L175.009 0.544537L175.077 0.476562L415.902 53.7136L416.31 53.7816L294.945 202.75L294.878 202.886L0.543962 105.115ZM175.145 1.0885L1.22387 104.843L294.674 202.342L415.358 54.1895L175.145 1.0885Z" fill="url(#paint0_linear_1_2579)"/>
<path d="M305.281 189.9L305.417 189.356L14.755 96.208L14.6189 96.684L305.281 189.9Z" fill="url(#paint1_linear_1_2579)"/>
<path d="M314.799 178.137L315.003 177.661L28.4209 88.0483L28.2849 88.5243L314.799 178.137Z" fill="url(#paint2_linear_1_2579)"/>
<path d="M324.115 166.783L324.386 165.967C324.046 165.899 291.615 156.109 263.33 147.542C241.913 141.082 219.204 135.779 199.147 131.088C192.824 129.592 186.772 128.164 181.401 126.872C167.259 123.405 153.457 118.238 135.983 111.574C126.396 107.971 115.518 103.891 103.007 99.4719C68.5358 87.3015 41.7473 80.1625 41.4753 80.0945L41.2715 80.9103C41.5434 80.9783 68.2639 88.1174 102.735 100.288C115.246 104.639 126.124 108.787 135.711 112.39C153.185 118.985 166.987 124.221 181.197 127.688C186.568 128.98 192.62 130.408 198.943 131.904C219 136.595 241.709 141.898 263.126 148.358C291.411 156.924 323.843 166.715 324.115 166.783Z" fill="url(#paint3_linear_1_2579)"/>
<path d="M333.021 155.972L333.293 154.952C332.886 154.816 290.799 142.509 272.917 137.818C254.56 133.059 244.361 131.699 230.899 132.175C204.926 133.195 190.512 127.687 179.974 123.676C177.934 122.86 175.962 122.112 174.058 121.5C164.199 118.101 155.225 113.069 145.774 107.766C137.003 102.803 127.008 97.1593 114.838 92.1279C95.3245 84.105 54.3939 72.6825 53.9859 72.6145L53.7139 73.5664C54.1218 73.7024 94.9845 85.0569 114.43 93.0798C126.532 98.1112 136.051 103.482 145.298 108.65C154.749 114.021 163.723 119.052 173.718 122.452C175.622 123.064 177.594 123.812 179.634 124.628C189.356 128.367 202.41 133.331 224.712 133.331C226.706 133.331 228.791 133.285 230.967 133.195C244.293 132.719 254.424 134.078 272.645 138.838C290.527 143.529 332.613 155.836 333.021 155.972Z" fill="url(#paint4_linear_1_2579)"/>
<path d="M66.0886 66.0878C69.0349 66.8583 71.9812 67.6516 74.9275 68.4675C77.8737 69.2833 80.82 70.1219 83.7663 70.9831C89.6135 72.7509 95.4607 74.5866 101.172 76.6944C101.897 76.921 102.622 77.1703 103.348 77.4422L105.455 78.2582C106.181 78.5755 106.906 78.8701 107.631 79.142C108.311 79.414 108.991 79.686 109.739 80.0259L111.779 80.9098C112.459 81.2724 113.161 81.6124 113.886 81.9296C115.246 82.6096 116.606 83.2895 117.966 83.9694C118.646 84.3093 119.326 84.7173 119.938 85.0573C120.617 85.4652 121.297 85.8052 121.977 86.1451C123.269 86.961 124.629 87.7089 125.921 88.5248C128.504 90.0886 131.088 91.7884 133.604 93.4881C138.635 96.9557 143.462 100.695 148.29 104.435C150.67 106.339 153.117 108.242 155.565 110.078C158.013 111.914 160.596 113.614 163.18 115.245L164.2 115.857L164.676 116.197L165.152 116.469L167.123 117.625L169.163 118.713C169.526 118.894 169.866 119.075 170.183 119.257L171.203 119.801C173.922 121.229 176.71 122.52 179.566 123.744C185.209 126.124 191.124 128.028 197.175 129.252C197.923 129.455 198.671 129.523 199.419 129.727L200.575 129.863L201.119 129.999C201.3 130.045 201.504 130.067 201.731 130.067L206.286 130.679C207.827 130.815 209.346 130.951 210.842 131.087L211.453 131.155H211.997L213.153 131.223L215.465 131.359C221.584 131.631 227.771 131.427 233.891 130.951L236.202 130.747C236.928 130.702 237.676 130.634 238.446 130.543C239.987 130.362 241.528 130.181 243.069 129.999C246.061 129.659 249.121 129.252 252.18 128.912L254.424 128.64L256.668 128.368C257.076 128.368 257.461 128.345 257.824 128.3L258.979 128.232C259.727 128.164 260.475 128.164 261.223 128.164C261.631 128.164 262.016 128.164 262.379 128.164H263.535C264.305 128.164 265.053 128.186 265.778 128.232C266.549 128.232 267.32 128.254 268.09 128.3C268.861 128.345 269.631 128.39 270.402 128.436C273.439 128.662 276.453 128.98 279.445 129.387C282.482 129.841 285.496 130.385 288.487 131.019C291.479 131.699 294.403 132.379 297.394 133.195C298.12 133.376 298.845 133.558 299.57 133.739L301.814 134.351L306.233 135.575L341.725 145.161L341.86 144.55L306.505 134.691L302.086 133.467L299.842 132.855C299.117 132.628 298.369 132.424 297.598 132.243C294.675 131.495 291.683 130.747 288.691 130.067C285.7 129.433 282.686 128.866 279.649 128.368C276.566 127.914 273.507 127.597 270.47 127.416C269.699 127.37 268.929 127.325 268.158 127.28C267.388 127.234 266.617 127.189 265.846 127.144C265.076 127.144 264.305 127.121 263.535 127.076H262.379C262.016 127.076 261.631 127.076 261.223 127.076C260.475 127.144 259.659 127.144 258.911 127.144L257.756 127.28C257.393 127.28 257.008 127.302 256.6 127.348L254.288 127.552L252.044 127.824C248.985 128.164 245.925 128.572 242.933 128.912C241.392 129.093 239.874 129.274 238.378 129.455C237.607 129.546 236.837 129.614 236.066 129.659L233.823 129.863C227.703 130.339 221.584 130.543 215.533 130.271L213.221 130.135L212.066 130.067H211.522L210.978 129.999C209.436 129.863 207.918 129.727 206.422 129.591L201.867 128.98C201.686 128.98 201.504 128.957 201.323 128.912L200.711 128.844L199.623 128.64C198.875 128.504 198.127 128.368 197.379 128.232C191.396 127.008 185.617 125.104 179.974 122.724C177.186 121.568 174.398 120.277 171.679 118.849L170.659 118.373C170.342 118.192 170.024 118.01 169.707 117.829L167.667 116.673L165.696 115.585L165.22 115.245L164.744 114.973L163.724 114.361C161.14 112.798 158.625 111.098 156.177 109.262C153.729 107.426 151.349 105.523 148.902 103.619C144.074 99.8793 139.179 96.1398 134.148 92.6723C131.564 90.9725 129.048 89.2727 126.397 87.7089C125.105 86.893 123.745 86.1452 122.453 85.3973C121.773 84.9893 121.093 84.6493 120.413 84.2414C119.734 83.9014 119.054 83.4935 118.374 83.1535C117.014 82.4736 115.654 81.7937 114.226 81.1138C113.546 80.7965 112.866 80.4792 112.186 80.1619L110.079 79.21C109.331 78.87 108.651 78.5981 107.903 78.3262C107.223 78.0542 106.521 77.7595 105.795 77.4422L103.62 76.6944C102.894 76.4224 102.169 76.1505 101.444 75.8785C95.6648 73.8388 89.8174 72.003 83.9702 70.3032C81.0239 69.442 78.0776 68.6034 75.1313 67.7875C72.185 66.9717 69.2162 66.2011 66.2246 65.4758L66.0886 66.0878Z" fill="url(#paint5_linear_1_2579)"/>
<path d="M349.678 135.506L350.086 134.351C349.746 134.283 319.354 124.356 301.609 122.316C278.288 119.596 265.845 122.996 252.723 126.6C250.344 127.28 247.896 127.959 245.38 128.571L245.652 129.727C248.236 129.115 250.615 128.435 252.995 127.755C266.049 124.22 278.356 120.82 301.473 123.472C319.082 125.512 349.406 135.37 349.678 135.506Z" fill="url(#paint6_linear_1_2579)"/>
<path d="M186.976 126.259L187.18 125.783C187.044 125.715 171.066 118.236 155.496 101.782C140.13 85.6005 131.699 76.6937 114.294 70.2345C97.3637 63.9793 77.8503 58.744 77.6464 58.676L77.5103 59.22C77.7142 59.22 97.2277 64.4552 114.09 70.7104C131.359 77.1016 139.79 86.0085 155.088 102.122C170.794 118.644 186.772 126.191 186.976 126.259Z" fill="url(#paint7_linear_1_2579)"/>
<path d="M89 52.3529C92.1956 53.1688 95.4591 54.1206 98.6547 55.0725C101.873 56.0697 105.046 57.1123 108.173 58.2002C111.346 59.288 114.497 60.4665 117.624 61.7357C120.684 62.9595 123.743 64.3193 126.735 65.7472C127.506 66.1098 128.254 66.495 128.979 66.903C129.341 67.0843 129.704 67.2883 130.067 67.5149L131.154 68.1268L131.698 68.3988L132.242 68.7388L133.33 69.4187C133.693 69.6 134.033 69.8039 134.35 70.0305C134.713 70.2572 135.075 70.5066 135.438 70.7785L136.458 71.4584C136.775 71.7304 137.092 71.9797 137.41 72.2063L137.886 72.6142L138.361 73.0222L139.313 73.8381C139.993 74.3141 140.605 74.9259 141.217 75.4698C141.852 76.0138 142.486 76.5577 143.121 77.1016L144.957 78.8014L146.792 80.5692C147.971 81.7024 149.149 82.8809 150.328 84.1048C152.64 86.4844 154.951 88.9321 157.195 91.4477C161.683 96.3431 166.034 101.442 170.657 106.338C172.969 108.785 175.349 111.165 177.864 113.477C180.312 115.721 182.896 117.896 185.615 119.936C188.403 121.908 191.191 123.744 194.182 125.307C197.174 126.939 200.301 128.231 203.565 129.251C206.829 130.203 210.16 130.883 213.492 131.155C216.891 131.427 220.223 131.427 223.622 131.155L223.554 130.679C220.223 130.815 216.891 130.747 213.56 130.407L212.948 130.339C212.767 130.293 212.562 130.248 212.336 130.203L211.112 130.067C210.704 129.999 210.296 129.931 209.888 129.795L208.664 129.591C208.256 129.5 207.848 129.41 207.44 129.319C207.033 129.228 206.625 129.138 206.217 129.047L205.061 128.639L204.449 128.503L204.177 128.435C204.041 128.39 203.928 128.344 203.837 128.299C200.709 127.279 197.65 125.919 194.726 124.355C191.803 122.792 189.015 120.888 186.363 118.984C183.644 117.012 181.128 114.837 178.612 112.593C176.165 110.349 173.853 107.97 171.541 105.522C166.918 100.695 162.498 95.6632 158.011 90.6999C153.456 85.7365 148.832 80.8412 143.801 76.3538C143.166 75.7645 142.532 75.1979 141.897 74.654C141.285 74.11 140.673 73.5661 139.993 73.0222L139.041 72.2063L138.498 71.8664L138.021 71.4584C137.704 71.1865 137.364 70.9371 137.002 70.7105L135.982 69.9626C135.619 69.6906 135.257 69.464 134.894 69.2827C134.531 69.0107 134.169 68.7841 133.806 68.6028L132.718 67.9228L132.174 67.5829L131.63 67.3109L130.542 66.699C130.18 66.4724 129.795 66.2684 129.387 66.0871C128.661 65.6792 127.913 65.2938 127.143 64.9312C121.092 62.0076 114.769 59.628 108.445 57.5202C102.054 55.3445 95.595 53.5087 89.0679 51.877L89 52.3529Z" fill="url(#paint8_linear_1_2579)"/>
<path d="M257.21 126.6C257.414 126.532 276.519 118.645 288.554 116.062C299.16 113.818 314.05 112.526 357.632 125.785L357.972 124.629C338.799 118.781 323.841 115.314 312.215 114.09C300.724 112.798 293.653 113.75 288.282 114.906C276.179 117.49 256.938 125.445 256.802 125.513L257.21 126.6Z" fill="url(#paint9_linear_1_2579)"/>
<path d="M365.452 115.653C359.605 113.681 353.69 111.981 347.706 110.485C341.723 108.99 335.672 107.63 329.553 106.678C326.516 106.179 323.456 105.794 320.374 105.522C317.246 105.25 314.187 105.114 311.059 105.182L309.903 105.25C309.495 105.25 309.11 105.273 308.747 105.318L307.524 105.386L306.368 105.522C306.005 105.567 305.62 105.613 305.212 105.658L304.056 105.794C303.308 105.93 302.56 106.134 301.812 106.27C298.753 106.95 295.761 107.834 292.838 108.854C286.99 110.893 281.279 113.341 275.636 115.721C269.925 118.1 264.213 120.344 258.298 122.044C255.374 122.928 252.383 123.608 249.391 124.152C248.621 124.288 247.85 124.424 247.08 124.56L244.836 124.832L242.524 125.103C241.776 125.103 241.028 125.172 240.28 125.172C237.198 125.308 234.139 125.217 231.102 124.9L229.946 124.764L229.402 124.696C229.221 124.65 229.039 124.605 228.858 124.56L226.614 124.22L224.37 123.744C223.962 123.676 223.623 123.54 223.215 123.472L222.127 123.132C216.212 121.568 210.568 119.12 205.265 116.129C199.894 113.069 194.93 109.466 190.171 105.59C185.48 101.647 181.06 97.3632 176.777 92.9437C174.601 90.7 172.493 88.4563 170.386 86.2126L163.994 79.4815C161.887 77.2378 159.779 74.9941 157.535 72.8184L156.719 72.0025C156.447 71.7305 156.175 71.4812 155.903 71.2546C155.359 70.7106 154.793 70.1667 154.204 69.6228L152.504 68.059C152.368 67.923 152.232 67.787 152.096 67.651L151.62 67.311L150.736 66.5632L149.852 65.8153C149.535 65.5433 149.218 65.294 148.9 65.0674L148.016 64.3875C147.677 64.1155 147.404 63.8436 147.065 63.6396L145.229 62.2798C144.912 62.0531 144.572 61.8491 144.209 61.6678L143.257 60.9879L142.305 60.376C141.943 60.1493 141.603 59.9454 141.285 59.7641C140.605 59.3561 139.925 58.9709 139.246 58.6082L137.206 57.5204C136.526 57.1804 135.846 56.8405 135.098 56.5005C132.311 55.2087 129.387 54.1208 126.463 53.1689C123.517 52.2624 120.548 51.3558 117.556 50.4493C114.61 49.5428 111.664 48.6815 108.718 47.8656C107.222 47.4577 105.726 47.0724 104.23 46.7098C102.734 46.3018 101.216 45.9392 99.6747 45.6219L99.6067 45.9619C101.102 46.2792 102.598 46.6418 104.094 47.0497C105.59 47.4577 107.086 47.8883 108.582 48.3416C111.528 49.2028 114.474 50.0866 117.42 50.9932C120.367 51.9451 123.313 52.897 126.259 53.8489C129.115 54.8007 132.039 55.8886 134.758 57.2484C136.186 57.8603 137.478 58.6082 138.838 59.3561C139.518 59.7187 140.198 60.104 140.877 60.5119C141.195 60.6932 141.512 60.8972 141.829 61.1239L142.781 61.7358L143.733 62.3477C144.05 62.5744 144.368 62.801 144.685 63.0277L146.521 64.3875C146.861 64.5915 147.133 64.8634 147.473 65.0674L148.356 65.8153C148.674 66.0419 148.968 66.2685 149.24 66.4952L150.124 67.2431L151.008 67.991L151.416 68.399C151.552 68.535 151.711 68.6709 151.892 68.8069L153.592 70.3027C154.136 70.8466 154.68 71.3905 155.223 71.9345C155.495 72.2064 155.767 72.4784 156.039 72.7503L156.855 73.5663C159.031 75.742 161.139 77.9857 163.246 80.2294L169.57 87.0285C171.677 89.2722 173.785 91.5159 175.893 93.7596C180.176 98.179 184.664 102.531 189.423 106.474C194.182 110.485 199.214 114.157 204.585 117.217C207.305 118.758 210.092 120.14 212.948 121.364C215.849 122.542 218.795 123.562 221.787 124.424L222.943 124.696C223.283 124.764 223.69 124.9 224.03 124.968L226.342 125.443L228.654 125.851C228.835 125.897 229.017 125.919 229.198 125.919L229.81 125.987L230.966 126.123C234.093 126.486 237.198 126.599 240.28 126.463C241.096 126.395 241.844 126.395 242.66 126.327L244.972 126.123L247.284 125.783C248.054 125.647 248.825 125.511 249.595 125.375C252.655 124.832 255.646 124.084 258.638 123.2C264.621 121.432 270.332 119.188 276.044 116.809L284.611 113.205C287.466 112.049 290.322 110.893 293.178 109.874C296.101 108.854 299.025 107.902 302.016 107.222L303.104 107.018C303.512 106.882 303.852 106.882 304.26 106.814L305.348 106.61C305.756 106.565 306.141 106.519 306.504 106.474L307.659 106.338L308.815 106.202C309.178 106.202 309.541 106.179 309.903 106.134H311.059C314.119 105.998 317.178 106.134 320.238 106.406C323.32 106.633 326.38 106.973 329.417 107.426C335.536 108.378 341.587 109.602 347.57 111.029C350.562 111.755 353.531 112.525 356.477 113.341C359.469 114.157 362.438 115.041 365.384 115.993L365.452 115.653Z" fill="url(#paint10_linear_1_2579)"/>
<path d="M372.525 106.95C366.881 105.115 361.17 103.483 355.391 102.055C352.49 101.375 349.589 100.718 346.688 100.083C343.742 99.494 340.795 98.9501 337.849 98.4515C332.002 97.5676 326.019 96.8876 320.036 96.8876C317.044 96.8197 314.052 96.9557 311.061 97.3636C309.61 97.5449 308.137 97.7942 306.641 98.1115C305.191 98.3835 303.74 98.7234 302.29 99.1314C299.366 99.8113 296.511 100.695 293.723 101.579C290.867 102.463 288.012 103.415 285.224 104.367C279.581 106.27 273.938 108.106 268.158 109.262C265.303 109.874 262.379 110.282 259.455 110.554C256.509 110.781 253.563 110.803 250.617 110.622C247.693 110.486 244.769 110.078 241.914 109.534C241.506 109.466 241.166 109.398 240.826 109.33L239.738 109.058L237.562 108.582C236.814 108.378 236.135 108.242 235.387 108.038L233.279 107.426C227.568 105.862 221.992 103.823 216.689 101.307C211.386 98.7914 206.286 95.7318 201.459 92.3323C196.632 88.8647 192.076 85.0572 187.589 81.1817C183.101 77.3742 178.682 73.4308 174.195 69.4873C171.974 67.4929 169.707 65.5438 167.396 63.6401L165.696 62.2122L164.812 61.5323L163.928 60.8524C163.339 60.3991 162.749 59.9458 162.16 59.4925L160.392 58.1327C160.075 57.9061 159.758 57.6794 159.44 57.4528L158.557 56.8409L157.605 56.161C157.333 55.9797 157.038 55.7757 156.721 55.5491L155.769 54.9372C155.452 54.7558 155.134 54.5745 154.817 54.3932L152.913 53.2374C152.233 52.8294 151.553 52.4895 150.942 52.1495C150.262 51.7416 149.582 51.4696 148.902 51.1297L147.882 50.6537C147.519 50.5177 147.179 50.3817 146.862 50.2458L145.774 49.7699L145.298 49.5658L144.754 49.4299C141.967 48.342 139.111 47.4581 136.323 46.5062C133.468 45.6224 130.612 44.7385 127.757 43.8546C122.091 42.1775 116.38 40.5684 110.623 39.0272L110.487 39.5032C113.342 40.3191 116.198 41.1576 119.054 42.0188C121.909 42.8347 124.742 43.696 127.553 44.6025C130.408 45.4864 133.196 46.3703 136.052 47.3222C138.839 48.2741 141.627 49.2259 144.414 50.2458L144.958 50.4498L145.434 50.6537L146.454 51.1297C146.817 51.2657 147.157 51.4016 147.474 51.5376L148.494 52.0135C149.174 52.3535 149.786 52.6254 150.466 53.0334C151.078 53.3733 151.757 53.7133 152.369 54.0532L154.273 55.2091C154.59 55.3904 154.908 55.5944 155.225 55.8211L156.109 56.4329C156.426 56.6142 156.743 56.8182 157.061 57.0449L157.945 57.6568L158.829 58.3367C159.146 58.5634 159.463 58.7673 159.78 58.9487L161.548 60.3085C162.137 60.7617 162.704 61.215 163.248 61.6683L164.132 62.4162L165.016 63.0961L166.716 64.5239C168.982 66.4276 171.226 68.3767 173.447 70.3711L180.042 76.2864C182.263 78.2808 184.507 80.2299 186.773 82.1336C191.26 86.0771 195.816 89.8846 200.711 93.3521L201.187 93.6921L201.595 94.032L202.547 94.644C203.136 95.0519 203.748 95.4826 204.383 95.9358L206.286 97.0916C206.898 97.4996 207.578 97.9076 208.19 98.3155L210.162 99.4034C210.434 99.6073 210.774 99.8113 211.114 99.9472L212.134 100.491L214.105 101.511C214.423 101.692 214.763 101.874 215.125 102.055L216.077 102.531C221.516 105.115 227.16 107.154 232.871 108.786C234.367 109.126 235.795 109.602 237.222 109.874L239.398 110.35L240.554 110.622C240.894 110.69 241.234 110.758 241.642 110.826C244.565 111.438 247.557 111.846 250.549 111.982C253.54 112.163 256.532 112.118 259.523 111.846C262.515 111.619 265.484 111.189 268.43 110.554C274.277 109.33 279.989 107.494 285.632 105.591C291.275 103.687 296.85 101.715 302.562 100.219C304.012 99.8566 305.463 99.5166 306.913 99.1994C308.364 98.8821 309.814 98.6328 311.265 98.4515C314.12 98.0435 317.112 97.9075 320.036 97.9075C325.951 97.9075 331.866 98.5195 337.713 99.4034C340.66 99.8566 343.583 100.355 346.484 100.899C349.385 101.488 352.286 102.123 355.187 102.803C358.088 103.483 360.966 104.208 363.822 104.979C366.677 105.749 369.533 106.588 372.389 107.494L372.525 106.95Z" fill="url(#paint11_linear_1_2579)"/>
<path d="M120.344 33.5873C123.109 34.2219 125.874 34.9018 128.639 35.627C130.044 35.9896 131.427 36.375 132.787 36.7829L134.894 37.3268L135.914 37.5988L136.934 37.9387C142.441 39.5025 147.949 41.2023 153.32 43.174C153.932 43.446 154.612 43.718 155.292 43.922L157.263 44.6699L159.303 45.5537C159.915 45.8257 160.595 46.0297 161.207 46.3696C162.567 46.9816 163.859 47.5254 165.082 48.2054C166.352 48.8399 167.598 49.5199 168.822 50.2451C171.338 51.6729 173.717 53.1688 176.097 54.8005C178.499 56.387 180.879 57.9961 183.236 59.6279C192.619 66.155 202.002 72.8181 211.996 78.4614C214.512 79.8892 217.028 81.2491 219.611 82.4729C222.195 83.7647 224.847 84.9885 227.566 86.0084C228.178 86.2804 228.858 86.5524 229.538 86.7564C230.218 87.0283 230.898 87.3003 231.578 87.5043C232.258 87.7309 232.96 87.9575 233.686 88.1842L235.725 88.7961C236.088 88.8868 236.428 88.9773 236.745 89.068L237.833 89.34L239.873 89.9519C240.598 90.1332 241.301 90.2918 241.98 90.4278L244.088 90.9718C244.451 91.0624 244.791 91.1531 245.108 91.2438L246.196 91.4477L248.304 91.9237C248.984 92.0597 249.686 92.1956 250.411 92.3316L252.519 92.7395L253.063 92.8075L253.607 92.8756L254.627 93.0795L256.803 93.4195C257.528 93.5101 258.23 93.6008 258.91 93.6914L259.998 93.8274C260.361 93.8727 260.723 93.8954 261.086 93.8954C266.797 94.5074 272.576 94.6433 278.356 94.1673C284.135 93.7594 289.778 92.8076 295.421 91.5157C300.997 90.2919 306.572 89 312.215 88.3881C317.927 87.7082 323.638 87.7082 329.281 88.1842C330.731 88.2748 332.159 88.4108 333.564 88.5921L334.652 88.6601L335.672 88.7961L337.848 89.1361L339.956 89.408C340.137 89.408 340.318 89.4307 340.499 89.476L340.975 89.544L342.063 89.7479L346.279 90.4959L346.823 90.5639L347.367 90.6998L348.387 90.9038L350.494 91.3117L352.602 91.7197L353.69 91.9237C354.007 92.0143 354.347 92.105 354.71 92.1957L358.925 93.0795C360.285 93.4195 361.713 93.7594 363.073 94.0994L367.22 95.1192L369.328 95.6632C369.69 95.7538 370.03 95.8445 370.348 95.9352L371.435 96.2071L379.73 98.3828L379.798 98.0429L371.504 95.7312L370.484 95.3912C370.166 95.3006 369.826 95.2099 369.464 95.1192L367.356 94.5753L363.209 93.4874C361.849 93.1475 360.421 92.8075 359.061 92.4676L354.846 91.5157C354.528 91.4251 354.188 91.3344 353.826 91.2438L352.738 91.0398L350.63 90.5639L348.522 90.0879L347.503 89.8839L346.959 89.816L346.415 89.6799L342.199 88.9321L341.112 88.728L340.635 88.6601C340.454 88.6147 340.273 88.5921 340.092 88.5921L337.916 88.2521L335.808 87.9122L334.72 87.7762L333.7 87.6402C332.25 87.5042 330.822 87.3683 329.417 87.2323C323.638 86.7563 317.858 86.6883 312.147 87.3002C309.292 87.6402 306.436 88.0482 303.58 88.5921C302.9 88.7961 302.153 88.864 301.473 89.068L299.365 89.476C297.96 89.7933 296.555 90.1105 295.149 90.4278C289.574 91.6517 283.931 92.5356 278.288 92.9435C272.576 93.3515 266.865 93.2835 261.222 92.6716C260.859 92.6262 260.497 92.5809 260.134 92.5356L259.114 92.3996C258.389 92.3089 257.664 92.2183 256.938 92.1276L254.831 91.7876L253.811 91.6517L253.267 91.5837L252.723 91.4477L250.615 91.0398C249.935 90.9491 249.255 90.8131 248.576 90.6318L246.468 90.2239L245.38 89.9519C245.063 89.8613 244.723 89.7932 244.36 89.7479L242.32 89.204C241.595 89.0681 240.893 88.8867 240.213 88.6601L238.173 88.1162L237.085 87.8442C236.768 87.7536 236.428 87.6629 236.065 87.5722L234.026 86.9603C233.346 86.7337 232.666 86.507 231.986 86.2804C231.306 86.0764 230.694 85.8724 230.014 85.6005C229.334 85.3285 228.654 85.1246 227.974 84.8526C225.323 83.8327 222.739 82.6089 220.155 81.3851C217.64 80.1612 215.124 78.8014 212.608 77.3736C210.093 76.0137 207.645 74.5179 205.265 73.0221C202.818 71.5263 200.415 69.9852 198.058 68.3988C195.656 66.8123 193.276 65.2031 190.919 63.5713L183.848 58.744C181.446 57.1122 179.043 55.5031 176.641 53.9166C174.261 52.3528 171.814 50.857 169.298 49.4292C168.074 48.704 166.805 48.0241 165.49 47.3895C164.199 46.7096 162.907 46.1656 161.615 45.5537C160.935 45.2817 160.255 45.0098 159.575 44.7378L157.603 43.922L155.564 43.174L154.544 42.7661C154.227 42.6301 153.909 42.5168 153.592 42.4261C148.153 40.5224 142.645 38.8226 137.138 37.3268C131.608 35.831 126.033 34.4712 120.412 33.2473L120.344 33.5873Z" fill="url(#paint12_linear_1_2579)"/>
<path d="M386.122 90.2923C380.728 88.8418 375.356 87.4367 370.008 86.0769C364.614 84.7171 359.197 83.4252 353.758 82.2014C348.319 80.9775 342.879 79.8217 337.372 78.8698L333.293 78.2579L331.185 77.9859L330.165 77.8499C329.802 77.7593 329.462 77.714 329.145 77.714C326.357 77.374 323.57 77.3061 320.782 77.2381C315.207 77.1021 309.632 77.238 304.056 77.374C298.481 77.51 292.974 77.646 287.399 77.578C284.634 77.578 281.868 77.5326 279.104 77.442C276.339 77.3513 273.574 77.1927 270.809 76.9661C268.021 76.7621 265.301 76.4901 262.514 76.0822C261.834 76.0142 261.154 75.9462 260.474 75.8102L259.454 75.6742C259.137 75.6289 258.797 75.5609 258.434 75.4702C257.754 75.3796 257.074 75.2663 256.395 75.1303L254.355 74.7223C253.675 74.5864 252.995 74.4504 252.315 74.3144C251.703 74.1104 251.023 73.9745 250.343 73.8385L248.304 73.2945L246.332 72.6826C245.652 72.5466 245.04 72.2746 244.36 72.0707L242.388 71.3908C241.096 70.9828 239.737 70.5749 238.445 70.099L234.569 68.6031L234.093 68.4672L233.618 68.2632L232.666 67.8553L230.694 67.1074L228.79 66.2914L226.886 65.4756L224.983 64.5916C224.371 64.3197 223.759 64.0478 223.079 63.7758L219.339 61.9401C218.727 61.6681 218.116 61.3281 217.504 61.0561L215.6 60.1042C215.011 59.787 214.399 59.4696 213.764 59.1524L211.928 58.2005C210.705 57.566 209.481 56.9087 208.257 56.2288C203.361 53.6451 198.534 50.8575 193.639 48.2058C188.743 45.6221 183.78 43.0385 178.613 40.8628C177.389 40.3189 176.029 39.8429 174.737 39.367C173.445 38.823 172.086 38.4151 170.794 38.0071C168.165 37.1006 165.513 36.2394 162.839 35.4235C157.535 33.8597 152.164 32.3639 146.725 31.0041C144.051 30.3242 141.354 29.6669 138.634 29.0323C135.96 28.3978 133.263 27.7858 130.543 27.1965L130.407 27.6045C133.127 28.1938 135.846 28.8283 138.566 29.5082C141.24 30.1882 143.915 30.8907 146.589 31.616C151.96 33.0438 157.332 34.5396 162.635 36.2394C165.264 37.0553 167.893 37.8938 170.522 38.755C171.814 39.231 173.173 39.639 174.465 40.1829C175.689 40.6588 177.049 41.1347 178.273 41.7466C183.372 43.9224 188.267 46.4381 193.163 49.1577L196.766 51.1295L200.438 53.1692L204.109 55.2089C205.288 55.8888 206.489 56.5461 207.713 57.1807C208.937 57.8606 210.183 58.5178 211.452 59.1524L213.288 60.1722C213.878 60.4895 214.489 60.8068 215.124 61.1241L216.96 62.076C217.64 62.348 218.252 62.688 218.863 62.9599L222.603 64.7957C223.283 65.0676 223.895 65.3395 224.507 65.6115L226.41 66.4954L228.382 67.3113L230.286 68.1272L232.19 68.9431L233.21 69.351L233.686 69.4871L234.161 69.691L238.105 71.1868C239.397 71.6628 240.689 72.0707 242.048 72.5467L244.02 73.2266C244.7 73.4305 245.312 73.6345 245.992 73.8385L248.032 74.4504L250.071 74.9943C250.683 75.1303 251.431 75.2663 252.111 75.4702C252.791 75.6062 253.471 75.7423 254.151 75.8782L256.191 76.2862C256.87 76.4221 257.55 76.5355 258.23 76.6261C258.593 76.7168 258.933 76.7847 259.25 76.83L260.338 76.9661C261.018 77.1021 261.698 77.1701 262.378 77.2381C265.165 77.646 267.953 77.9179 270.741 78.1219C273.506 78.3032 276.271 78.4619 279.036 78.5979C281.846 78.6885 284.634 78.7338 287.399 78.7338C292.974 78.7338 298.549 78.5978 304.124 78.4618C309.632 78.3259 315.207 78.1219 320.714 78.1899C323.502 78.2579 326.289 78.3259 329.009 78.5979C329.372 78.6432 329.712 78.6885 330.029 78.7338L331.049 78.8698L333.156 79.1418L337.236 79.7537C342.743 80.7056 348.183 81.7934 353.622 82.9492C364.432 85.2609 375.243 87.9126 385.986 90.7002L386.122 90.2923Z" fill="url(#paint13_linear_1_2579)"/>
<path d="M139.926 21.9615C150.532 24.3412 161.071 26.8569 171.541 29.6445C176.845 31.0724 182.08 32.5002 187.247 34.1319C187.882 34.3133 188.517 34.5172 189.151 34.7439L191.123 35.3557L192.075 35.6957L193.027 36.0356L194.93 36.7156L195.882 37.0555L196.834 37.3955L198.738 38.1434C199.372 38.3701 200.007 38.6194 200.642 38.8913L202.545 39.7072C207.509 41.8149 212.404 44.1946 217.299 46.4383C222.263 48.75 227.226 50.9257 232.326 52.8975C237.425 54.8012 242.66 56.501 247.895 57.9968L251.839 59.0847C252.156 59.1753 252.474 59.266 252.791 59.3566L253.811 59.5606L255.783 60.1045L257.754 60.5805C258.434 60.7165 259.114 60.8525 259.794 60.9884L263.737 61.8723C269.109 62.9601 274.48 63.844 279.919 64.5239C285.291 65.2039 290.73 65.6798 296.169 66.0198C301.608 66.3597 307.048 66.5637 312.419 66.9036L314.459 67.0397L316.498 67.2436L318.538 67.3796L320.51 67.5835L322.55 67.8555L324.589 68.1275C325.269 68.2182 325.927 68.3088 326.561 68.3995L328.601 68.7394C329.235 68.8754 329.893 68.9887 330.573 69.0794L332.544 69.4873L334.584 69.8953L336.556 70.3032C339.23 70.8924 341.882 71.4817 344.511 72.0709C349.814 73.2268 355.117 74.3827 360.421 75.6065C371.027 78.0542 381.634 80.5699 392.173 83.0855L392.309 82.7456C387.005 81.3858 381.725 80.0712 376.467 78.8021C371.163 77.4876 365.883 76.1958 360.625 74.9266C355.321 73.6574 350.018 72.4336 344.715 71.2551C342.04 70.6658 339.389 70.0766 336.76 69.4873L334.788 69.0794L332.748 68.6034L330.777 68.1955C330.097 68.1048 329.417 67.9915 328.737 67.8555C323.366 66.8357 317.926 66.2917 312.487 65.9517C307.048 65.5438 301.677 65.3398 296.237 64.9319C290.798 64.5919 285.427 64.184 279.987 63.5041C274.616 62.8242 269.313 61.8723 264.009 60.8524L259.998 59.9686C259.363 59.7873 258.706 59.6286 258.026 59.4926L256.054 59.0167L254.083 58.5408L253.063 58.2688C252.746 58.1781 252.428 58.0875 252.111 57.9968L248.167 56.9769C242.932 55.4811 237.833 53.7814 232.733 51.8776C227.634 49.9739 222.671 47.7981 217.775 45.5544C212.812 43.2427 207.917 40.8631 202.885 38.8233L200.982 38.0074C200.347 37.7354 199.712 37.4862 199.078 37.2595L197.174 36.5796L196.222 36.1717L195.27 35.8317L193.299 35.1518L192.347 34.8798L191.395 34.5399L189.423 33.9279C188.789 33.7013 188.154 33.4973 187.519 33.316C182.284 31.6842 177.049 30.3244 171.745 28.8966C166.487 27.5821 161.207 26.3129 155.903 25.0891C150.6 23.8653 145.297 22.6868 139.994 21.5536L139.926 21.9615Z" fill="url(#paint14_linear_1_2579)"/>
<path d="M398.43 75.1991C377.76 69.8958 356.955 64.7964 336.082 60.241C333.453 59.6518 330.846 59.0852 328.263 58.5412L324.319 57.7253L322.348 57.3174L320.376 56.9774L316.432 56.1615C315.118 55.9349 313.803 55.7083 312.489 55.4816L310.517 55.1417L308.545 54.8017L304.602 54.1898C299.299 53.2832 294.018 52.3767 288.76 51.4701C283.525 50.5183 278.289 49.5664 273.054 48.4785L269.11 47.6627L265.235 46.8467L261.292 45.9629L257.416 45.011L253.541 43.9911L251.637 43.5151C251.002 43.3338 250.345 43.1526 249.665 42.9713C247.149 42.2234 244.566 41.4075 242.05 40.5916C236.973 38.9145 231.874 37.2826 226.752 35.6962C221.653 34.1324 216.553 32.5686 211.386 31.1408C206.287 29.645 201.119 28.2172 195.952 26.9254C190.717 25.5655 185.55 24.4777 180.314 23.2538L164.676 19.7182L149.038 16.1827L148.97 16.5227L164.54 20.1942L180.178 23.9337C185.345 25.1576 190.581 26.3134 195.748 27.6733C200.915 29.0331 206.015 30.4608 211.182 31.9566C221.381 34.9483 231.579 38.1438 241.778 41.4754C244.294 42.3593 246.877 43.1752 249.393 43.9231C250.073 44.1045 250.73 44.2857 251.365 44.467L253.269 45.011L257.144 45.9629L261.087 46.9147C262.402 47.232 263.694 47.5493 264.963 47.8666L268.906 48.6825L272.85 49.4984C278.085 50.5183 283.321 51.4702 288.624 52.422C293.882 53.3286 299.14 54.2124 304.398 55.0736L308.409 55.7535L310.381 56.0935L312.353 56.4334C313.667 56.6601 314.982 56.8867 316.296 57.1134L320.172 57.8613L322.144 58.2013L324.115 58.6092L328.059 59.4251C330.688 59.9237 333.294 60.4676 335.878 61.0569C346.348 63.2326 356.751 65.6123 367.154 68.06C377.556 70.4397 387.959 72.9553 398.362 75.471L398.43 75.1991Z" fill="url(#paint15_linear_1_2579)"/>
<path d="M404.479 68.1956L404.683 67.3798C403.731 67.1758 311.263 47.0504 268.429 36.9877C219.543 25.4972 159.167 10.4712 158.555 10.2672L158.351 11.151C158.963 11.287 219.339 26.3131 268.225 37.8036C311.059 47.8663 403.527 67.9916 404.479 68.1956Z" fill="url(#paint16_linear_1_2579)"/>
<path d="M410.055 61.2608L410.259 60.5128L167.191 5.16809L167.055 5.91598L410.055 61.2608Z" fill="url(#paint17_linear_1_2579)"/>
<path d="M273.188 195.543L398.564 50.2461L398.224 49.9061L272.78 195.203L273.188 195.543Z" fill="url(#paint18_linear_1_2579)"/>
<path d="M251.567 188.336L381.635 46.5065L381.227 46.1665L251.228 187.996L251.567 188.336Z" fill="url(#paint19_linear_1_2579)"/>
<path d="M230.354 181.333L263.33 147.609C271.557 139.178 279.172 132.719 286.447 126.532C293.858 120.277 300.861 114.293 308.272 106.678C316.363 98.3154 320.306 92.9441 324.114 87.7088C327.445 83.2214 330.573 79.006 336.012 73.2267C348.115 60.5124 365.452 43.1747 365.588 42.9707L365.248 42.6307C365.044 42.8347 347.707 60.1724 335.672 72.8868C330.165 78.666 327.037 82.9495 323.706 87.4369C319.898 92.6042 315.955 97.9755 307.932 106.27C300.521 113.953 293.518 119.869 286.175 126.124C278.832 132.379 271.217 138.77 262.99 147.269L229.946 180.993L230.354 181.333Z" fill="url(#paint20_linear_1_2579)"/>
<path d="M348.251 38.8921C345.259 41.6797 342.268 44.5354 339.412 47.391C338.687 48.0709 337.962 48.7734 337.236 49.4987L336.149 50.5865L335.061 51.6744C334.335 52.3996 333.633 53.1475 332.953 53.9181C332.228 54.6433 331.525 55.3686 330.845 56.0938L328.737 58.3375L326.698 60.6492C326.335 61.0119 325.995 61.3971 325.678 61.8051L324.658 62.961C323.978 63.7089 323.366 64.5248 322.686 65.3406C322.369 65.7033 322.052 66.0885 321.734 66.4965L320.782 67.7203L319.831 68.9441L318.947 70.236L318.539 70.8479C318.357 71.0746 318.199 71.2785 318.063 71.4598C317.791 71.9131 317.519 72.3437 317.247 72.7516C316.703 73.6582 316.159 74.5421 315.615 75.4033C313.508 78.8708 311.468 82.4064 309.292 85.8739C308.25 87.5964 307.162 89.2962 306.028 90.9733C304.895 92.6957 303.739 94.3728 302.561 96.0046C300.113 99.3362 297.598 102.464 294.946 105.523C293.586 107.019 292.158 108.515 290.662 109.875C289.212 111.28 287.671 112.617 286.039 113.886L284.815 114.77L283.591 115.654C283.183 115.994 282.776 116.266 282.3 116.538C281.892 116.81 281.484 117.082 281.008 117.354L278.424 118.918C277.54 119.462 276.656 119.937 275.772 120.481C274.889 121.025 274.005 121.501 273.121 121.977C272.214 122.476 271.33 122.974 270.469 123.473C268.656 124.425 266.843 125.377 265.03 126.329C264.146 126.805 263.194 127.281 262.31 127.756C261.857 127.983 261.404 128.232 260.95 128.504L259.659 129.252C259.205 129.479 258.775 129.728 258.367 130C257.913 130.272 257.46 130.544 257.007 130.816L255.783 131.7C255.556 131.836 255.33 131.972 255.103 132.108L254.491 132.584C251.16 134.895 248.032 137.615 245.04 140.335L242.729 142.375L240.553 144.482L236.066 148.698C233.119 151.508 230.173 154.341 227.227 157.197C221.334 162.863 215.487 168.551 209.685 174.262L209.957 174.534C221.515 163.044 233.21 151.621 245.176 140.471C248.168 137.751 251.296 135.099 254.627 132.788L255.239 132.312C255.466 132.176 255.692 132.04 255.919 131.904L257.211 131.088C257.619 130.816 258.049 130.544 258.503 130.272C258.911 130 259.341 129.751 259.794 129.524L261.154 128.708C261.562 128.482 261.993 128.255 262.446 128.028C263.33 127.552 264.282 127.077 265.166 126.601C266.979 125.649 268.792 124.697 270.605 123.745C271.512 123.246 272.418 122.77 273.325 122.317C274.209 121.773 275.093 121.297 275.976 120.753C276.86 120.277 277.744 119.801 278.628 119.258L281.212 117.626C282.979 116.606 284.679 115.45 286.311 114.226C289.575 111.779 292.702 109.059 295.49 106.067C298.345 103.144 300.929 99.9481 303.377 96.6166C304.555 94.9394 305.711 93.2623 306.844 91.5852C307.977 89.8628 309.088 88.1176 310.176 86.3498C312.284 82.8823 314.323 79.3468 316.431 75.8793C316.975 75.0181 317.519 74.1568 318.063 73.2956C318.335 72.8423 318.607 72.4117 318.879 72.0037C319.015 71.7771 319.151 71.5505 319.287 71.3238L319.695 70.7119L320.578 69.4881L321.462 68.2642L322.414 67.0404C322.732 66.6325 323.049 66.2471 323.366 65.8845C323.978 65.0686 324.658 64.2527 325.27 63.5048L326.29 62.349C326.607 61.9411 326.947 61.5557 327.31 61.1931L329.281 58.8815L331.389 56.6378C332.749 55.1419 334.131 53.6462 335.537 52.1504L336.624 51.0625L337.644 49.9746C338.37 49.2494 339.095 48.5241 339.82 47.7989C341.225 46.3484 342.653 44.8979 344.103 43.4475C345.554 41.997 347.027 40.5692 348.523 39.1641L348.251 38.8921Z" fill="url(#paint21_linear_1_2579)"/>
<path d="M189.628 167.802L208.87 151.28L218.456 143.053L223.284 138.974L225.664 136.934C225.89 136.753 226.094 136.572 226.275 136.39L226.887 135.914L227.227 135.711C227.318 135.62 227.409 135.529 227.499 135.439L228.179 135.031C229.879 133.875 231.783 132.923 233.687 132.107C235.59 131.291 237.562 130.611 239.602 129.999C243.613 128.775 247.693 127.823 251.772 126.736C255.852 125.648 259.931 124.492 263.943 122.996C267.886 121.5 271.762 119.665 275.297 117.149C276.997 115.925 278.629 114.565 280.192 113.069C281.688 111.506 283.048 109.942 284.34 108.242C285.7 106.542 286.856 104.775 287.943 102.939C288.215 102.463 288.487 102.055 288.759 101.579L289.575 100.219C289.847 99.7205 290.096 99.2446 290.323 98.7913L290.731 98.1114L291.071 97.3635L291.819 96.0037L292.499 94.5759L292.839 93.8279L293.179 93.08L293.859 91.6522C294.72 89.7485 295.558 87.8221 296.374 85.873C298.074 81.9975 299.706 78.122 301.474 74.3145C301.927 73.3626 302.38 72.4108 302.834 71.4589C303.06 70.9603 303.287 70.4843 303.513 70.031L304.261 68.6032L304.601 67.9233L304.941 67.2434L305.689 65.8836L306.505 64.5238C306.732 64.0252 307.004 63.5719 307.321 63.1639L308.137 61.8041C308.409 61.3282 308.681 60.9202 309.021 60.5123C309.565 59.6284 310.177 58.8125 310.788 57.9287C312.148 56.2969 313.508 54.7331 314.936 53.2373C320.783 47.1181 326.97 41.4068 333.294 35.8316L333.022 35.5596C329.758 38.2112 326.63 40.9988 323.503 43.8545C320.375 46.7101 317.316 49.6337 314.392 52.6933C312.896 54.1891 311.468 55.7529 310.109 57.3847C309.497 58.2686 308.817 59.0845 308.205 59.9684C307.933 60.4443 307.661 60.8523 307.321 61.3282L306.505 62.6201C306.188 63.0733 305.916 63.5266 305.689 63.9799L304.873 65.4077L304.125 66.7675L303.717 67.4474L303.377 68.1953L302.63 69.5551C302.403 70.0537 302.176 70.5296 301.95 70.9829C301.451 71.9348 300.975 72.9094 300.522 73.9066C298.754 77.7141 297.122 81.5896 295.422 85.4651C294.561 87.3688 293.7 89.2952 292.839 91.2443L292.159 92.6721L291.819 93.352L291.479 94.0999L290.799 95.4597L290.119 96.8875L289.711 97.5674L289.371 98.2473C289.099 98.7459 288.85 99.2219 288.623 99.6752L287.807 101.035C287.603 101.511 287.264 101.919 286.992 102.395C285.904 104.163 284.748 105.93 283.524 107.562C281.008 110.894 278.085 113.885 274.685 116.333C271.286 118.713 267.478 120.548 263.535 122.044C259.659 123.54 255.58 124.696 251.5 125.716L245.381 127.348C243.341 127.891 241.301 128.435 239.33 129.115C237.29 129.727 235.25 130.407 233.347 131.291C231.375 132.107 229.471 133.127 227.703 134.283L227.023 134.759C226.933 134.849 226.819 134.94 226.683 135.031L226.411 135.235L225.732 135.778C225.55 135.914 225.346 136.073 225.12 136.254L222.74 138.362L217.981 142.442C214.762 145.207 211.567 147.994 208.394 150.804C202.048 156.334 195.725 161.887 189.424 167.462L189.628 167.802Z" fill="url(#paint22_linear_1_2579)"/>
<path d="M263.127 121.364C263.943 120.593 264.713 119.8 265.439 118.984C265.847 118.576 266.232 118.168 266.594 117.76C266.957 117.307 267.32 116.876 267.682 116.468C269.11 114.769 270.402 112.933 271.626 111.097C272.85 109.193 273.938 107.29 274.821 105.182L275.501 103.686C275.705 103.142 275.909 102.666 276.113 102.122C276.521 101.08 276.929 100.06 277.337 99.0628C278.901 94.9153 280.329 90.6999 281.824 86.5524C283.32 82.4049 284.816 78.2575 286.448 74.1781C287.196 72.0703 288.012 70.0305 288.896 67.9908L289.507 66.495L290.187 64.9993C290.595 63.9794 291.139 62.9595 291.615 62.0076C291.842 61.509 292.091 61.0331 292.363 60.5798L292.771 59.8319C292.907 59.6052 293.043 59.3559 293.179 59.084L293.995 57.7242C294.267 57.2256 294.562 56.7496 294.879 56.2964L295.287 55.6164C295.468 55.3898 295.627 55.1632 295.763 54.9365L296.715 53.5767C297.032 53.1234 297.349 52.6702 297.666 52.2169C297.984 51.7636 298.324 51.333 298.686 50.925C304.058 43.9899 310.381 37.7347 317.316 32.2955L317.112 32.0236C316.228 32.7035 315.344 33.3153 314.46 33.9952C314.007 34.3579 313.576 34.7205 313.168 35.0832L311.877 36.103C310.177 37.5308 308.545 39.0266 306.913 40.5904C306.165 41.3383 305.349 42.0862 304.601 42.9021C304.194 43.3101 303.786 43.718 303.446 44.1259C303.038 44.5339 302.63 44.8739 302.29 45.3498C301.542 46.1657 300.794 46.9816 300.114 47.7975C299.752 48.2507 299.389 48.6814 299.026 49.0893L298.006 50.3812C297.644 50.8344 297.304 51.2877 296.986 51.741C296.624 52.1489 296.284 52.5795 295.967 53.0327L295.015 54.3926C294.833 54.6192 294.675 54.8458 294.539 55.0725L294.063 55.8205C293.791 56.2737 293.496 56.727 293.179 57.1803L292.295 58.6081C292.159 58.88 292.023 59.1293 291.887 59.356L291.479 60.1038C291.207 60.5571 290.935 61.033 290.663 61.5316C288.692 65.5431 286.992 69.6226 285.36 73.77C282.165 81.997 279.309 90.3599 276.249 98.5868C275.479 100.672 274.663 102.734 273.802 104.774C272.918 106.746 271.898 108.718 270.742 110.553C269.609 112.412 268.385 114.225 267.07 115.993C266.753 116.446 266.413 116.876 266.051 117.284C265.733 117.738 265.393 118.168 265.031 118.576C264.305 119.437 263.58 120.276 262.855 121.092L263.127 121.364Z" fill="url(#paint23_linear_1_2579)"/>
<path d="M301.336 28.5571C299.342 30.1889 297.393 31.866 295.489 33.5885C293.585 35.2883 291.681 37.0561 289.846 38.8239C289.392 39.2771 288.939 39.7304 288.486 40.1837C288.033 40.637 287.579 41.0902 287.126 41.5435C286.673 42.0421 286.22 42.518 285.766 42.9713L284.474 44.3991C282.775 46.3028 281.075 48.2746 279.647 50.4503L279.103 51.2662C278.922 51.5381 278.741 51.8102 278.559 52.0821C278.378 52.3541 278.219 52.6487 278.083 52.966L277.607 53.7819C276.973 54.9151 276.384 56.0709 275.84 57.2494C274.752 59.5611 273.664 61.9408 272.712 64.3205C270.74 69.0799 268.904 73.8393 267.069 78.6666C265.301 83.494 263.533 88.3213 261.697 93.0807C260.836 95.4831 259.93 97.8854 258.978 100.288C258.026 102.667 257.006 105.047 255.918 107.291C255.374 108.447 254.83 109.603 254.15 110.69L253.946 111.098L253.674 111.506L253.199 112.322L252.179 113.954C250.819 116.13 249.459 118.305 247.963 120.345C247.555 120.821 247.147 121.365 246.739 121.841L246.195 122.589L245.584 123.337C245.176 123.813 244.7 124.289 244.292 124.697L244.088 124.901L243.952 125.037L243.612 125.376C243.34 125.58 243.136 125.852 242.864 126.056L242.184 126.668C242.048 126.759 241.912 126.85 241.776 126.94L241.436 127.28L240.688 127.824L239.872 128.368C239.396 128.776 238.784 129.048 238.308 129.388C238.036 129.592 237.697 129.728 237.425 129.864L236.609 130.34L236.677 130.612C239.056 129.524 241.3 128.164 243.34 126.532C245.312 124.901 247.079 122.929 248.643 120.889C249.051 120.413 249.459 119.869 249.867 119.325C250.23 118.827 250.592 118.305 250.955 117.762C251.68 116.719 252.405 115.654 253.131 114.566L254.15 112.934L254.626 112.118L254.898 111.71L255.17 111.302C255.85 110.147 256.462 108.991 257.006 107.835C258.162 105.523 259.182 103.143 260.134 100.764C261.086 98.3841 262.037 95.9364 262.921 93.5567C264.689 88.7293 266.457 83.9019 268.225 79.0746C269.992 74.2472 271.76 69.4878 273.732 64.7285C274.684 62.3488 275.704 59.9691 276.791 57.6574C277.879 55.3457 279.035 53.1019 280.395 50.9262C281.755 48.8185 283.387 46.8468 285.086 44.9431C286.718 42.9713 288.486 41.1355 290.322 39.2998C292.089 37.464 293.925 35.6962 295.829 33.9284C297.665 32.1607 299.568 30.4609 301.54 28.7611L301.336 28.5571Z" fill="url(#paint24_linear_1_2579)"/>
<path d="M170.386 161.411L172.561 159.575L174.737 157.74C176.233 156.516 177.706 155.292 179.156 154.068L187.995 146.929C190.942 144.527 193.911 142.124 196.902 139.722C198.398 138.543 199.894 137.388 201.39 136.254C202.885 135.031 204.381 133.875 205.945 132.855C207.486 131.767 209.095 130.77 210.772 129.863C212.404 128.911 214.104 128.095 215.804 127.212C216.665 126.758 217.504 126.282 218.319 125.784C219.135 125.33 219.951 124.809 220.767 124.22C221.175 123.88 221.515 123.608 221.855 123.268L222.943 122.316L224.031 121.364L224.507 120.82L224.779 120.616L225.05 120.344C226.41 118.939 227.68 117.489 228.858 115.993L229.742 114.905C230.082 114.497 230.354 114.089 230.626 113.749L231.51 112.593C231.782 112.186 232.054 111.778 232.326 111.37C234.501 108.242 236.473 104.978 238.377 101.647C242.116 94.9837 245.38 88.1167 248.507 81.1136C250.049 77.6687 251.567 74.2011 253.063 70.7109C254.627 67.2433 256.122 63.7079 257.754 60.3083C258.162 59.4471 258.57 58.5858 258.978 57.7246L260.202 55.141C261.086 53.4412 261.97 51.7414 262.922 50.1096C263.148 49.7017 263.375 49.2937 263.602 48.8858L264.349 47.662C264.553 47.254 264.825 46.914 265.097 46.5061L265.505 45.8941L265.709 45.6222L265.913 45.3503L266.729 44.1944L266.933 43.8544L267.205 43.5825L267.613 43.0385C268.225 42.2906 268.837 41.5428 269.449 40.8629C271.896 37.9392 274.548 35.2196 277.336 32.7039C278.741 31.3894 280.191 30.1429 281.687 28.9644C283.138 27.7406 284.633 26.562 286.175 25.4288L285.903 25.0889C282.843 27.4006 279.987 29.8483 277.132 32.4319C275.727 33.7011 274.367 35.0383 273.052 36.4434C272.372 37.078 271.715 37.7579 271.081 38.4832C270.741 38.8231 270.401 39.1631 270.129 39.503C269.789 39.911 269.449 40.2509 269.177 40.5909C268.565 41.3388 267.885 42.0866 267.341 42.8345L266.865 43.3785L266.661 43.6505L266.457 43.9225L265.573 45.0783C264.485 46.6647 263.466 48.2738 262.514 49.9056C260.61 53.1692 258.842 56.5688 257.142 60.0363C253.811 66.8354 250.683 73.7706 247.42 80.6377L246.196 83.2213L244.972 85.805L243.748 88.3886L242.456 90.9043C240.779 94.3039 239.011 97.658 237.153 100.967C235.317 104.299 233.345 107.494 231.238 110.622C229.062 113.749 226.75 116.741 224.167 119.461L223.895 119.733L223.691 120.004L223.147 120.48L222.195 121.432L221.107 122.384C220.767 122.724 220.427 122.996 220.019 123.268C219.294 123.857 218.546 124.379 217.775 124.832C216.96 125.33 216.121 125.806 215.26 126.26C213.628 127.144 211.928 128.027 210.296 128.979C208.619 129.931 206.988 130.974 205.401 132.107C203.837 133.195 202.341 134.419 200.914 135.574C199.418 136.753 197.922 137.954 196.426 139.178C193.48 141.58 190.556 144.005 187.655 146.453L178.885 153.796L174.533 157.4L172.289 159.235L170.114 161.071L170.386 161.411Z" fill="url(#paint25_linear_1_2579)"/>
<path d="M151.416 155.089C153.252 153.593 155.088 151.961 157.06 150.329C168.278 140.674 181.06 129.728 193.571 128.164L193.503 127.62C180.856 129.184 168.006 140.198 156.72 149.921C154.748 151.621 152.912 153.185 151.076 154.681L151.416 155.089Z" fill="url(#paint26_linear_1_2579)"/>
<path d="M132.447 148.832L134.146 147.472C143.733 139.993 152.028 133.466 159.507 129.183C167.598 124.491 173.921 122.928 179.361 124.288L179.497 123.744C173.921 122.384 167.462 123.948 159.235 128.707C151.688 133.058 143.461 139.586 133.875 147.065L132.175 148.424L132.447 148.832Z" fill="url(#paint27_linear_1_2579)"/>
<path d="M115.653 143.189C119.098 140.47 122.543 137.795 125.988 135.166C129.456 132.515 132.923 129.863 136.459 127.279C137.32 126.645 138.204 126.01 139.11 125.376L139.79 124.9L140.47 124.424L141.082 123.948C141.309 123.812 141.535 123.676 141.762 123.54C143.598 122.316 145.502 121.364 147.541 120.548C149.513 119.8 151.621 119.256 153.797 118.916C155.904 118.645 158.08 118.509 160.188 118.577L161.819 118.645L163.451 118.713C163.995 118.781 164.539 118.848 165.083 118.916C165.627 118.984 166.171 119.052 166.715 119.12C167.735 119.256 168.823 119.392 169.91 119.664L171.474 119.936C172.018 120.072 172.562 120.208 173.106 120.276C175.282 120.616 177.525 120.82 179.769 120.752C180.313 120.752 180.857 120.684 181.401 120.684C181.945 120.616 182.557 120.548 183.101 120.412C183.645 120.344 184.189 120.276 184.733 120.14C185.276 120.004 185.82 119.868 186.364 119.732C187.407 119.415 188.449 119.03 189.492 118.577C190.534 118.169 191.532 117.693 192.483 117.149C193.435 116.605 194.387 116.016 195.339 115.381C196.246 114.746 197.13 114.112 197.991 113.477C199.759 112.117 201.458 110.69 203.09 109.194C203.906 108.469 204.699 107.743 205.47 107.018L207.917 104.706C211.045 101.624 213.969 98.3606 216.688 94.9157C219.408 91.5161 221.924 87.9125 224.303 84.173C226.683 80.5015 228.859 76.694 231.034 72.9545C233.21 69.147 235.318 65.3395 237.562 61.6C239.805 57.8605 242.117 54.1209 244.565 50.5854C247.08 46.9819 249.732 43.5144 252.52 40.2508C255.375 36.9419 258.367 33.769 261.494 30.732C263.126 29.2362 264.69 27.7404 266.322 26.3126C267.954 24.8848 269.653 23.5249 271.353 22.0971L271.149 21.8932L268.565 23.9329L267.954 24.4088L267.614 24.6808L267.274 24.9528L266.05 25.9727C264.35 27.3325 262.718 28.8283 261.086 30.3241C257.891 33.2477 254.831 36.3753 251.908 39.7068C249.007 42.9704 246.287 46.3926 243.749 49.9735C241.233 53.577 238.853 57.2486 236.542 60.9881C234.298 64.7276 232.19 68.5351 229.947 72.3426C227.771 76.0821 225.595 79.8896 223.283 83.4931C220.904 87.1646 218.388 90.7681 215.668 94.1677C212.994 97.5673 210.116 100.786 207.033 103.822L204.654 106.066C203.838 106.837 203.045 107.585 202.274 108.31C200.642 109.738 199.011 111.165 197.243 112.457C196.382 113.137 195.52 113.772 194.659 114.361C193.753 114.996 192.823 115.562 191.872 116.061C190.965 116.605 190.013 117.081 189.016 117.489C188.064 117.942 187.067 118.305 186.024 118.577C185.48 118.781 185.004 118.848 184.46 118.984C183.917 119.12 183.441 119.256 182.897 119.324C182.353 119.392 181.809 119.46 181.333 119.528C180.789 119.528 180.245 119.596 179.701 119.596C177.593 119.732 175.418 119.528 173.31 119.188C172.766 119.12 172.222 118.984 171.678 118.916L170.114 118.577C169.027 118.373 167.939 118.237 166.851 118.101C166.307 118.033 165.763 117.965 165.151 117.897C164.607 117.829 164.063 117.761 163.519 117.761L161.887 117.625H160.256C158.012 117.557 155.836 117.693 153.66 118.033C151.417 118.373 149.309 118.985 147.201 119.8C145.162 120.616 143.19 121.636 141.354 122.86C141.128 122.996 140.901 123.132 140.674 123.268L139.994 123.744L139.314 124.22L138.635 124.764C137.773 125.398 136.912 126.033 136.051 126.667C132.515 129.319 129.116 132.039 125.648 134.69C122.249 137.41 118.849 140.152 115.449 142.917L115.653 143.189Z" fill="url(#paint28_linear_1_2579)"/>
<path d="M256.939 18.7662C253.335 21.0779 249.936 23.5936 246.536 26.2453C243.205 28.8969 239.941 31.6165 236.813 34.6081C235.272 36.0586 233.776 37.5771 232.326 39.1636C230.83 40.7047 229.425 42.3138 228.11 43.9909C226.751 45.7134 225.504 47.4584 224.371 49.2262L222.603 51.8779C221.969 52.7844 221.357 53.6683 220.768 54.5295C220.156 55.4134 219.476 56.2293 218.864 57.1132L217.912 58.405C217.594 58.813 217.277 59.2209 216.96 59.6289C216.325 60.4901 215.668 61.3286 214.988 62.1445L213.016 64.6602L212.541 65.2721L211.997 65.884L210.977 67.1079C210.297 67.9238 209.617 68.7397 208.937 69.5556L206.897 72.0032L204.722 74.3829C201.934 77.5785 199.01 80.7061 196.087 83.6978C193.095 86.7574 190.036 89.7489 186.908 92.6046C186.092 93.2845 185.276 94.0324 184.528 94.7123C184.12 95.0749 183.712 95.4149 183.304 95.7321L182.08 96.752L180.857 97.7719L179.565 98.7238C179.157 99.0637 178.749 99.3357 178.341 99.6757L177.661 100.152L177.049 100.627C173.514 103.007 169.774 104.979 165.763 106.271C165.287 106.407 164.743 106.543 164.267 106.679C163.995 106.769 163.746 106.837 163.519 106.883C163.247 106.973 162.998 107.041 162.771 107.087C162.227 107.155 161.683 107.291 161.207 107.359C160.935 107.449 160.663 107.495 160.391 107.495L159.643 107.631C157.536 107.903 155.428 108.039 153.32 108.107C151.212 108.107 149.037 108.107 146.929 108.175C145.841 108.22 144.753 108.333 143.666 108.515L143.258 108.582L142.918 108.65L142.102 108.786C141.83 108.854 141.558 108.922 141.286 108.99L140.538 109.194C138.43 109.874 136.458 110.69 134.487 111.574C134.011 111.846 133.535 112.05 133.059 112.322L131.631 113.002C130.679 113.546 129.727 114.022 128.843 114.566C125.104 116.673 121.5 119.053 117.965 121.433C114.475 123.881 111.03 126.396 107.63 128.98C104.276 131.609 100.967 134.306 97.7036 137.071L97.8396 137.207C99.4713 135.892 101.148 134.578 102.871 133.263C104.548 131.949 106.225 130.657 107.902 129.388C111.347 126.849 114.837 124.379 118.373 121.977C120.141 120.798 121.908 119.642 123.676 118.509L124.356 118.101L125.036 117.693L126.464 116.877C127.348 116.333 128.231 115.789 129.183 115.246C130.135 114.702 131.087 114.226 131.971 113.75L133.399 113.002C133.875 112.798 134.351 112.594 134.827 112.322C136.798 111.506 138.77 110.69 140.742 110.078L141.49 109.874C141.762 109.806 142.034 109.738 142.306 109.67L143.054 109.534L143.461 109.466L143.801 109.398C144.844 109.262 145.887 109.172 146.929 109.126C149.037 109.058 151.212 109.126 153.32 109.058C155.496 109.058 157.672 108.99 159.779 108.65L160.595 108.582C160.867 108.537 161.139 108.492 161.411 108.446C161.887 108.378 162.431 108.242 162.975 108.107C163.247 108.061 163.519 107.993 163.791 107.903C164.018 107.857 164.267 107.812 164.539 107.767C165.083 107.563 165.627 107.427 166.103 107.291C168.188 106.611 170.182 105.795 172.086 104.843C174.058 103.891 175.893 102.735 177.661 101.511L178.341 101.103L179.021 100.627C179.429 100.288 179.837 100.016 180.313 99.6757L181.537 98.6558L182.828 97.6359L184.052 96.6161C184.46 96.2988 184.868 95.9588 185.276 95.5962C186.092 94.8483 186.908 94.1683 187.656 93.4884C190.851 90.5648 193.911 87.5732 196.903 84.5816C197.65 83.7657 198.398 83.0178 199.146 82.2699L201.322 79.8902C202.07 79.1423 202.75 78.3265 203.498 77.5786L204.586 76.3547C204.948 75.9467 205.288 75.5388 205.605 75.1308L207.781 72.7511L209.821 70.3035C210.501 69.4876 211.181 68.6717 211.861 67.8558L212.88 66.6319L213.424 66.0201L213.9 65.3402L215.872 62.8244C216.552 62.0085 217.209 61.17 217.844 60.3088C218.161 59.9008 218.478 59.4702 218.796 59.0169L219.748 57.7251C220.36 56.8412 221.039 56.0254 221.651 55.1415C222.241 54.2349 222.83 53.351 223.419 52.4898L225.187 49.7702C226.32 48.0024 227.544 46.28 228.858 44.6029C229.176 44.1949 229.493 43.7869 229.81 43.379L230.83 42.1551L231.918 40.9313C232.235 40.5234 232.575 40.1154 232.938 39.7075C234.388 38.1663 235.861 36.6479 237.357 35.1521C240.394 32.2058 243.567 29.3728 246.876 26.6532C248.508 25.2934 250.185 23.9788 251.907 22.7097C253.607 21.4178 255.307 20.126 257.075 18.9702L256.939 18.7662Z" fill="url(#paint29_linear_1_2579)"/>
<path d="M80.5026 131.496C87.3697 126.669 94.2367 121.773 101.172 117.014L106.407 113.478L108.991 111.71C109.852 111.121 110.736 110.532 111.643 109.943C112.504 109.353 113.365 108.787 114.226 108.243C115.133 107.654 116.017 107.064 116.878 106.475L118.238 105.659L119.597 104.843C119.824 104.707 120.051 104.594 120.277 104.503L120.957 104.096L121.637 103.756L121.977 103.552L122.317 103.416C126.057 101.58 130.068 100.22 134.08 99.1321C136.119 98.5882 138.159 98.0443 140.199 97.5003C142.239 96.9564 144.278 96.3445 146.25 95.6646L146.998 95.4606L147.746 95.1886L149.242 94.6447L150.737 94.1008L151.485 93.8288L152.233 93.4888L153.661 92.877L155.157 92.265C156.109 91.8571 157.061 91.3132 158.012 90.9052C161.752 89.0015 165.424 86.7577 168.891 84.31C172.359 81.9303 175.622 79.2788 178.818 76.5591L180.042 75.4712C180.449 75.1539 180.835 74.8139 181.197 74.4513L183.577 72.3436L184.121 71.7997L184.733 71.2558L185.889 70.1L186.977 69.012L187.589 68.4682L188.133 67.9242C189.56 66.4284 191.056 64.9326 192.552 63.3688L194.66 61.0571L196.835 58.7454C199.623 55.6178 202.411 52.4903 205.266 49.3627C210.842 43.0395 216.553 36.9203 222.808 31.345C229.063 25.7018 235.726 20.6024 242.661 15.775L242.457 15.5031L239.874 17.2708C238.99 17.8827 238.106 18.4267 237.222 19.1066C235.522 20.3305 233.823 21.4862 232.123 22.7781L230.899 23.73C230.446 24.0473 230.015 24.3646 229.607 24.6819L227.159 26.6536L226.548 27.1975L225.936 27.6735L224.712 28.6933L223.488 29.7132C223.08 30.0758 222.695 30.4158 222.332 30.7331C219.136 33.5207 216.077 36.4443 213.153 39.4359C210.162 42.4275 207.306 45.5552 204.45 48.6828C198.807 54.9379 193.3 61.1931 187.317 67.1083C184.325 70.0999 181.333 72.9555 178.138 75.7432C174.942 78.4628 171.679 81.0465 168.279 83.4942C164.811 85.8739 161.276 88.0496 157.537 89.9533C156.585 90.4293 155.701 90.9052 154.681 91.3132L153.253 91.9931L151.825 92.605L151.145 92.877L150.398 93.1489L148.902 93.6928L147.474 94.2368L146.726 94.5087L145.978 94.7127C141.967 96.0725 137.887 97.0924 133.876 98.2482C129.796 99.4041 125.785 100.764 121.977 102.668L121.569 102.804L121.229 103.008L120.549 103.348L119.869 103.756C119.643 103.892 119.416 104.028 119.189 104.163L117.83 104.979L116.47 105.795C115.563 106.385 114.679 106.974 113.818 107.563C112.957 108.152 112.073 108.742 111.166 109.331C107.722 111.688 104.277 114.068 100.832 116.47C93.9421 121.32 87.0977 126.238 80.2986 131.224L80.5026 131.496Z" fill="url(#paint30_linear_1_2579)"/>
<path d="M228.043 12.3749L222.943 15.9784L217.844 19.6499C214.513 22.0976 211.113 24.5453 207.781 27.0609C204.382 29.5766 201.05 32.0923 197.787 34.6759C196.971 35.2878 196.155 35.9678 195.339 36.6477C194.931 36.965 194.523 37.2823 194.115 37.5996L192.959 38.6874C192.551 39.0047 192.166 39.3447 191.803 39.7073L190.648 40.7951L188.336 42.9029C185.276 45.8265 182.285 48.7501 179.293 51.6057C176.234 54.4613 173.174 57.249 169.978 59.9687C166.851 62.6883 163.587 65.3399 160.256 67.8556C156.924 70.3033 153.524 72.683 149.921 74.7227C146.317 76.8304 142.646 78.8022 138.906 80.638C135.167 82.4737 131.359 84.1735 127.552 85.8733C123.744 87.641 119.937 89.4088 116.265 91.3805L114.838 92.1284C114.384 92.355 113.931 92.6044 113.478 92.8764C112.594 93.4203 111.642 93.8962 110.758 94.4401L108.038 96.004L105.387 97.7037C98.3156 102.191 91.3807 106.814 84.4456 111.506C77.5785 116.197 70.7113 120.957 63.8442 125.784L63.9802 125.988C70.9153 121.297 77.8504 116.605 84.7855 111.982C91.7206 107.358 98.7236 102.803 105.795 98.3836L108.446 96.7518L111.166 95.188C112.05 94.6441 113.002 94.1682 113.886 93.6243C114.339 93.3976 114.792 93.1483 115.245 92.8764L116.673 92.1965C120.345 90.2247 124.152 88.457 127.892 86.7572C131.699 84.9894 135.507 83.2896 139.314 81.4538C143.054 79.6181 146.793 77.7143 150.397 75.6066C154.068 73.4989 157.536 71.1192 160.868 68.6715C164.267 66.1558 167.463 63.4362 170.658 60.7165C173.786 57.9969 176.845 55.1413 179.905 52.2856C182.965 49.362 185.956 46.5064 188.948 43.5828L191.192 41.4071L192.347 40.3192C192.71 40.0019 193.095 39.662 193.503 39.2993L194.659 38.2795C195.067 37.9169 195.475 37.5769 195.883 37.2596C196.631 36.5797 197.447 35.8998 198.263 35.2879C201.526 32.6362 204.858 30.1206 208.189 27.6049C211.498 25.0666 214.83 22.5508 218.184 20.0578L228.179 12.5788L228.043 12.3749Z" fill="url(#paint31_linear_1_2579)"/>
<path d="M214.512 9.38306L193.843 23.5932L173.241 37.9393C171.519 39.1178 169.819 40.3417 168.142 41.6109C166.465 42.8347 164.788 44.1039 163.111 45.4184C159.847 48.002 156.516 50.5857 153.184 53.1014C149.852 55.6171 146.521 58.0647 143.053 60.3764C139.563 62.7334 136.028 64.9545 132.447 67.0396C125.172 71.255 117.693 74.9945 110.418 79.074C103.007 83.0854 95.7995 87.3688 88.9324 92.1282L87.6406 93.0121L86.9607 93.4201L86.3487 93.8961L83.7651 95.7318L78.6658 99.4033C75.2662 101.851 71.844 104.253 68.3991 106.61C64.9542 108.967 61.4866 111.302 57.9964 113.613C56.2286 114.747 54.4608 115.88 52.6931 117.013C50.9253 118.101 49.1577 119.189 47.3899 120.277L47.5258 120.549C51.1294 118.441 54.7329 116.265 58.2685 113.953C61.7587 111.732 65.2488 109.443 68.739 107.086C72.2292 104.729 75.6741 102.35 79.0737 99.9472L84.173 96.2757L86.6886 94.4399L87.3685 94.032L87.9806 93.5561L89.3404 92.6722L90.6321 91.7883L91.2442 91.3803L91.9241 90.9724L94.5757 89.2726C94.9836 88.9553 95.4141 88.6607 95.8674 88.3887L97.2272 87.5728L98.5192 86.757C98.9725 86.485 99.4257 86.213 99.879 85.941C103.483 83.8333 107.086 81.7256 110.758 79.7539C118.101 75.7424 125.58 72.0029 132.855 67.7874C140.13 63.64 147.065 58.8126 153.728 53.7132C157.059 51.1976 160.323 48.6139 163.587 46.0303C165.264 44.7158 166.918 43.4466 168.55 42.2228C170.227 40.9536 171.927 39.7298 173.649 38.5513L194.183 24.0691L214.716 9.58706L214.512 9.38306Z" fill="url(#paint32_linear_1_2579)"/>
<path d="M31.3451 115.245L78.7349 84.989C85.2621 80.8416 92.1292 76.6262 101.716 70.8469C107.835 67.1074 114.702 62.96 123.405 57.5887C139.587 47.73 148.834 41.1348 155.633 36.3074C158.421 34.3357 160.8 32.6359 163.18 31.0042C172.155 25.0889 200.983 6.86726 201.255 6.73128L200.983 6.25537C200.711 6.45934 171.815 24.6129 162.908 30.5961C160.528 32.2279 158.081 33.9277 155.293 35.8995C148.562 40.7268 139.315 47.322 123.133 57.1807C114.498 62.484 107.563 66.6994 101.444 70.3709C91.9253 76.2182 84.9902 80.3657 78.463 84.5811L31.0732 114.837L31.3451 115.245Z" fill="url(#paint33_linear_1_2579)"/>
<path d="M16.1146 110.146L187.18 3.60398L186.908 3.19604L15.8425 109.738L16.1146 110.146Z" fill="url(#paint34_linear_1_2579)"/>
<defs>
<linearGradient id="paint0_linear_1_2579" x1="1.13891e+06" y1="248558" x2="1.3938e+06" y2="248558" gradientUnits="userSpaceOnUse">
<stop stop-color="#5EDDC9"/>
<stop offset="1" stop-color="#00B1FB"/>
</linearGradient>
<linearGradient id="paint1_linear_1_2579" x1="801904" y1="128291" x2="926285" y2="128291" gradientUnits="userSpaceOnUse">
<stop stop-color="#5EDDC9"/>
<stop offset="1" stop-color="#00B1FB"/>
</linearGradient>
<linearGradient id="paint2_linear_1_2579" x1="796393" y1="122270" x2="917302" y2="122270" gradientUnits="userSpaceOnUse">
<stop stop-color="#5EDDC9"/>
<stop offset="1" stop-color="#00B1FB"/>
</linearGradient>
<linearGradient id="paint3_linear_1_2579" x1="791743" y1="116679" x2="909624" y2="116679" gradientUnits="userSpaceOnUse">
<stop stop-color="#5EDDC9"/>
<stop offset="1" stop-color="#00B1FB"/>
</linearGradient>
<linearGradient id="paint4_linear_1_2579" x1="787021" y1="111275" x2="901981" y2="111275" gradientUnits="userSpaceOnUse">
<stop stop-color="#5EDDC9"/>
<stop offset="1" stop-color="#00B1FB"/>
</linearGradient>
<linearGradient id="paint5_linear_1_2579" x1="781450" y1="105617" x2="893316" y2="105617" gradientUnits="userSpaceOnUse">
<stop stop-color="#5EDDC9"/>
<stop offset="1" stop-color="#00B1FB"/>
</linearGradient>
<linearGradient id="paint6_linear_1_2579" x1="324437" y1="20017.5" x2="340558" y2="20017.5" gradientUnits="userSpaceOnUse">
<stop stop-color="#5EDDC9"/>
<stop offset="1" stop-color="#00B1FB"/>
</linearGradient>
<linearGradient id="paint7_linear_1_2579" x1="312654" y1="88762.2" x2="330346" y2="88762.2" gradientUnits="userSpaceOnUse">
<stop stop-color="#5EDDC9"/>
<stop offset="1" stop-color="#00B1FB"/>
</linearGradient>
<linearGradient id="paint8_linear_1_2579" x1="386023" y1="103638" x2="412678" y2="103638" gradientUnits="userSpaceOnUse">
<stop stop-color="#5EDDC9"/>
<stop offset="1" stop-color="#00B1FB"/>
</linearGradient>
<linearGradient id="paint9_linear_1_2579" x1="315385" y1="18478.2" x2="330445" y2="18478.2" gradientUnits="userSpaceOnUse">
<stop stop-color="#5EDDC9"/>
<stop offset="1" stop-color="#00B1FB"/>
</linearGradient>
<linearGradient id="paint10_linear_1_2579" x1="766368" y1="104764" x2="870313" y2="104764" gradientUnits="userSpaceOnUse">
<stop stop-color="#5EDDC9"/>
<stop offset="1" stop-color="#00B1FB"/>
</linearGradient>
<linearGradient id="paint11_linear_1_2579" x1="759634" y1="93876" x2="860628" y2="93876" gradientUnits="userSpaceOnUse">
<stop stop-color="#5EDDC9"/>
<stop offset="1" stop-color="#00B1FB"/>
</linearGradient>
<linearGradient id="paint12_linear_1_2579" x1="755950" y1="83174.4" x2="854966" y2="83174.4" gradientUnits="userSpaceOnUse">
<stop stop-color="#5EDDC9"/>
<stop offset="1" stop-color="#00B1FB"/>
</linearGradient>
<linearGradient id="paint13_linear_1_2579" x1="748653" y1="80482.7" x2="844810" y2="80482.7" gradientUnits="userSpaceOnUse">
<stop stop-color="#5EDDC9"/>
<stop offset="1" stop-color="#00B1FB"/>
</linearGradient>
<linearGradient id="paint14_linear_1_2579" x1="742575" y1="77464.5" x2="836260" y2="77464.5" gradientUnits="userSpaceOnUse">
<stop stop-color="#5EDDC9"/>
<stop offset="1" stop-color="#00B1FB"/>
</linearGradient>
<linearGradient id="paint15_linear_1_2579" x1="737303" y1="74178.1" x2="828830" y2="74178.1" gradientUnits="userSpaceOnUse">
<stop stop-color="#5EDDC9"/>
<stop offset="1" stop-color="#00B1FB"/>
</linearGradient>
<linearGradient id="paint16_linear_1_2579" x1="731361" y1="71938.4" x2="820594" y2="71938.4" gradientUnits="userSpaceOnUse">
<stop stop-color="#5EDDC9"/>
<stop offset="1" stop-color="#00B1FB"/>
</linearGradient>
<linearGradient id="paint17_linear_1_2579" x1="725286" y1="69304.5" x2="812278" y2="69304.5" gradientUnits="userSpaceOnUse">
<stop stop-color="#5EDDC9"/>
<stop offset="1" stop-color="#00B1FB"/>
</linearGradient>
<linearGradient id="paint18_linear_1_2579" x1="394860" y1="189433" x2="418129" y2="189433" gradientUnits="userSpaceOnUse">
<stop stop-color="#5EDDC9"/>
<stop offset="1" stop-color="#00B1FB"/>
</linearGradient>
<linearGradient id="paint19_linear_1_2579" x1="405209" y1="184201" x2="430220" y2="184201" gradientUnits="userSpaceOnUse">
<stop stop-color="#5EDDC9"/>
<stop offset="1" stop-color="#00B1FB"/>
</linearGradient>
<linearGradient id="paint20_linear_1_2579" x1="417168" y1="178934" x2="444226" y2="178934" gradientUnits="userSpaceOnUse">
<stop stop-color="#5EDDC9"/>
<stop offset="1" stop-color="#00B1FB"/>
</linearGradient>
<linearGradient id="paint21_linear_1_2579" x1="422832" y1="174203" x2="451180" y2="174203" gradientUnits="userSpaceOnUse">
<stop stop-color="#5EDDC9"/>
<stop offset="1" stop-color="#00B1FB"/>
</linearGradient>
<linearGradient id="paint22_linear_1_2579" x1="433904" y1="169249" x2="464348" y2="169249" gradientUnits="userSpaceOnUse">
<stop stop-color="#5EDDC9"/>
<stop offset="1" stop-color="#00B1FB"/>
</linearGradient>
<linearGradient id="paint23_linear_1_2579" x1="170296" y1="113871" x2="174658" y2="113871" gradientUnits="userSpaceOnUse">
<stop stop-color="#5EDDC9"/>
<stop offset="1" stop-color="#00B1FB"/>
</linearGradient>
<linearGradient id="paint24_linear_1_2579" x1="200450" y1="129502" x2="206650" y2="129502" gradientUnits="userSpaceOnUse">
<stop stop-color="#5EDDC9"/>
<stop offset="1" stop-color="#00B1FB"/>
</linearGradient>
<linearGradient id="paint25_linear_1_2579" x1="346640" y1="172298" x2="366446" y2="172298" gradientUnits="userSpaceOnUse">
<stop stop-color="#5EDDC9"/>
<stop offset="1" stop-color="#00B1FB"/>
</linearGradient>
<linearGradient id="paint26_linear_1_2579" x1="125826" y1="38974.4" x2="128481" y2="38974.4" gradientUnits="userSpaceOnUse">
<stop stop-color="#5EDDC9"/>
<stop offset="1" stop-color="#00B1FB"/>
</linearGradient>
<linearGradient id="paint27_linear_1_2579" x1="138845" y1="36102.6" x2="142139" y2="36102.6" gradientUnits="userSpaceOnUse">
<stop stop-color="#5EDDC9"/>
<stop offset="1" stop-color="#00B1FB"/>
</linearGradient>
<linearGradient id="paint28_linear_1_2579" x1="453144" y1="152770" x2="488895" y2="152770" gradientUnits="userSpaceOnUse">
<stop stop-color="#5EDDC9"/>
<stop offset="1" stop-color="#00B1FB"/>
</linearGradient>
<linearGradient id="paint29_linear_1_2579" x1="459044" y1="148685" x2="496403" y2="148685" gradientUnits="userSpaceOnUse">
<stop stop-color="#5EDDC9"/>
<stop offset="1" stop-color="#00B1FB"/>
</linearGradient>
<linearGradient id="paint30_linear_1_2579" x1="463328" y1="144993" x2="502089" y2="144993" gradientUnits="userSpaceOnUse">
<stop stop-color="#5EDDC9"/>
<stop offset="1" stop-color="#00B1FB"/>
</linearGradient>
<linearGradient id="paint31_linear_1_2579" x1="465138" y1="141532" x2="504861" y2="141532" gradientUnits="userSpaceOnUse">
<stop stop-color="#5EDDC9"/>
<stop offset="1" stop-color="#00B1FB"/>
</linearGradient>
<linearGradient id="paint32_linear_1_2579" x1="469471" y1="138005" x2="510647" y2="138005" gradientUnits="userSpaceOnUse">
<stop stop-color="#5EDDC9"/>
<stop offset="1" stop-color="#00B1FB"/>
</linearGradient>
<linearGradient id="paint33_linear_1_2579" x1="473312" y1="134728" x2="515900" y2="134728" gradientUnits="userSpaceOnUse">
<stop stop-color="#5EDDC9"/>
<stop offset="1" stop-color="#00B1FB"/>
</linearGradient>
<linearGradient id="paint34_linear_1_2579" x1="472793" y1="131820" x2="515972" y2="131820" gradientUnits="userSpaceOnUse">
<stop stop-color="#5EDDC9"/>
<stop offset="1" stop-color="#00B1FB"/>
</linearGradient>
</defs>
</svg>
