<svg width="246" height="78" viewBox="0 0 246 78" fill="none" xmlns="http://www.w3.org/2000/svg">
<path d="M13.7775 52.6711C11.9734 53.702 10.4013 53.8309 9.06121 53.0577C7.72107 52.2846 7.05101 50.8671 7.05101 48.8054V37.2081C7.05101 35.8164 7.36027 34.3732 7.97879 32.8784C8.59732 31.3321 9.42201 29.9146 10.4529 28.626C11.4838 27.2859 12.5919 26.2808 13.7775 25.6107L22.4368 20.5852V12.8537L29.1632 8.98791V16.7195L44.549 7.82818V15.5597L29.1632 24.451V36.0483L37.8226 31.0228C39.6266 29.9919 41.1987 29.8631 42.5388 30.6362C43.8789 31.4094 44.549 32.8268 44.549 34.8886V46.4859C44.549 47.826 44.2397 49.2693 43.6212 50.8156C43.0027 52.3619 42.178 53.8051 41.1471 55.1452C40.1162 56.4338 39.0081 57.4132 37.8226 58.0832L29.1632 63.1087V70.8403L22.4368 74.706V66.9745L7.05101 75.8658V68.1342L22.4368 59.243V47.6456L13.7775 52.6711ZM29.1632 55.3772L37.8226 50.3517V38.7544L29.1632 43.7799V55.3772ZM22.4368 39.9141V28.3168L13.7775 33.3423V44.9396L22.4368 39.9141ZM7.05101 68.1342V75.8658L0.324564 72V64.2685L7.05101 68.1342ZM22.4368 66.9745V74.706L15.7103 70.8403V63.1087L22.4368 66.9745ZM44.549 7.82818L29.1632 16.7195L22.4368 12.8537L37.8226 3.96241L44.549 7.82818ZM37.8226 38.7544V50.3517L31.1734 46.4859V34.8886L37.8226 38.7544ZM37.8226 50.3517L29.1632 55.3772L22.4368 51.5114L31.1734 46.4859L37.8226 50.3517ZM22.4368 47.6456V59.243L15.7103 55.3772V43.7799L22.4368 47.6456ZM22.4368 59.243L7.05101 68.1342L0.324564 64.2685L15.7103 55.3772L22.4368 59.243ZM42.5388 30.6362C41.1987 29.8631 39.6266 29.9919 37.8226 31.0228L29.1632 36.0483L22.4368 32.1825L31.1734 27.157C32.9259 26.1262 34.4722 25.9973 35.8124 26.7705L42.5388 30.6362ZM29.1632 8.98791L22.4368 12.8537L15.7103 8.98791L22.4368 5.12214L29.1632 8.98791ZM22.4368 12.8537V20.5852L15.7103 16.7195V8.98791L22.4368 12.8537ZM22.4368 28.3168V39.9141L15.7103 36.0483V24.451L22.4368 28.3168ZM22.4368 39.9141L13.7775 44.9396L7.05101 41.0738L15.7103 36.0483L22.4368 39.9141ZM22.4368 20.5852L13.7775 25.6107C12.5919 26.2808 11.4838 27.2859 10.4529 28.626C9.42201 29.9146 8.59732 31.3321 7.97879 32.8784C7.36027 34.3732 7.05101 35.8164 7.05101 37.2081V48.8054C7.05101 50.8671 7.72107 52.2846 9.06121 53.0577L2.33477 49.1919C0.994631 48.4188 0.324564 47.0013 0.324564 44.9396V33.3423C0.324564 31.9506 0.633826 30.5074 1.25235 29.0126C1.87087 27.4663 2.69557 26.0489 3.72644 24.7603C4.75732 23.4201 5.8655 22.415 7.05101 21.745L15.7103 16.7195L22.4368 20.5852ZM71.3158 49.5785V58.0832L64.6667 61.949V53.4443C64.6667 52.0526 64.976 50.6094 65.5945 49.1146C66.213 47.5683 67.0119 46.1509 67.9913 44.8623C69.0221 43.5221 70.1303 42.517 71.3158 41.847L78.0423 37.9812V13.2403L64.6667 20.9718V28.7034L57.9403 32.5691V24.8376C57.9403 23.4459 58.2495 22.0027 58.8681 20.5079C59.4866 18.9616 60.3113 17.5442 61.3422 16.2556C62.373 14.9154 63.4812 13.9103 64.6667 13.2403L78.0423 5.50872C79.7948 4.47785 81.3411 4.34899 82.6812 5.12214C84.0213 5.8953 84.6914 7.31275 84.6914 9.37449V34.1154C84.6914 35.4556 84.3822 36.8988 83.7636 38.4451C83.1451 39.9914 82.3204 41.4346 81.2895 42.7748C80.3102 44.0634 79.2278 45.0427 78.0423 45.7128L71.3158 49.5785ZM67.9913 76.2523C66.5996 77.0255 65.4656 77.1544 64.5894 76.6389C63.7132 76.1235 63.275 75.0926 63.275 73.5463C63.275 72 63.7132 70.4537 64.5894 68.9074C65.4656 67.3611 66.5996 66.2013 67.9913 65.4282C69.3314 64.655 70.4396 64.5262 71.3158 65.0416C72.1921 65.557 72.6302 66.5879 72.6302 68.1342C72.6302 69.6805 72.1921 71.2268 71.3158 72.7732C70.4396 74.3195 69.3314 75.4792 67.9913 76.2523ZM78.0423 13.2403V37.9812L71.3158 34.1154V9.37449L78.0423 13.2403ZM71.3158 65.0416C70.4396 64.5262 69.3314 64.655 67.9913 65.4282C66.5996 66.2013 65.4656 67.3611 64.5894 68.9074C63.7132 70.4537 63.275 72 63.275 73.5463C63.275 75.0926 63.7132 76.1235 64.5894 76.6389L57.9403 72.7732C57.064 72.2577 56.6259 71.2268 56.6259 69.6805C56.6259 68.1342 57.064 66.5879 57.9403 65.0416C58.8165 63.4953 59.9247 62.3356 61.2648 61.5624C62.6565 60.7893 63.7905 60.6604 64.6667 61.1758L71.3158 65.0416ZM78.0423 37.9812L71.3158 41.847C70.1303 42.517 69.0221 43.5221 67.9913 44.8623C67.0119 46.1509 66.213 47.5683 65.5945 49.1146C64.976 50.6094 64.6667 52.0526 64.6667 53.4443V61.949L57.9403 58.0832V49.5785C57.9403 48.1868 58.2495 46.7436 58.8681 45.2489C59.4866 43.7025 60.3113 42.2851 61.3422 40.9965C62.373 39.6564 63.4812 38.6513 64.6667 37.9812L71.3158 34.1154L78.0423 37.9812ZM82.6812 5.12214C81.3411 4.34899 79.7948 4.47785 78.0423 5.50872L64.6667 13.2403C63.4812 13.9103 62.373 14.9154 61.3422 16.2556C60.3113 17.5442 59.4866 18.9616 58.8681 20.5079C58.2495 22.0027 57.9403 23.4459 57.9403 24.8376V32.5691L51.2138 28.7034V20.9718C51.2138 19.5801 51.5231 18.1369 52.1416 16.6421C52.7601 15.0958 53.5848 13.6784 54.6157 12.3898C55.6466 11.0497 56.7548 10.0446 57.9403 9.37449L71.3158 1.64295C73.1199 0.612075 74.692 0.483216 76.0321 1.25637L82.6812 5.12214ZM111.484 49.5785V58.0832L104.835 61.949V53.4443C104.835 52.0526 105.144 50.6094 105.762 49.1146C106.381 47.5683 107.18 46.1509 108.159 44.8623C109.19 43.5221 110.298 42.517 111.484 41.847L118.21 37.9812V13.2403L104.835 20.9718V28.7034L98.1081 32.5691V24.8376C98.1081 23.4459 98.4173 22.0027 99.0358 20.5079C99.6544 18.9616 100.479 17.5442 101.51 16.2556C102.541 14.9154 103.649 13.9103 104.835 13.2403L118.21 5.50872C119.963 4.47785 121.509 4.34899 122.849 5.12214C124.189 5.8953 124.859 7.31275 124.859 9.37449V34.1154C124.859 35.4556 124.55 36.8988 123.931 38.4451C123.313 39.9914 122.488 41.4346 121.457 42.7748C120.478 44.0634 119.396 45.0427 118.21 45.7128L111.484 49.5785ZM108.159 76.2523C106.767 77.0255 105.633 77.1544 104.757 76.6389C103.881 76.1235 103.443 75.0926 103.443 73.5463C103.443 72 103.881 70.4537 104.757 68.9074C105.633 67.3611 106.767 66.2013 108.159 65.4282C109.499 64.655 110.607 64.5262 111.484 65.0416C112.36 65.557 112.798 66.5879 112.798 68.1342C112.798 69.6805 112.36 71.2268 111.484 72.7732C110.607 74.3195 109.499 75.4792 108.159 76.2523ZM118.21 13.2403V37.9812L111.484 34.1154V9.37449L118.21 13.2403ZM111.484 65.0416C110.607 64.5262 109.499 64.655 108.159 65.4282C106.767 66.2013 105.633 67.3611 104.757 68.9074C103.881 70.4537 103.443 72 103.443 73.5463C103.443 75.0926 103.881 76.1235 104.757 76.6389L98.1081 72.7732C97.2318 72.2577 96.7937 71.2268 96.7937 69.6805C96.7937 68.1342 97.2318 66.5879 98.1081 65.0416C98.9843 63.4953 100.092 62.3356 101.433 61.5624C102.824 60.7893 103.958 60.6604 104.835 61.1758L111.484 65.0416ZM118.21 37.9812L111.484 41.847C110.298 42.517 109.19 43.5221 108.159 44.8623C107.18 46.1509 106.381 47.5683 105.762 49.1146C105.144 50.6094 104.835 52.0526 104.835 53.4443V61.949L98.1081 58.0832V49.5785C98.1081 48.1868 98.4173 46.7436 99.0358 45.2489C99.6544 43.7025 100.479 42.2851 101.51 40.9965C102.541 39.6564 103.649 38.6513 104.835 37.9812L111.484 34.1154L118.21 37.9812ZM122.849 5.12214C121.509 4.34899 119.963 4.47785 118.21 5.50872L104.835 13.2403C103.649 13.9103 102.541 14.9154 101.51 16.2556C100.479 17.5442 99.6544 18.9616 99.0358 20.5079C98.4173 22.0027 98.1081 23.4459 98.1081 24.8376V32.5691L91.3816 28.7034V20.9718C91.3816 19.5801 91.6909 18.1369 92.3094 16.6421C92.9279 15.0958 93.7526 13.6784 94.7835 12.3898C95.8144 11.0497 96.9226 10.0446 98.1081 9.37449L111.484 1.64295C113.288 0.612075 114.86 0.483216 116.2 1.25637L122.849 5.12214ZM151.651 49.5785V58.0832L145.002 61.949V53.4443C145.002 52.0526 145.312 50.6094 145.93 49.1146C146.549 47.5683 147.348 46.1509 148.327 44.8623C149.358 43.5221 150.466 42.517 151.651 41.847L158.378 37.9812V13.2403L145.002 20.9718V28.7034L138.276 32.5691V24.8376C138.276 23.4459 138.585 22.0027 139.204 20.5079C139.822 18.9616 140.647 17.5442 141.678 16.2556C142.709 14.9154 143.817 13.9103 145.002 13.2403L158.378 5.50872C160.13 4.47785 161.677 4.34899 163.017 5.12214C164.357 5.8953 165.027 7.31275 165.027 9.37449V34.1154C165.027 35.4556 164.718 36.8988 164.099 38.4451C163.481 39.9914 162.656 41.4346 161.625 42.7748C160.646 44.0634 159.563 45.0427 158.378 45.7128L151.651 49.5785ZM148.327 76.2523C146.935 77.0255 145.801 77.1544 144.925 76.6389C144.049 76.1235 143.611 75.0926 143.611 73.5463C143.611 72 144.049 70.4537 144.925 68.9074C145.801 67.3611 146.935 66.2013 148.327 65.4282C149.667 64.655 150.775 64.5262 151.651 65.0416C152.528 65.557 152.966 66.5879 152.966 68.1342C152.966 69.6805 152.528 71.2268 151.651 72.7732C150.775 74.3195 149.667 75.4792 148.327 76.2523ZM158.378 13.2403V37.9812L151.651 34.1154V9.37449L158.378 13.2403ZM151.651 65.0416C150.775 64.5262 149.667 64.655 148.327 65.4282C146.935 66.2013 145.801 67.3611 144.925 68.9074C144.049 70.4537 143.611 72 143.611 73.5463C143.611 75.0926 144.049 76.1235 144.925 76.6389L138.276 72.7732C137.4 72.2577 136.961 71.2268 136.961 69.6805C136.961 68.1342 137.4 66.5879 138.276 65.0416C139.152 63.4953 140.26 62.3356 141.6 61.5624C142.992 60.7893 144.126 60.6604 145.002 61.1758L151.651 65.0416ZM158.378 37.9812L151.651 41.847C150.466 42.517 149.358 43.5221 148.327 44.8623C147.348 46.1509 146.549 47.5683 145.93 49.1146C145.312 50.6094 145.002 52.0526 145.002 53.4443V61.949L138.276 58.0832V49.5785C138.276 48.1868 138.585 46.7436 139.204 45.2489C139.822 43.7025 140.647 42.2851 141.678 40.9965C142.709 39.6564 143.817 38.6513 145.002 37.9812L151.651 34.1154L158.378 37.9812ZM163.017 5.12214C161.677 4.34899 160.13 4.47785 158.378 5.50872L145.002 13.2403C143.817 13.9103 142.709 14.9154 141.678 16.2556C140.647 17.5442 139.822 18.9616 139.204 20.5079C138.585 22.0027 138.276 23.4459 138.276 24.8376V32.5691L131.549 28.7034V20.9718C131.549 19.5801 131.859 18.1369 132.477 16.6421C133.096 15.0958 133.92 13.6784 134.951 12.3898C135.982 11.0497 137.09 10.0446 138.276 9.37449L151.651 1.64295C153.455 0.612075 155.028 0.483216 156.368 1.25637L163.017 5.12214ZM191.819 49.5785V58.0832L185.17 61.949V53.4443C185.17 52.0526 185.479 50.6094 186.098 49.1146C186.716 47.5683 187.515 46.1509 188.495 44.8623C189.526 43.5221 190.634 42.517 191.819 41.847L198.546 37.9812V13.2403L185.17 20.9718V28.7034L178.444 32.5691V24.8376C178.444 23.4459 178.753 22.0027 179.371 20.5079C179.99 18.9616 180.815 17.5442 181.846 16.2556C182.876 14.9154 183.985 13.9103 185.17 13.2403L198.546 5.50872C200.298 4.47785 201.844 4.34899 203.185 5.12214C204.525 5.8953 205.195 7.31275 205.195 9.37449V34.1154C205.195 35.4556 204.886 36.8988 204.267 38.4451C203.648 39.9914 202.824 41.4346 201.793 42.7748C200.814 44.0634 199.731 45.0427 198.546 45.7128L191.819 49.5785ZM188.495 76.2523C187.103 77.0255 185.969 77.1544 185.093 76.6389C184.217 76.1235 183.778 75.0926 183.778 73.5463C183.778 72 184.217 70.4537 185.093 68.9074C185.969 67.3611 187.103 66.2013 188.495 65.4282C189.835 64.655 190.943 64.5262 191.819 65.0416C192.695 65.557 193.134 66.5879 193.134 68.1342C193.134 69.6805 192.695 71.2268 191.819 72.7732C190.943 74.3195 189.835 75.4792 188.495 76.2523ZM198.546 13.2403V37.9812L191.819 34.1154V9.37449L198.546 13.2403ZM191.819 65.0416C190.943 64.5262 189.835 64.655 188.495 65.4282C187.103 66.2013 185.969 67.3611 185.093 68.9074C184.217 70.4537 183.778 72 183.778 73.5463C183.778 75.0926 184.217 76.1235 185.093 76.6389L178.444 72.7732C177.567 72.2577 177.129 71.2268 177.129 69.6805C177.129 68.1342 177.567 66.5879 178.444 65.0416C179.32 63.4953 180.428 62.3356 181.768 61.5624C183.16 60.7893 184.294 60.6604 185.17 61.1758L191.819 65.0416ZM198.546 37.9812L191.819 41.847C190.634 42.517 189.526 43.5221 188.495 44.8623C187.515 46.1509 186.716 47.5683 186.098 49.1146C185.479 50.6094 185.17 52.0526 185.17 53.4443V61.949L178.444 58.0832V49.5785C178.444 48.1868 178.753 46.7436 179.371 45.2489C179.99 43.7025 180.815 42.2851 181.846 40.9965C182.876 39.6564 183.985 38.6513 185.17 37.9812L191.819 34.1154L198.546 37.9812ZM203.185 5.12214C201.844 4.34899 200.298 4.47785 198.546 5.50872L185.17 13.2403C183.985 13.9103 182.876 14.9154 181.846 16.2556C180.815 17.5442 179.99 18.9616 179.371 20.5079C178.753 22.0027 178.444 23.4459 178.444 24.8376V32.5691L171.717 28.7034V20.9718C171.717 19.5801 172.026 18.1369 172.645 16.6421C173.263 15.0958 174.088 13.6784 175.119 12.3898C176.15 11.0497 177.258 10.0446 178.444 9.37449L191.819 1.64295C193.623 0.612075 195.195 0.483216 196.535 1.25637L203.185 5.12214ZM231.987 49.5785V58.0832L225.338 61.949V53.4443C225.338 52.0526 225.647 50.6094 226.266 49.1146C226.884 47.5683 227.683 46.1509 228.662 44.8623C229.693 43.5221 230.801 42.517 231.987 41.847L238.713 37.9812V13.2403L225.338 20.9718V28.7034L218.611 32.5691V24.8376C218.611 23.4459 218.921 22.0027 219.539 20.5079C220.158 18.9616 220.982 17.5442 222.013 16.2556C223.044 14.9154 224.152 13.9103 225.338 13.2403L238.713 5.50872C240.466 4.47785 242.012 4.34899 243.352 5.12214C244.692 5.8953 245.363 7.31275 245.363 9.37449V34.1154C245.363 35.4556 245.053 36.8988 244.435 38.4451C243.816 39.9914 242.992 41.4346 241.961 42.7748C240.981 44.0634 239.899 45.0427 238.713 45.7128L231.987 49.5785ZM228.662 76.2523C227.271 77.0255 226.137 77.1544 225.261 76.6389C224.384 76.1235 223.946 75.0926 223.946 73.5463C223.946 72 224.384 70.4537 225.261 68.9074C226.137 67.3611 227.271 66.2013 228.662 65.4282C230.003 64.655 231.111 64.5262 231.987 65.0416C232.863 65.557 233.301 66.5879 233.301 68.1342C233.301 69.6805 232.863 71.2268 231.987 72.7732C231.111 74.3195 230.003 75.4792 228.662 76.2523ZM238.713 13.2403V37.9812L231.987 34.1154V9.37449L238.713 13.2403ZM231.987 65.0416C231.111 64.5262 230.003 64.655 228.662 65.4282C227.271 66.2013 226.137 67.3611 225.261 68.9074C224.384 70.4537 223.946 72 223.946 73.5463C223.946 75.0926 224.384 76.1235 225.261 76.6389L218.611 72.7732C217.735 72.2577 217.297 71.2268 217.297 69.6805C217.297 68.1342 217.735 66.5879 218.611 65.0416C219.488 63.4953 220.596 62.3356 221.936 61.5624C223.328 60.7893 224.462 60.6604 225.338 61.1758L231.987 65.0416ZM238.713 37.9812L231.987 41.847C230.801 42.517 229.693 43.5221 228.662 44.8623C227.683 46.1509 226.884 47.5683 226.266 49.1146C225.647 50.6094 225.338 52.0526 225.338 53.4443V61.949L218.611 58.0832V49.5785C218.611 48.1868 218.921 46.7436 219.539 45.2489C220.158 43.7025 220.982 42.2851 222.013 40.9965C223.044 39.6564 224.152 38.6513 225.338 37.9812L231.987 34.1154L238.713 37.9812ZM243.352 5.12214C242.012 4.34899 240.466 4.47785 238.713 5.50872L225.338 13.2403C224.152 13.9103 223.044 14.9154 222.013 16.2556C220.982 17.5442 220.158 18.9616 219.539 20.5079C218.921 22.0027 218.611 23.4459 218.611 24.8376V32.5691L211.885 28.7034V20.9718C211.885 19.5801 212.194 18.1369 212.813 16.6421C213.431 15.0958 214.256 13.6784 215.287 12.3898C216.318 11.0497 217.426 10.0446 218.611 9.37449L231.987 1.64295C233.791 0.612075 235.363 0.483216 236.703 1.25637L243.352 5.12214Z" fill="#EF428C" fill-opacity="0.75"/>
</svg>
