<svg width="46" height="22" viewBox="0 0 46 22" fill="none" xmlns="http://www.w3.org/2000/svg">
<path d="M22.6147 18.2237H21.4259L21.165 18.5137H25.601C25.5816 18.533 25.5623 18.5523 25.543 18.5716C25.5237 18.591 25.4947 18.62 25.456 18.6586H18.6136C18.5169 18.7553 18.4106 18.8519 18.2947 18.9486C18.198 19.0452 18.0917 19.1418 17.9757 19.2385H20.0922L19.7153 19.5284H23.6584L23.4265 19.6734H21.7159C21.6965 19.6927 21.6579 19.712 21.5999 19.7314C21.5612 19.7507 21.5226 19.7797 21.4839 19.8184H19.5414L18.7296 20.2532H19.8603C19.609 20.3692 19.3577 20.4755 19.1065 20.5722C18.8552 20.6495 18.5943 20.7365 18.3237 20.8331H17.2799C16.6227 21.0264 15.9075 21.1714 15.1344 21.268H15.2794C14.9701 21.3067 14.6512 21.3357 14.3226 21.355C13.994 21.3743 13.6654 21.384 13.3368 21.384C12.9696 21.384 12.6023 21.3743 12.2351 21.355C11.8871 21.3357 11.5489 21.3067 11.2203 21.268H11.1043C10.2732 21.1714 9.52902 21.0264 8.87184 20.8331H9.9156C9.62566 20.7365 9.35506 20.6495 9.10378 20.5722C8.85251 20.4755 8.60123 20.3692 8.34996 20.2532H7.21922C7.08392 20.1759 6.94862 20.1083 6.81331 20.0503C6.67801 19.973 6.54271 19.8957 6.40741 19.8184H8.37895L8.14701 19.6734H9.85761C9.83828 19.6347 9.80929 19.6057 9.77063 19.5864C9.73197 19.5671 9.69331 19.5477 9.65466 19.5284H5.71157C5.63425 19.4898 5.5666 19.4414 5.50862 19.3835C5.45063 19.3255 5.39264 19.2771 5.33466 19.2385H3.18915C3.09251 19.1418 2.99586 19.0452 2.89922 18.9486C2.78325 18.8519 2.67694 18.7553 2.58029 18.6586H9.42271C9.40338 18.62 9.38405 18.591 9.36472 18.5716C9.3454 18.5523 9.32607 18.533 9.30674 18.5137H4.87076C4.79345 18.4363 4.71613 18.3397 4.63882 18.2237H5.82754C5.80821 18.1851 5.78888 18.1561 5.76956 18.1367C5.75023 18.1174 5.7309 18.0981 5.71157 18.0788H9.33573L9.07479 17.6439H7.27721L7.19023 17.4989H3.10217C3.08284 17.4216 3.05385 17.3539 3.01519 17.2959C2.97654 17.2186 2.93788 17.1413 2.89922 17.064H4.84177L4.66781 16.6291H3.97197L3.91399 16.4841H4.23291C4.21358 16.4068 4.19425 16.3392 4.17492 16.2812C4.1556 16.2039 4.13627 16.1265 4.11694 16.0492H3.88499C3.88499 15.9719 3.87533 15.9043 3.856 15.8463C3.856 15.769 3.84633 15.6916 3.82701 15.6143H3.59506C3.59506 15.537 3.58539 15.4694 3.56607 15.4114C3.56607 15.3534 3.56607 15.2857 3.56607 15.2084V15.1794H3.53707C3.53707 15.1408 3.53707 15.1118 3.53707 15.0924C3.5564 15.0731 3.56607 15.0538 3.56607 15.0345H4.23291C4.32956 14.7252 4.53251 14.5706 4.84177 14.5706H10.3505C10.6598 14.5706 10.8917 14.6092 11.0463 14.6865C11.201 14.7639 11.3749 14.8798 11.5682 15.0345H10.9014L10.9304 15.0635C10.969 15.0828 10.998 15.1021 11.0173 15.1214C11.056 15.1408 11.085 15.1601 11.1043 15.1794H11.1333C11.3846 15.3727 11.6939 15.5177 12.0611 15.6143H12.322C12.5733 15.6916 12.9116 15.7303 13.3368 15.7303C13.5881 15.7303 13.82 15.7206 14.0326 15.7013C14.2453 15.682 14.4289 15.653 14.5835 15.6143H14.4965C14.9411 15.5177 15.2214 15.3727 15.3373 15.1794H15.2794C15.318 15.1021 15.3373 15.0538 15.3373 15.0345H15.6273L15.6563 14.9185C15.6563 14.7445 15.5886 14.5899 15.4533 14.4546H15.2214C15.0474 14.2806 14.7381 14.1357 14.2936 14.0197H14.2066C14.0326 13.9617 13.8297 13.9134 13.5977 13.8747C13.3658 13.8167 13.0952 13.7684 12.7859 13.7298H12.612L11.4232 13.5558C11.2879 13.5365 11.1526 13.5171 11.0173 13.4978C10.9014 13.4785 10.7757 13.4592 10.6404 13.4398C9.84795 13.3045 9.08446 13.1112 8.34996 12.86H7.82808C7.55748 12.7633 7.3062 12.6667 7.07425 12.57H6.66835C6.5717 12.5314 6.47506 12.4927 6.37842 12.4541C6.28177 12.3961 6.18513 12.3381 6.08848 12.2801H3.56607C3.43076 12.2028 3.30513 12.1351 3.18915 12.0771C3.07318 11.9998 2.95721 11.9225 2.84123 11.8452H8.23399C8.13734 11.7679 8.0407 11.7002 7.94405 11.6422C7.86674 11.5649 7.77976 11.4876 7.68311 11.4103H1.91345C1.85546 11.3716 1.80714 11.3233 1.76848 11.2653C1.7105 11.2073 1.66217 11.159 1.62352 11.1204H3.13117C2.95721 10.9271 2.79291 10.7338 2.63828 10.5405H3.07318L2.89922 10.2506H0.115864C0.0965353 10.2119 0.0772064 10.1829 0.0578775 10.1636C0.0385486 10.1443 0.0288842 10.1249 0.0288842 10.1056H6.63935C6.6007 10.0283 6.56204 9.96063 6.52338 9.90265C6.48472 9.82533 6.44607 9.74801 6.40741 9.6707H1.33358L1.15962 9.2358H5.24768L5.18969 9.09083H3.97197L3.91399 8.94587H4.49385C4.49385 8.90721 4.48419 8.87821 4.46486 8.85889C4.46486 8.83956 4.46486 8.82023 4.46486 8.8009H4.34888L4.2619 8.51097H4.08795L4.05895 8.22103H4.00097V8.07607H3.07318C3.05385 8.03741 3.04419 7.98909 3.04419 7.9311C3.04419 7.87311 3.04419 7.82479 3.04419 7.78613H2.20338L2.17439 7.4962H5.47962C5.46029 7.45754 5.45063 7.40922 5.45063 7.35123C5.45063 7.29325 5.45063 7.24493 5.45063 7.20627H5.91452V7.17728C5.91452 7.08063 5.91452 6.98399 5.91452 6.88734C5.91452 6.7907 5.92419 6.70372 5.94352 6.6264H4.6968C4.71613 6.54909 4.7258 6.48144 4.7258 6.42345C4.7258 6.34613 4.73546 6.26882 4.75479 6.1915H6.78432C6.78432 6.15285 6.78432 6.12385 6.78432 6.10452C6.80365 6.0852 6.81331 6.06587 6.81331 6.04654H4.75479C4.79345 5.93056 4.81278 5.83392 4.81278 5.7566H4.49385L4.58083 5.46667H4.08795C4.14593 5.25405 4.21358 5.06077 4.2909 4.88681H4.52284L4.63882 4.59687H4.95774L5.21868 4.16197H4.92875C4.98674 4.08466 5.03506 4.01701 5.07372 3.95902C5.1317 3.8817 5.18003 3.80439 5.21868 3.72707H4.98674L5.33466 3.29217H5.94352C5.96284 3.25352 5.98217 3.22452 6.0015 3.20519C6.02083 3.18587 6.04016 3.16654 6.05949 3.14721H5.24768C5.32499 3.06989 5.40231 3.00224 5.47962 2.94425C5.55694 2.86694 5.63425 2.78962 5.71157 2.71231H6.17546C6.29144 2.61566 6.40741 2.51902 6.52338 2.42237C6.63935 2.3064 6.76499 2.20976 6.90029 2.13244H7.42217C7.53815 2.05513 7.65412 1.98748 7.77009 1.92949C7.88607 1.85217 8.0117 1.77486 8.14701 1.69754H8.06003C8.09868 1.65889 8.14701 1.62989 8.20499 1.61056C8.26298 1.59123 8.3113 1.57191 8.34996 1.55258H7.94405C7.98271 1.51392 8.03103 1.48493 8.08902 1.4656C8.14701 1.44627 8.20499 1.42694 8.26298 1.40761H7.97305C8.24365 1.29164 8.52392 1.18533 8.81385 1.08868C9.12311 0.992039 9.43238 0.905059 9.74164 0.827744H10.1765C10.6211 0.7311 11.085 0.653785 11.5682 0.595799C12.0708 0.537812 12.5926 0.508818 13.1339 0.508818C14.1583 0.508818 15.1247 0.615127 16.0332 0.827744H15.6273C16.2458 0.963046 16.845 1.15634 17.4249 1.40761H17.6858C17.7438 1.42694 17.8018 1.44627 17.8598 1.4656C17.9177 1.48493 17.9757 1.51392 18.0337 1.55258H18.4396C18.4783 1.57191 18.5266 1.59123 18.5846 1.61056C18.6426 1.62989 18.6909 1.65889 18.7296 1.69754H18.8165C18.9518 1.77486 19.0775 1.85217 19.1934 1.92949C19.3288 1.98748 19.4544 2.05513 19.5704 2.13244H19.0775C19.2321 2.20976 19.3674 2.3064 19.4834 2.42237C19.6187 2.51902 19.7443 2.61566 19.8603 2.71231H19.4254L19.8893 3.14721H20.7011L20.8461 3.29217H20.2372C20.3145 3.36949 20.3822 3.44681 20.4402 3.52412C20.5175 3.58211 20.5851 3.64976 20.6431 3.72707H20.8751L21.223 4.16197H21.4839L21.7449 4.59687H21.4259C21.4839 4.69352 21.5322 4.79016 21.5709 4.88681H21.339C21.3969 4.98345 21.4453 5.08009 21.4839 5.17674C21.5226 5.27338 21.5612 5.37003 21.5999 5.46667H22.0928C22.1314 5.58264 22.1508 5.67929 22.1508 5.7566H22.4987C22.518 5.79526 22.5277 5.84358 22.5277 5.90157C22.5277 5.95956 22.5373 6.00788 22.5567 6.04654H24.6152V6.1915H22.7596C22.779 6.26882 22.7886 6.37513 22.7886 6.51043V6.6264H21.7159C21.6386 6.97432 21.4453 7.14828 21.136 7.14828H15.3373C15.0667 7.14828 14.8445 7.10962 14.6705 7.03231C14.5159 6.95499 14.3516 6.83902 14.1776 6.68439L14.0906 6.6264H15.1634C15.0667 6.54909 14.9314 6.47177 14.7575 6.39446C14.5835 6.29781 14.3612 6.23016 14.0906 6.1915H13.0469C12.641 6.24949 12.3607 6.39446 12.2061 6.6264H13.4528C13.3948 6.74238 13.3658 6.85835 13.3658 6.97432C13.3658 7.07097 13.3755 7.14828 13.3948 7.20627H12.9599C12.9792 7.30291 13.0565 7.39956 13.1918 7.4962H9.9156C10.0316 7.59285 10.2345 7.68949 10.5245 7.78613H11.3653C11.5199 7.84412 11.7035 7.90211 11.9161 7.96009C12.1481 7.99875 12.3897 8.03741 12.641 8.07607H13.5688C13.7234 8.0954 13.8877 8.11473 14.0616 8.13405C14.2356 8.15338 14.4192 8.18238 14.6125 8.22103H14.6415C14.9701 8.25969 15.289 8.30801 15.5983 8.366C15.9075 8.40466 16.1975 8.45298 16.4681 8.51097H16.642C16.874 8.54962 17.0866 8.59795 17.2799 8.65593C17.4925 8.69459 17.6955 8.74291 17.8888 8.8009H18.0047C18.1014 8.82023 18.1883 8.83956 18.2657 8.85889C18.343 8.87821 18.4203 8.90721 18.4976 8.94587H17.9467C18.0241 8.9652 18.0917 8.98452 18.1497 9.00385C18.227 9.02318 18.3043 9.05217 18.3816 9.09083H19.5994C19.6573 9.11016 19.7153 9.12949 19.7733 9.14882C19.8506 9.16815 19.9183 9.19714 19.9763 9.2358H15.8882C16.2748 9.39043 16.5841 9.5354 16.816 9.6707H21.8898C22.0058 9.74801 22.1218 9.82533 22.2377 9.90265C22.3537 9.96063 22.46 10.0283 22.5567 10.1056H15.9462C15.9849 10.1249 16.0235 10.1443 16.0622 10.1636C16.1008 10.1829 16.1298 10.2119 16.1492 10.2506H18.9325C18.9905 10.2892 19.0485 10.3375 19.1065 10.3955C19.1645 10.4535 19.2128 10.5018 19.2514 10.5405H18.8165C19.0098 10.7145 19.1741 10.9077 19.3094 11.1204H17.8018C17.8404 11.159 17.8791 11.2073 17.9177 11.2653C17.9564 11.3233 17.9854 11.3716 18.0047 11.4103H23.7454L24.0063 11.8452H18.6136C18.6522 11.9225 18.6909 11.9998 18.7296 12.0771C18.7682 12.1351 18.7972 12.2028 18.8165 12.2801H21.31L21.3969 12.57H21.8028L21.8898 12.86H22.4117C22.4504 12.9373 22.4697 13.0339 22.4697 13.1499C22.489 13.2465 22.5083 13.3432 22.5277 13.4398L22.5567 13.7298H22.7306C22.75 13.7684 22.7596 13.8167 22.7596 13.8747C22.7596 13.9327 22.7596 13.981 22.7596 14.0197H22.8466V14.4546H23.1075V14.5416C23.1075 14.6189 23.0979 14.6962 23.0786 14.7735C23.0786 14.8508 23.0786 14.9378 23.0786 15.0345H22.7886V15.1794H22.8466C22.8466 15.2567 22.8369 15.3341 22.8176 15.4114C22.8176 15.4694 22.8079 15.537 22.7886 15.6143H22.8756L22.7886 16.0492H23.0206C23.0012 16.1265 22.9819 16.2039 22.9626 16.2812C22.9432 16.3392 22.9143 16.4068 22.8756 16.4841H22.5567C22.5567 16.5035 22.547 16.5228 22.5277 16.5421C22.5277 16.5614 22.5277 16.5904 22.5277 16.6291H23.2235L23.0496 17.064H21.107C21.0877 17.1413 21.049 17.2186 20.991 17.2959C20.9524 17.3539 20.9137 17.4216 20.8751 17.4989H24.9631L24.8761 17.6439H26.6447C26.6061 17.7212 26.5577 17.7985 26.4998 17.8758C26.4611 17.9338 26.4128 18.0014 26.3548 18.0788H22.7306C22.7113 18.0981 22.692 18.1174 22.6726 18.1367C22.6533 18.1561 22.634 18.1851 22.6147 18.2237ZM15.0764 6.1915H15.9462C15.8882 6.17217 15.8206 6.16251 15.7432 6.16251C15.6853 6.16251 15.6176 6.16251 15.5403 6.16251C15.463 6.16251 15.3857 6.16251 15.3083 6.16251C15.231 6.16251 15.1537 6.17217 15.0764 6.1915ZM42.3088 20.2532V20.3982H45.3241C45.3241 20.4949 45.2951 20.5915 45.2371 20.6881H42.0769C42.0189 20.8235 41.9222 20.9201 41.7869 20.9781H43.1206C43.024 21.0554 42.8887 21.0941 42.7147 21.0941H26.0146C25.8406 21.0941 25.7053 21.0554 25.6087 20.9781H24.275C24.217 20.9394 24.159 20.9008 24.101 20.8621C24.0624 20.8041 24.0237 20.7461 23.985 20.6881H27.1743C27.1356 20.6108 27.097 20.5142 27.0583 20.3982H24.043V20.2532H27.2033V19.8184H24.7389V19.6734H23.0863V19.2385H26.5075V18.8036H23.3472V18.2237H24.4199V17.9338H25.2897V17.3539H24.8548V17.2959C24.8548 17.2573 24.8548 17.1896 24.8548 17.093C24.8742 16.9963 24.8935 16.89 24.9128 16.7741H26.3335C26.3528 16.6967 26.3722 16.6291 26.3915 16.5711C26.4301 16.4938 26.4591 16.4165 26.4785 16.3392H24.5649C24.6036 16.3005 24.6326 16.2522 24.6519 16.1942C24.6905 16.1362 24.7292 16.0879 24.7679 16.0492H24.8838C24.9805 15.9332 25.0868 15.8269 25.2028 15.7303L25.5217 15.4984C25.541 15.4984 25.5507 15.4984 25.5507 15.4984C25.5507 15.479 25.5603 15.4694 25.5797 15.4694H25.5507C25.628 15.4307 25.6956 15.3824 25.7536 15.3244C25.8116 15.2664 25.8793 15.2181 25.9566 15.1794H26.1016C26.1402 15.1408 26.1789 15.1118 26.2175 15.0924C26.2562 15.0731 26.2852 15.0538 26.3045 15.0345H26.3335C26.4301 14.9571 26.5268 14.8895 26.6234 14.8315C26.7394 14.7542 26.8361 14.6769 26.9134 14.5996H26.6524C26.7297 14.5609 26.7974 14.5126 26.8554 14.4546C26.9134 14.3966 26.981 14.3483 27.0583 14.3096H27.1453L27.7542 13.8747H28.0441C28.1794 13.7781 28.305 13.6814 28.421 13.5848C28.5563 13.4688 28.6916 13.3722 28.8269 13.2949H27.6962C27.8315 13.1982 27.9571 13.1016 28.0731 13.0049C28.2084 12.889 28.3437 12.7923 28.479 12.715H29.6387C29.6774 12.6763 29.7161 12.6473 29.7547 12.628C29.7934 12.6087 29.8224 12.5894 29.8417 12.57H29.9867C30.064 12.5314 30.1316 12.483 30.1896 12.4251C30.2476 12.3671 30.3152 12.3188 30.3926 12.2801H29.0009C29.1555 12.1835 29.2908 12.0868 29.4068 11.9902C29.5421 11.8742 29.6677 11.7775 29.7837 11.7002H29.6387L29.8127 11.5553H30.8854C30.9241 11.5166 30.9628 11.4876 31.0014 11.4683C31.0401 11.449 31.0691 11.4296 31.0884 11.4103H28.7109L29.4648 10.8304H32.2481L32.4221 10.6855H30.2766L30.7985 10.2506H32.0742L32.4221 9.96063H30.8275C30.9434 9.86399 31.0497 9.76734 31.1464 9.6707C31.2624 9.55473 31.359 9.45808 31.4363 9.38077H34.3356C34.3743 9.34211 34.4033 9.31311 34.4226 9.29379C34.442 9.27446 34.4613 9.25513 34.4806 9.2358H33.6688C33.7268 9.19714 33.7751 9.14882 33.8138 9.09083C33.8718 9.03285 33.9201 8.98452 33.9587 8.94587H30.8565C31.0111 8.79124 31.1271 8.64627 31.2044 8.51097H33.1469L33.4658 7.9311H34.4516C34.5483 7.69915 34.5966 7.50587 34.5966 7.35123H35.5244V7.20627H36.2492C36.2492 7.12895 36.2492 7.0613 36.2492 7.00332C36.2492 6.926 36.2395 6.84869 36.2202 6.77137H35.2054L35.1475 6.6264H33.4369L33.3499 6.77137H34.0167C33.9781 6.84869 33.9394 6.926 33.9007 7.00332C33.8814 7.0613 33.8524 7.12895 33.8138 7.20627H32.683L32.625 7.35123H32.0452C32.0258 7.38989 32.0162 7.42855 32.0162 7.46721C32.0162 7.50587 32.0065 7.54452 31.9872 7.58318C31.9679 7.6605 31.9389 7.72815 31.9002 7.78613C31.8616 7.84412 31.8229 7.89244 31.7842 7.9311H29.5518C29.4358 8.0664 29.2908 8.15338 29.1169 8.19204C28.9622 8.2307 28.7883 8.25003 28.595 8.25003H23.1442C22.893 8.25003 22.7093 8.14372 22.5934 7.9311H24.8258C24.7679 7.83446 24.7389 7.72815 24.7389 7.61217V7.35123H25.3187V7.20627H26.4495C26.4495 7.12895 26.4495 7.0613 26.4495 7.00332C26.4688 6.926 26.4785 6.84869 26.4785 6.77137H25.8116C25.8116 6.71338 25.8213 6.66506 25.8406 6.6264H24.7969C24.7969 6.58774 24.7969 6.55875 24.7969 6.53942C24.8162 6.52009 24.8258 6.50077 24.8258 6.48144H22.6224C22.6417 6.44278 22.6514 6.39446 22.6514 6.33647C22.6514 6.27848 22.661 6.23016 22.6803 6.1915H24.9708L25.1158 5.61164H24.7099C24.7099 5.59231 24.7292 5.54399 24.7679 5.46667H21.7816C21.8009 5.38936 21.8299 5.3217 21.8685 5.26372C21.8879 5.1864 21.9072 5.10909 21.9265 5.03177H26.3915C26.4301 4.95446 26.4688 4.88681 26.5075 4.82882C26.5461 4.7515 26.5751 4.67419 26.5944 4.59687H23.3762C23.4342 4.50023 23.4922 4.40358 23.5501 4.30694C23.6081 4.19097 23.6661 4.09432 23.7241 4.01701H24.333C24.3716 3.97835 24.4103 3.93003 24.4489 3.87204C24.4876 3.81405 24.5166 3.76573 24.5359 3.72707H26.3625C26.4205 3.66909 26.4591 3.62076 26.4785 3.58211H24.7969C24.8355 3.54345 24.8742 3.49513 24.9128 3.43714C24.9515 3.37915 24.9901 3.33083 25.0288 3.29217H26.5075L26.6524 3.14721H26.4495C26.6234 2.93459 26.8167 2.7413 27.0293 2.56734H27.6962L27.8701 2.42237H26.4785L26.6524 2.27741H27.6382C27.7155 2.23875 27.7832 2.19043 27.8412 2.13244C27.9185 2.07446 27.9861 2.02613 28.0441 1.98748H29.7837L30.2476 1.69754H31.4073C31.6006 1.58157 31.7939 1.47526 31.9872 1.37862C32.1998 1.28197 32.4124 1.19499 32.625 1.11768H29.7837C29.8417 1.07902 29.8997 1.05003 29.9577 1.0307C30.035 1.01137 30.1026 0.99204 30.1606 0.972712H29.0879C29.1845 0.934053 29.2618 0.90506 29.3198 0.885731C29.3971 0.866403 29.4744 0.847074 29.5518 0.827744H34.7126C35.6983 0.537811 36.7711 0.392845 37.9308 0.392845C39.2645 0.392845 40.4532 0.537811 41.497 0.827744H36.3362C36.4328 0.847074 36.5198 0.866403 36.5971 0.885731C36.6744 0.90506 36.7518 0.934053 36.8291 0.972712H37.9018C37.9791 0.99204 38.0468 1.01137 38.1048 1.0307C38.1821 1.05003 38.2497 1.07902 38.3077 1.11768H41.1491C41.381 1.19499 41.5936 1.28197 41.7869 1.37862C41.9995 1.47526 42.2025 1.58157 42.3958 1.69754H41.2361C41.3134 1.7362 41.3907 1.78452 41.468 1.84251C41.5453 1.9005 41.6226 1.94882 41.6999 1.98748H39.9603L40.3373 2.27741H39.3225L39.4965 2.42237H40.9171L41.0911 2.56734H40.3952C40.4919 2.64466 40.5885 2.7413 40.6852 2.85728C40.7818 2.95392 40.8688 3.05056 40.9461 3.14721H41.1491C41.1684 3.16654 41.1877 3.18587 41.2071 3.20519C41.2264 3.22452 41.2457 3.25352 41.265 3.29217H39.7864C39.825 3.33083 39.854 3.37915 39.8734 3.43714C39.912 3.49513 39.9507 3.54345 39.9893 3.58211H41.671L41.7579 3.72707H39.9314C39.9893 3.82372 40.0377 3.92036 40.0763 4.01701H39.4675L39.7284 4.59687H42.9467C42.9853 4.67419 43.0143 4.7515 43.0336 4.82882C43.053 4.88681 43.0723 4.95446 43.0916 5.03177H38.6267C38.6653 5.10909 38.6846 5.1864 38.6846 5.26372C38.704 5.3217 38.7233 5.38936 38.7426 5.46667H41.7289C41.7289 5.486 41.7289 5.50533 41.7289 5.52466C41.7483 5.54399 41.7579 5.57298 41.7579 5.61164H42.1638C42.2218 5.80493 42.2508 5.99821 42.2508 6.1915H43.7005L43.7295 6.48144H41.0621C41.0814 6.52009 41.0911 6.56842 41.0911 6.6264H42.8307V6.77137H43.8454V7.20627H43.1206C43.1206 7.26426 43.111 7.31258 43.0916 7.35123H42.1638C42.1638 7.44788 42.1542 7.54452 42.1348 7.64117C42.1348 7.73781 42.1252 7.83446 42.1058 7.9311H41.1201C41.1008 8.02774 41.0814 8.12439 41.0621 8.22103C41.0428 8.31768 41.0138 8.41432 40.9751 8.51097H39.0616C39.0422 8.58828 39.0229 8.6656 39.0036 8.74291C38.9842 8.8009 38.9552 8.86855 38.9166 8.94587H41.9899L41.8739 9.2358H42.6857L42.5987 9.38077H39.6994C39.6607 9.47741 39.6124 9.57405 39.5544 9.6707C39.4965 9.76734 39.4481 9.86399 39.4095 9.96063H40.9751C40.9558 9.99929 40.9268 10.0476 40.8881 10.1056C40.8688 10.1636 40.8398 10.2119 40.8012 10.2506H39.5254L39.2355 10.6855H41.352L41.265 10.8304H38.4817L37.9888 11.4103H40.3373C40.3179 11.4296 40.2986 11.449 40.2793 11.4683C40.2599 11.4876 40.2406 11.5166 40.2213 11.5553H39.1485L39.0036 11.7002H39.1775L38.5687 12.2801H39.9314C39.8927 12.3188 39.8444 12.3671 39.7864 12.4251C39.7284 12.483 39.6704 12.5314 39.6124 12.57H39.4675L39.3225 12.715H38.1628L37.4669 13.2949H38.5977C38.4817 13.3915 38.3561 13.4881 38.2207 13.5848C38.1048 13.6814 37.9791 13.7781 37.8438 13.8747H37.5829L36.974 14.3096H36.8871C36.8097 14.3483 36.7324 14.3966 36.6551 14.4546C36.5971 14.5126 36.5391 14.5609 36.4812 14.5996H36.7421C36.6648 14.6575 36.5778 14.7252 36.4812 14.8025C36.3845 14.8605 36.2879 14.9185 36.1912 14.9765L36.1332 15.0345H36.1042L35.9883 15.1214H42.1058C42.1832 15.1214 42.2798 15.1408 42.3958 15.1794H42.2508C42.3668 15.2374 42.4828 15.3341 42.5987 15.4694H42.6277C42.705 15.566 42.7437 15.711 42.7437 15.9043V16.0492H42.6277V16.3392H44.5413V16.7741H43.1206V17.3539H43.5555V17.9338H42.6857V18.2237H41.613V18.8036H44.7732V19.2385H41.352V19.6734H43.0046V19.8184H45.4691V20.2532H42.3088ZM33.3499 6.48144H35.9883C35.911 6.34613 35.795 6.24949 35.6403 6.1915H34.1907C34.0747 6.13352 33.8911 6.10452 33.6398 6.10452C33.4465 6.10452 33.2726 6.13352 33.1179 6.1915H30.8275C30.7308 6.21083 30.6438 6.24949 30.5665 6.30748C30.4892 6.36546 30.4119 6.42345 30.3346 6.48144H32.5381C32.5187 6.50077 32.4994 6.52009 32.4801 6.53942C32.4607 6.55875 32.4414 6.58774 32.4221 6.6264H33.4079C33.4079 6.60707 33.3885 6.55875 33.3499 6.48144Z" fill="white"/>
</svg>
