<svg width="244" height="119" viewBox="0 0 244 119" fill="none" xmlns="http://www.w3.org/2000/svg">
<g clip-path="url(#clip0_1_485)">
<path d="M111.813 107.017C115.383 99.7643 118.726 92.401 122.29 85.1425C125.792 92.4195 129.172 99.752 132.736 107.01C125.743 107.023 118.781 107.004 111.813 107.017Z" fill="#EF428C"/>
<path d="M184.597 77.7174C194.343 77.7174 204.076 77.7174 213.822 77.7174C213.822 80.5953 213.822 83.4732 213.822 86.3511C208.558 86.3511 219.133 86.3511 213.877 86.3511C213.877 88.3184 213.877 90.2733 213.841 92.2344C208.568 92.2344 219.125 92.2344 213.841 92.2344C213.841 95.1123 213.841 98.0046 213.841 100.911C204.095 100.973 194.362 100.911 184.616 100.911C184.612 93.2108 184.606 85.4796 184.597 77.7174Z" fill="#EF428C"/>
<path d="M139.945 57.5623C143.515 50.3099 146.858 42.9466 150.422 35.6881C153.925 42.9651 157.304 50.2976 160.868 57.5562C153.876 57.5685 146.914 57.55 139.945 57.5623Z" fill="#EF428C"/>
<path d="M69.6647 41.394C68.8352 34.8077 74.4208 28.2338 81.0818 28.2523C87.3741 27.7836 93.2117 33.1858 93.4206 39.5008C93.7524 42.9913 92.0995 46.2104 90.0164 48.8684C90.0164 48.8684 88.5956 49.9194 87.5685 50.4902C86.5414 51.061 84.7564 51.7915 84.7564 51.7915C77.8926 53.8451 70.1932 48.523 69.6647 41.394Z" fill="#EF428C"/>
<path d="M128.339 0.334473C130.334 0.334473 132.327 0.334473 134.318 0.334473C134.225 13.9819 134.318 27.6294 134.262 41.2769C134.109 50.4348 125.739 58.3779 116.621 58.0448C107.68 58.1188 99.7346 50.256 99.4151 41.3386C99.3229 34.9866 99.4151 28.6346 99.3782 22.2827C101.388 22.2827 103.391 22.2827 105.406 22.2827C105.462 28.3201 105.406 34.3699 105.406 40.4073C105.362 42.4361 105.855 44.4404 106.835 46.2152C107.815 47.99 109.248 49.4717 110.986 50.5088C115.484 53.2161 121.819 52.3589 125.309 48.3566C127.534 46.0131 128.382 42.7138 128.339 39.5378C128.326 26.4515 128.4 13.3899 128.339 0.334473Z" fill="white"/>
<path d="M17.1544 29.2574C17.9336 27.2148 19.3088 25.4557 21.1002 24.2102C22.8916 22.9647 25.0158 22.2907 27.195 22.2764C34.8945 22.2209 42.5878 22.2764 50.2995 22.2764C50.2995 24.0463 50.3364 25.8224 50.361 27.5985C42.938 27.6355 35.509 27.5985 28.0799 27.5985C26.8321 27.4741 25.5799 27.7878 24.5368 28.4861C23.4936 29.1844 22.724 30.2242 22.3591 31.4281C21.7446 33.8949 23.8522 36.4789 26.3286 36.6331C32.2829 36.9476 38.2618 36.4172 44.2162 36.8859C46.6874 37.1616 48.9832 38.3013 50.7011 40.1054C52.4189 41.9095 53.4493 44.2629 53.6116 46.753C54.1462 52.5315 49.0583 58.0571 43.2883 57.9954C28.9217 57.9954 14.5551 58.0571 0.194702 57.9954C0.194702 56.1453 0.194702 54.2952 0.194702 52.4883C14.8808 52.291 29.5915 52.6671 44.2715 52.3095C48.8371 51.1501 49.1873 44.0519 44.5726 42.689C38.2065 42.0168 31.7238 42.8864 25.3393 42.2697C19.5079 41.4556 15.0467 34.9741 17.1544 29.2574Z" fill="white"/>
<path d="M72.0398 22.7637C80.8269 20.4819 90.5971 26.3528 92.9875 35.0976C95.2733 42.0354 92.373 49.8983 86.8427 54.3817C89.829 60.1169 92.5205 65.9941 95.4454 71.7417C94.4991 73.6781 93.602 75.6453 92.668 77.6003C83.7027 77.6003 74.7312 77.5571 65.766 77.6003C59.5228 77.6003 54.0908 83.5205 54.4472 89.7307C54.5394 95.6509 59.7318 101.016 65.6738 101.09C72.4863 101.135 79.3009 101.135 86.1176 101.09C84.4032 98.1917 83.0759 95.0774 81.2877 92.2159C75.6652 92.3578 70.0427 92.216 64.4264 92.29C64.4264 90.4399 64.4264 88.5898 64.4264 86.7397C71.3639 86.7767 78.3014 86.7027 85.2389 86.7828C87.6354 91.5807 90.0994 96.354 92.5819 101.127H98.9848C98.9848 103.101 98.9418 105.074 98.9848 107.06L95.4516 106.967C97.5346 110.667 99.3474 114.516 101.381 118.234H94.7633C92.84 114.503 90.9167 110.766 89.0425 107.017C80.9129 106.924 72.7772 107.158 64.6537 106.912C55.9527 106.246 48.7755 98.4569 48.542 89.7491C48.37 80.7947 55.6762 72.3522 64.6783 71.865C72.7403 71.5134 80.833 71.865 88.9073 71.7047C86.4494 66.9068 84.0591 62.041 81.7732 57.1445C78.0003 58.2668 73.8894 58.4827 70.1533 57.1013C62.9455 54.6777 57.7101 47.2342 58.1464 39.5625C58.3 31.6379 64.3342 24.3424 72.0398 22.7637ZM64.0515 41.3755C64.58 48.5292 72.2795 53.8451 79.1309 51.773C77.2076 47.8262 75.3027 43.867 73.2811 39.9757L79.8069 40.0373C81.3369 42.9728 82.5413 46.0933 84.3909 48.8499C86.474 46.1919 88.1269 42.9728 87.7951 39.4823C87.5923 33.192 81.7486 27.7651 75.4563 28.2338C68.8199 28.2091 63.2343 34.7892 64.0638 41.394L64.0515 41.3755Z" fill="white"/>
<path d="M180.008 22.2564C189.121 22.3304 198.227 22.1331 207.34 22.3489C216.109 22.8793 223.667 30.736 223.771 39.5732C224.281 48.8668 216.397 57.6177 207.106 57.9754C198.067 58.0802 189.022 57.9754 179.983 58.0124C180.063 46.0917 180.02 34.1648 180.008 22.2564ZM186.054 28.041C186.097 36.1505 186.054 44.2539 186.054 52.3635C192.814 52.308 199.573 52.4251 206.332 52.3203C213.092 52.2155 219.046 45.401 217.829 38.568C217.264 32.8512 212.035 28.0842 206.32 28.0842C199.598 27.9917 192.838 28.0657 186.079 28.0348L186.054 28.041Z" fill="white"/>
<path d="M115.945 71.6985C121.819 83.3602 127.153 95.3056 132.904 107.041C130.786 107.013 128.668 107 126.55 107.004C123.017 99.7458 119.638 92.4133 116.104 85.1363C112.534 92.3948 109.191 99.7643 105.627 107.01C103.587 107.01 101.553 107.01 99.4825 107.01C104.724 95.1083 110.82 83.6254 115.945 71.6985Z" fill="white"/>
<path d="M156.119 22.2443C161.993 33.906 167.327 45.8514 173.078 57.5871C170.961 57.5583 168.843 57.546 166.725 57.5501C163.192 50.2916 159.812 42.9591 156.279 35.682C152.708 42.9406 149.366 50.3101 145.802 57.5563C143.762 57.5563 141.728 57.5563 139.657 57.5563C144.898 45.654 150.994 34.1712 156.119 22.2443Z" fill="white"/>
<path d="M139.608 72.1054C141.462 71.6875 143.367 71.5462 145.261 71.686C150.233 81.5532 154.884 91.5498 159.978 101.331C164.816 91.4429 169.669 81.5614 174.535 71.686C176.334 71.686 178.13 71.686 179.924 71.686C180.004 75.9227 179.924 80.1532 179.998 84.3899C179.945 89.4674 179.945 94.5511 179.998 99.6409C179.961 102.108 179.955 104.574 179.937 107.041H174.056C174.093 99.6409 174.056 92.2035 174.099 84.7785C170.351 92.1788 166.787 99.6285 163.1 107.047H156.722C153.035 99.647 149.452 92.2158 145.778 84.8155C145.624 92.2158 145.778 99.6532 145.704 107.078C143.701 107.078 141.697 107.041 139.707 107.035C139.664 95.3672 139.854 83.7301 139.608 72.1054Z" fill="white"/>
<path d="M188.331 71.6921C199.997 71.6921 211.662 71.6921 223.325 71.6921C223.325 73.7087 223.325 75.7315 223.325 77.7604C213.58 77.7172 203.846 77.7604 194.101 77.7604C194.101 85.5143 194.101 93.2703 194.101 101.028C203.846 101.028 213.58 101.065 223.325 101.028C223.325 103.045 223.325 105.074 223.325 107.097C211.65 107.068 199.975 107.068 188.3 107.097C188.331 95.2437 188.3 83.4649 188.331 71.6921Z" fill="white"/>
<path d="M207.539 86.4127C212.795 86.4415 218.055 86.4415 223.319 86.4127C230.121 86.4127 236.924 86.4127 243.738 86.4127C243.738 88.3779 243.738 90.3452 243.738 92.3145H223.356C218.079 92.3145 212.801 92.3145 207.521 92.3145C207.521 90.3164 207.521 88.3615 207.539 86.4127Z" fill="white"/>
</g>
<defs>
<clipPath id="clip0_1_485">
<rect width="243.544" height="117.906" fill="white" transform="translate(0.19458 0.322021)"/>
</clipPath>
</defs>
</svg>
